%TF.GenerationSoftware,KiCad,Pcbnew,9.0.5*%
%TF.CreationDate,2026-10-06T13:24:37-04:00*%
%TF.ProjectId,broadband_antenna,62726f61-6462-4616-9e64-5f616e74656e,rev?*%
%TF.SameCoordinates,Original*%
%TF.FileFunction,Copper,L2,Bot*%
%TF.FilePolarity,Positive*%
%FSLAX46Y46*%
G04 Gerber Fmt 4.6, Leading zero omitted, Abs format (unit mm)*
G04 Created by KiCad (PCBNEW 9.0.5) date 2026-10-06 13:24:37*
%MOMM*%
%LPD*%
G01*
G04 APERTURE LIST*
G04 APERTURE END LIST*
%TA.AperFunction,NonConductor*%
G36*
X159442539Y-100520185D02*
G01*
X159488294Y-100572989D01*
X159499500Y-100624500D01*
X159499500Y-139375500D01*
X159479815Y-139442539D01*
X159427011Y-139488294D01*
X159375500Y-139499500D01*
X97024500Y-139499500D01*
X96957461Y-139479815D01*
X96911706Y-139427011D01*
X96900500Y-139375500D01*
X96900500Y-134885258D01*
X113249500Y-134885258D01*
X113249500Y-135114741D01*
X113274446Y-135304215D01*
X113279452Y-135342238D01*
X113279453Y-135342240D01*
X113338842Y-135563887D01*
X113426650Y-135775876D01*
X113426657Y-135775890D01*
X113541392Y-135974617D01*
X113681081Y-136156661D01*
X113681089Y-136156670D01*
X113843330Y-136318911D01*
X113843338Y-136318918D01*
X114025382Y-136458607D01*
X114025385Y-136458608D01*
X114025388Y-136458611D01*
X114224112Y-136573344D01*
X114224117Y-136573346D01*
X114224123Y-136573349D01*
X114315480Y-136611190D01*
X114436113Y-136661158D01*
X114657762Y-136720548D01*
X114885266Y-136750500D01*
X114885273Y-136750500D01*
X115114727Y-136750500D01*
X115114734Y-136750500D01*
X115342238Y-136720548D01*
X115563887Y-136661158D01*
X115775888Y-136573344D01*
X115974612Y-136458611D01*
X116156661Y-136318919D01*
X116156665Y-136318914D01*
X116156670Y-136318911D01*
X116318911Y-136156670D01*
X116318914Y-136156665D01*
X116318919Y-136156661D01*
X116458611Y-135974612D01*
X116573344Y-135775888D01*
X116661158Y-135563887D01*
X116720548Y-135342238D01*
X116750500Y-135114734D01*
X116750500Y-134885266D01*
X116750499Y-134885258D01*
X143249500Y-134885258D01*
X143249500Y-135114741D01*
X143274446Y-135304215D01*
X143279452Y-135342238D01*
X143279453Y-135342240D01*
X143338842Y-135563887D01*
X143426650Y-135775876D01*
X143426657Y-135775890D01*
X143541392Y-135974617D01*
X143681081Y-136156661D01*
X143681089Y-136156670D01*
X143843330Y-136318911D01*
X143843338Y-136318918D01*
X144025382Y-136458607D01*
X144025385Y-136458608D01*
X144025388Y-136458611D01*
X144224112Y-136573344D01*
X144224117Y-136573346D01*
X144224123Y-136573349D01*
X144315480Y-136611190D01*
X144436113Y-136661158D01*
X144657762Y-136720548D01*
X144885266Y-136750500D01*
X144885273Y-136750500D01*
X145114727Y-136750500D01*
X145114734Y-136750500D01*
X145342238Y-136720548D01*
X145563887Y-136661158D01*
X145775888Y-136573344D01*
X145974612Y-136458611D01*
X146156661Y-136318919D01*
X146156665Y-136318914D01*
X146156670Y-136318911D01*
X146318911Y-136156670D01*
X146318914Y-136156665D01*
X146318919Y-136156661D01*
X146458611Y-135974612D01*
X146573344Y-135775888D01*
X146661158Y-135563887D01*
X146720548Y-135342238D01*
X146750500Y-135114734D01*
X146750500Y-134885266D01*
X146720548Y-134657762D01*
X146661158Y-134436113D01*
X146573344Y-134224112D01*
X146458611Y-134025388D01*
X146458608Y-134025385D01*
X146458607Y-134025382D01*
X146318918Y-133843338D01*
X146318911Y-133843330D01*
X146156670Y-133681089D01*
X146156661Y-133681081D01*
X145974617Y-133541392D01*
X145775890Y-133426657D01*
X145775876Y-133426650D01*
X145563887Y-133338842D01*
X145342238Y-133279452D01*
X145304215Y-133274446D01*
X145114741Y-133249500D01*
X145114734Y-133249500D01*
X144885266Y-133249500D01*
X144885258Y-133249500D01*
X144668715Y-133278009D01*
X144657762Y-133279452D01*
X144564076Y-133304554D01*
X144436112Y-133338842D01*
X144224123Y-133426650D01*
X144224109Y-133426657D01*
X144025382Y-133541392D01*
X143843338Y-133681081D01*
X143681081Y-133843338D01*
X143541392Y-134025382D01*
X143426657Y-134224109D01*
X143426650Y-134224123D01*
X143338842Y-134436112D01*
X143279453Y-134657759D01*
X143279451Y-134657770D01*
X143249500Y-134885258D01*
X116750499Y-134885258D01*
X116720548Y-134657762D01*
X116661158Y-134436113D01*
X116573344Y-134224112D01*
X116458611Y-134025388D01*
X116458608Y-134025385D01*
X116458607Y-134025382D01*
X116318918Y-133843338D01*
X116318911Y-133843330D01*
X116156670Y-133681089D01*
X116156661Y-133681081D01*
X115974617Y-133541392D01*
X115775890Y-133426657D01*
X115775876Y-133426650D01*
X115563887Y-133338842D01*
X115342238Y-133279452D01*
X115304215Y-133274446D01*
X115114741Y-133249500D01*
X115114734Y-133249500D01*
X114885266Y-133249500D01*
X114885258Y-133249500D01*
X114668715Y-133278009D01*
X114657762Y-133279452D01*
X114564076Y-133304554D01*
X114436112Y-133338842D01*
X114224123Y-133426650D01*
X114224109Y-133426657D01*
X114025382Y-133541392D01*
X113843338Y-133681081D01*
X113681081Y-133843338D01*
X113541392Y-134025382D01*
X113426657Y-134224109D01*
X113426650Y-134224123D01*
X113338842Y-134436112D01*
X113279453Y-134657759D01*
X113279451Y-134657770D01*
X113249500Y-134885258D01*
X96900500Y-134885258D01*
X96900500Y-104885258D01*
X113249500Y-104885258D01*
X113249500Y-105114741D01*
X113274446Y-105304215D01*
X113279452Y-105342238D01*
X113279453Y-105342240D01*
X113338842Y-105563887D01*
X113426650Y-105775876D01*
X113426657Y-105775890D01*
X113541392Y-105974617D01*
X113681081Y-106156661D01*
X113681089Y-106156670D01*
X113843330Y-106318911D01*
X113843338Y-106318918D01*
X114025382Y-106458607D01*
X114025385Y-106458608D01*
X114025388Y-106458611D01*
X114224112Y-106573344D01*
X114224117Y-106573346D01*
X114224123Y-106573349D01*
X114315480Y-106611190D01*
X114436113Y-106661158D01*
X114657762Y-106720548D01*
X114885266Y-106750500D01*
X114885273Y-106750500D01*
X115114727Y-106750500D01*
X115114734Y-106750500D01*
X115342238Y-106720548D01*
X115563887Y-106661158D01*
X115775888Y-106573344D01*
X115974612Y-106458611D01*
X116156661Y-106318919D01*
X116156665Y-106318914D01*
X116156670Y-106318911D01*
X116318911Y-106156670D01*
X116318914Y-106156665D01*
X116318919Y-106156661D01*
X116458611Y-105974612D01*
X116573344Y-105775888D01*
X116661158Y-105563887D01*
X116720548Y-105342238D01*
X116750500Y-105114734D01*
X116750500Y-104885266D01*
X116750499Y-104885258D01*
X143249500Y-104885258D01*
X143249500Y-105114741D01*
X143274446Y-105304215D01*
X143279452Y-105342238D01*
X143279453Y-105342240D01*
X143338842Y-105563887D01*
X143426650Y-105775876D01*
X143426657Y-105775890D01*
X143541392Y-105974617D01*
X143681081Y-106156661D01*
X143681089Y-106156670D01*
X143843330Y-106318911D01*
X143843338Y-106318918D01*
X144025382Y-106458607D01*
X144025385Y-106458608D01*
X144025388Y-106458611D01*
X144224112Y-106573344D01*
X144224117Y-106573346D01*
X144224123Y-106573349D01*
X144315480Y-106611190D01*
X144436113Y-106661158D01*
X144657762Y-106720548D01*
X144885266Y-106750500D01*
X144885273Y-106750500D01*
X145114727Y-106750500D01*
X145114734Y-106750500D01*
X145342238Y-106720548D01*
X145563887Y-106661158D01*
X145775888Y-106573344D01*
X145974612Y-106458611D01*
X146156661Y-106318919D01*
X146156665Y-106318914D01*
X146156670Y-106318911D01*
X146318911Y-106156670D01*
X146318914Y-106156665D01*
X146318919Y-106156661D01*
X146458611Y-105974612D01*
X146573344Y-105775888D01*
X146661158Y-105563887D01*
X146720548Y-105342238D01*
X146750500Y-105114734D01*
X146750500Y-104885266D01*
X146720548Y-104657762D01*
X146661158Y-104436113D01*
X146573344Y-104224112D01*
X146458611Y-104025388D01*
X146458608Y-104025385D01*
X146458607Y-104025382D01*
X146318918Y-103843338D01*
X146318911Y-103843330D01*
X146156670Y-103681089D01*
X146156661Y-103681081D01*
X145974617Y-103541392D01*
X145775890Y-103426657D01*
X145775876Y-103426650D01*
X145563887Y-103338842D01*
X145342238Y-103279452D01*
X145304215Y-103274446D01*
X145114741Y-103249500D01*
X145114734Y-103249500D01*
X144885266Y-103249500D01*
X144885258Y-103249500D01*
X144668715Y-103278009D01*
X144657762Y-103279452D01*
X144564076Y-103304554D01*
X144436112Y-103338842D01*
X144224123Y-103426650D01*
X144224109Y-103426657D01*
X144025382Y-103541392D01*
X143843338Y-103681081D01*
X143681081Y-103843338D01*
X143541392Y-104025382D01*
X143426657Y-104224109D01*
X143426650Y-104224123D01*
X143338842Y-104436112D01*
X143279453Y-104657759D01*
X143279451Y-104657770D01*
X143249500Y-104885258D01*
X116750499Y-104885258D01*
X116720548Y-104657762D01*
X116661158Y-104436113D01*
X116573344Y-104224112D01*
X116458611Y-104025388D01*
X116458608Y-104025385D01*
X116458607Y-104025382D01*
X116318918Y-103843338D01*
X116318911Y-103843330D01*
X116156670Y-103681089D01*
X116156661Y-103681081D01*
X115974617Y-103541392D01*
X115775890Y-103426657D01*
X115775876Y-103426650D01*
X115563887Y-103338842D01*
X115342238Y-103279452D01*
X115304215Y-103274446D01*
X115114741Y-103249500D01*
X115114734Y-103249500D01*
X114885266Y-103249500D01*
X114885258Y-103249500D01*
X114668715Y-103278009D01*
X114657762Y-103279452D01*
X114564076Y-103304554D01*
X114436112Y-103338842D01*
X114224123Y-103426650D01*
X114224109Y-103426657D01*
X114025382Y-103541392D01*
X113843338Y-103681081D01*
X113681081Y-103843338D01*
X113541392Y-104025382D01*
X113426657Y-104224109D01*
X113426650Y-104224123D01*
X113338842Y-104436112D01*
X113279453Y-104657759D01*
X113279451Y-104657770D01*
X113249500Y-104885258D01*
X96900500Y-104885258D01*
X96900500Y-100624500D01*
X96920185Y-100557461D01*
X96972989Y-100511706D01*
X97024500Y-100500500D01*
X159375500Y-100500500D01*
X159442539Y-100520185D01*
G37*
%TD.AperFunction*%
M02*
