%TF.GenerationSoftware,KiCad,Pcbnew,9.0.5*%
%TF.CreationDate,2026-10-05T13:00:40-04:00*%
%TF.ProjectId,broadband_antenna,62726f61-6462-4616-9e64-5f616e74656e,rev?*%
%TF.SameCoordinates,Original*%
%TF.FileFunction,Soldermask,Bot*%
%TF.FilePolarity,Negative*%
%FSLAX46Y46*%
G04 Gerber Fmt 4.6, Leading zero omitted, Abs format (unit mm)*
G04 Created by KiCad (PCBNEW 9.0.5) date 2026-10-05 13:00:40*
%MOMM*%
%LPD*%
G01*
G04 APERTURE LIST*
G04 APERTURE END LIST*
G36*
X96900000Y-122372500D02*
G01*
X100120000Y-122372500D01*
X100120000Y-123717500D01*
X96900000Y-123717500D01*
X96900000Y-122372500D01*
G37*
G36*
X96900000Y-116722500D02*
G01*
X100120000Y-116722500D01*
X100120000Y-118067500D01*
X96900000Y-118067500D01*
X96900000Y-116722500D01*
G37*
G36*
X159943039Y-100019685D02*
G01*
X159988794Y-100072489D01*
X160000000Y-100124000D01*
X160000000Y-139876000D01*
X159980315Y-139943039D01*
X159927511Y-139988794D01*
X159876000Y-140000000D01*
X96524000Y-140000000D01*
X96456961Y-139980315D01*
X96411206Y-139927511D01*
X96400000Y-139876000D01*
X96400000Y-134880056D01*
X113552476Y-134880056D01*
X113552476Y-135119943D01*
X113591961Y-135356566D01*
X113669850Y-135583448D01*
X113669853Y-135583456D01*
X113784030Y-135794436D01*
X113784034Y-135794442D01*
X113931366Y-135983734D01*
X113931374Y-135983743D01*
X114107863Y-136146211D01*
X114107868Y-136146215D01*
X114308692Y-136277421D01*
X114528378Y-136373785D01*
X114760925Y-136432674D01*
X114760937Y-136432676D01*
X114999994Y-136452485D01*
X115000006Y-136452485D01*
X115239062Y-136432676D01*
X115239074Y-136432674D01*
X115471621Y-136373785D01*
X115691307Y-136277421D01*
X115892131Y-136146215D01*
X115892136Y-136146211D01*
X116068625Y-135983743D01*
X116068633Y-135983734D01*
X116215965Y-135794442D01*
X116215969Y-135794436D01*
X116330146Y-135583456D01*
X116330149Y-135583448D01*
X116408039Y-135356565D01*
X116447523Y-135119946D01*
X116447523Y-135119940D01*
X116449999Y-135000000D01*
X116447523Y-134880059D01*
X116447523Y-134880056D01*
X143552476Y-134880056D01*
X143552476Y-135119943D01*
X143591961Y-135356566D01*
X143669850Y-135583448D01*
X143669853Y-135583456D01*
X143784030Y-135794436D01*
X143784034Y-135794442D01*
X143931366Y-135983734D01*
X143931374Y-135983743D01*
X144107863Y-136146211D01*
X144107868Y-136146215D01*
X144308692Y-136277421D01*
X144528378Y-136373785D01*
X144760925Y-136432674D01*
X144760937Y-136432676D01*
X144999994Y-136452485D01*
X145000006Y-136452485D01*
X145239062Y-136432676D01*
X145239074Y-136432674D01*
X145471621Y-136373785D01*
X145691307Y-136277421D01*
X145892131Y-136146215D01*
X145892136Y-136146211D01*
X146068625Y-135983743D01*
X146068633Y-135983734D01*
X146215965Y-135794442D01*
X146215969Y-135794436D01*
X146330146Y-135583456D01*
X146330149Y-135583448D01*
X146408039Y-135356565D01*
X146447523Y-135119946D01*
X146447523Y-135119940D01*
X146449999Y-135000000D01*
X146447523Y-134880059D01*
X146447523Y-134880053D01*
X146408039Y-134643434D01*
X146330149Y-134416551D01*
X146330146Y-134416543D01*
X146215969Y-134205563D01*
X146215965Y-134205557D01*
X146068633Y-134016265D01*
X146068625Y-134016256D01*
X145892136Y-133853788D01*
X145892131Y-133853784D01*
X145691307Y-133722578D01*
X145471621Y-133626214D01*
X145239073Y-133567325D01*
X145000000Y-133547516D01*
X144760926Y-133567325D01*
X144528378Y-133626214D01*
X144308692Y-133722578D01*
X144107868Y-133853784D01*
X144107863Y-133853788D01*
X143931374Y-134016256D01*
X143931366Y-134016265D01*
X143784034Y-134205557D01*
X143784030Y-134205563D01*
X143669853Y-134416543D01*
X143669850Y-134416551D01*
X143591961Y-134643433D01*
X143552476Y-134880056D01*
X116447523Y-134880056D01*
X116447523Y-134880053D01*
X116408039Y-134643434D01*
X116330149Y-134416551D01*
X116330146Y-134416543D01*
X116215969Y-134205563D01*
X116215965Y-134205557D01*
X116068633Y-134016265D01*
X116068625Y-134016256D01*
X115892136Y-133853788D01*
X115892131Y-133853784D01*
X115691307Y-133722578D01*
X115471621Y-133626214D01*
X115239073Y-133567325D01*
X115000000Y-133547516D01*
X114760926Y-133567325D01*
X114528378Y-133626214D01*
X114308692Y-133722578D01*
X114107868Y-133853784D01*
X114107863Y-133853788D01*
X113931374Y-134016256D01*
X113931366Y-134016265D01*
X113784034Y-134205557D01*
X113784030Y-134205563D01*
X113669853Y-134416543D01*
X113669850Y-134416551D01*
X113591961Y-134643433D01*
X113552476Y-134880056D01*
X96400000Y-134880056D01*
X96400000Y-104880056D01*
X113552476Y-104880056D01*
X113552476Y-105119943D01*
X113591961Y-105356566D01*
X113669850Y-105583448D01*
X113669853Y-105583456D01*
X113784030Y-105794436D01*
X113784034Y-105794442D01*
X113931366Y-105983734D01*
X113931374Y-105983743D01*
X114107863Y-106146211D01*
X114107868Y-106146215D01*
X114308692Y-106277421D01*
X114528378Y-106373785D01*
X114760925Y-106432674D01*
X114760937Y-106432676D01*
X114999994Y-106452485D01*
X115000006Y-106452485D01*
X115239062Y-106432676D01*
X115239074Y-106432674D01*
X115471621Y-106373785D01*
X115691307Y-106277421D01*
X115892131Y-106146215D01*
X115892136Y-106146211D01*
X116068625Y-105983743D01*
X116068633Y-105983734D01*
X116215965Y-105794442D01*
X116215969Y-105794436D01*
X116330146Y-105583456D01*
X116330149Y-105583448D01*
X116408039Y-105356565D01*
X116447523Y-105119946D01*
X116447523Y-105119940D01*
X116449999Y-105000000D01*
X116447523Y-104880059D01*
X116447523Y-104880056D01*
X143552476Y-104880056D01*
X143552476Y-105119943D01*
X143591961Y-105356566D01*
X143669850Y-105583448D01*
X143669853Y-105583456D01*
X143784030Y-105794436D01*
X143784034Y-105794442D01*
X143931366Y-105983734D01*
X143931374Y-105983743D01*
X144107863Y-106146211D01*
X144107868Y-106146215D01*
X144308692Y-106277421D01*
X144528378Y-106373785D01*
X144760925Y-106432674D01*
X144760937Y-106432676D01*
X144999994Y-106452485D01*
X145000006Y-106452485D01*
X145239062Y-106432676D01*
X145239074Y-106432674D01*
X145471621Y-106373785D01*
X145691307Y-106277421D01*
X145892131Y-106146215D01*
X145892136Y-106146211D01*
X146068625Y-105983743D01*
X146068633Y-105983734D01*
X146215965Y-105794442D01*
X146215969Y-105794436D01*
X146330146Y-105583456D01*
X146330149Y-105583448D01*
X146408039Y-105356565D01*
X146447523Y-105119946D01*
X146447523Y-105119940D01*
X146449999Y-105000000D01*
X146447523Y-104880059D01*
X146447523Y-104880053D01*
X146408039Y-104643434D01*
X146330149Y-104416551D01*
X146330146Y-104416543D01*
X146215969Y-104205563D01*
X146215965Y-104205557D01*
X146068633Y-104016265D01*
X146068625Y-104016256D01*
X145892136Y-103853788D01*
X145892131Y-103853784D01*
X145691307Y-103722578D01*
X145471621Y-103626214D01*
X145239073Y-103567325D01*
X145000000Y-103547516D01*
X144760926Y-103567325D01*
X144528378Y-103626214D01*
X144308692Y-103722578D01*
X144107868Y-103853784D01*
X144107863Y-103853788D01*
X143931374Y-104016256D01*
X143931366Y-104016265D01*
X143784034Y-104205557D01*
X143784030Y-104205563D01*
X143669853Y-104416543D01*
X143669850Y-104416551D01*
X143591961Y-104643433D01*
X143552476Y-104880056D01*
X116447523Y-104880056D01*
X116447523Y-104880053D01*
X116408039Y-104643434D01*
X116330149Y-104416551D01*
X116330146Y-104416543D01*
X116215969Y-104205563D01*
X116215965Y-104205557D01*
X116068633Y-104016265D01*
X116068625Y-104016256D01*
X115892136Y-103853788D01*
X115892131Y-103853784D01*
X115691307Y-103722578D01*
X115471621Y-103626214D01*
X115239073Y-103567325D01*
X115000000Y-103547516D01*
X114760926Y-103567325D01*
X114528378Y-103626214D01*
X114308692Y-103722578D01*
X114107868Y-103853784D01*
X114107863Y-103853788D01*
X113931374Y-104016256D01*
X113931366Y-104016265D01*
X113784034Y-104205557D01*
X113784030Y-104205563D01*
X113669853Y-104416543D01*
X113669850Y-104416551D01*
X113591961Y-104643433D01*
X113552476Y-104880056D01*
X96400000Y-104880056D01*
X96400000Y-100124000D01*
X96419685Y-100056961D01*
X96472489Y-100011206D01*
X96524000Y-100000000D01*
X159876000Y-100000000D01*
X159943039Y-100019685D01*
G37*
M02*
