%TF.GenerationSoftware,KiCad,Pcbnew,9.0.5*%
%TF.CreationDate,2026-10-05T13:00:40-04:00*%
%TF.ProjectId,broadband_antenna,62726f61-6462-4616-9e64-5f616e74656e,rev?*%
%TF.SameCoordinates,Original*%
%TF.FileFunction,Legend,Top*%
%TF.FilePolarity,Positive*%
%FSLAX46Y46*%
G04 Gerber Fmt 4.6, Leading zero omitted, Abs format (unit mm)*
G04 Created by KiCad (PCBNEW 9.0.5) date 2026-10-05 13:00:40*
%MOMM*%
%LPD*%
G01*
G04 APERTURE LIST*
%ADD10C,0.100000*%
%ADD11C,0.000000*%
G04 APERTURE END LIST*
D10*
X143141503Y-115041760D02*
X143212931Y-115065570D01*
X143212931Y-115065570D02*
X143236741Y-115089379D01*
X143236741Y-115089379D02*
X143260550Y-115136998D01*
X143260550Y-115136998D02*
X143260550Y-115208427D01*
X143260550Y-115208427D02*
X143236741Y-115256046D01*
X143236741Y-115256046D02*
X143212931Y-115279856D01*
X143212931Y-115279856D02*
X143165312Y-115303665D01*
X143165312Y-115303665D02*
X142974836Y-115303665D01*
X142974836Y-115303665D02*
X142974836Y-114803665D01*
X142974836Y-114803665D02*
X143141503Y-114803665D01*
X143141503Y-114803665D02*
X143189122Y-114827475D01*
X143189122Y-114827475D02*
X143212931Y-114851284D01*
X143212931Y-114851284D02*
X143236741Y-114898903D01*
X143236741Y-114898903D02*
X143236741Y-114946522D01*
X143236741Y-114946522D02*
X143212931Y-114994141D01*
X143212931Y-114994141D02*
X143189122Y-115017951D01*
X143189122Y-115017951D02*
X143141503Y-115041760D01*
X143141503Y-115041760D02*
X142974836Y-115041760D01*
X143474836Y-115303665D02*
X143474836Y-114970332D01*
X143474836Y-115065570D02*
X143498646Y-115017951D01*
X143498646Y-115017951D02*
X143522455Y-114994141D01*
X143522455Y-114994141D02*
X143570074Y-114970332D01*
X143570074Y-114970332D02*
X143617693Y-114970332D01*
X143855789Y-115303665D02*
X143808170Y-115279856D01*
X143808170Y-115279856D02*
X143784360Y-115256046D01*
X143784360Y-115256046D02*
X143760551Y-115208427D01*
X143760551Y-115208427D02*
X143760551Y-115065570D01*
X143760551Y-115065570D02*
X143784360Y-115017951D01*
X143784360Y-115017951D02*
X143808170Y-114994141D01*
X143808170Y-114994141D02*
X143855789Y-114970332D01*
X143855789Y-114970332D02*
X143927217Y-114970332D01*
X143927217Y-114970332D02*
X143974836Y-114994141D01*
X143974836Y-114994141D02*
X143998646Y-115017951D01*
X143998646Y-115017951D02*
X144022455Y-115065570D01*
X144022455Y-115065570D02*
X144022455Y-115208427D01*
X144022455Y-115208427D02*
X143998646Y-115256046D01*
X143998646Y-115256046D02*
X143974836Y-115279856D01*
X143974836Y-115279856D02*
X143927217Y-115303665D01*
X143927217Y-115303665D02*
X143855789Y-115303665D01*
X144451027Y-115303665D02*
X144451027Y-115041760D01*
X144451027Y-115041760D02*
X144427217Y-114994141D01*
X144427217Y-114994141D02*
X144379598Y-114970332D01*
X144379598Y-114970332D02*
X144284360Y-114970332D01*
X144284360Y-114970332D02*
X144236741Y-114994141D01*
X144451027Y-115279856D02*
X144403408Y-115303665D01*
X144403408Y-115303665D02*
X144284360Y-115303665D01*
X144284360Y-115303665D02*
X144236741Y-115279856D01*
X144236741Y-115279856D02*
X144212932Y-115232236D01*
X144212932Y-115232236D02*
X144212932Y-115184617D01*
X144212932Y-115184617D02*
X144236741Y-115136998D01*
X144236741Y-115136998D02*
X144284360Y-115113189D01*
X144284360Y-115113189D02*
X144403408Y-115113189D01*
X144403408Y-115113189D02*
X144451027Y-115089379D01*
X144903408Y-115303665D02*
X144903408Y-114803665D01*
X144903408Y-115279856D02*
X144855789Y-115303665D01*
X144855789Y-115303665D02*
X144760551Y-115303665D01*
X144760551Y-115303665D02*
X144712932Y-115279856D01*
X144712932Y-115279856D02*
X144689122Y-115256046D01*
X144689122Y-115256046D02*
X144665313Y-115208427D01*
X144665313Y-115208427D02*
X144665313Y-115065570D01*
X144665313Y-115065570D02*
X144689122Y-115017951D01*
X144689122Y-115017951D02*
X144712932Y-114994141D01*
X144712932Y-114994141D02*
X144760551Y-114970332D01*
X144760551Y-114970332D02*
X144855789Y-114970332D01*
X144855789Y-114970332D02*
X144903408Y-114994141D01*
X145141503Y-115303665D02*
X145141503Y-114803665D01*
X145141503Y-114994141D02*
X145189122Y-114970332D01*
X145189122Y-114970332D02*
X145284360Y-114970332D01*
X145284360Y-114970332D02*
X145331979Y-114994141D01*
X145331979Y-114994141D02*
X145355789Y-115017951D01*
X145355789Y-115017951D02*
X145379598Y-115065570D01*
X145379598Y-115065570D02*
X145379598Y-115208427D01*
X145379598Y-115208427D02*
X145355789Y-115256046D01*
X145355789Y-115256046D02*
X145331979Y-115279856D01*
X145331979Y-115279856D02*
X145284360Y-115303665D01*
X145284360Y-115303665D02*
X145189122Y-115303665D01*
X145189122Y-115303665D02*
X145141503Y-115279856D01*
X145808170Y-115303665D02*
X145808170Y-115041760D01*
X145808170Y-115041760D02*
X145784360Y-114994141D01*
X145784360Y-114994141D02*
X145736741Y-114970332D01*
X145736741Y-114970332D02*
X145641503Y-114970332D01*
X145641503Y-114970332D02*
X145593884Y-114994141D01*
X145808170Y-115279856D02*
X145760551Y-115303665D01*
X145760551Y-115303665D02*
X145641503Y-115303665D01*
X145641503Y-115303665D02*
X145593884Y-115279856D01*
X145593884Y-115279856D02*
X145570075Y-115232236D01*
X145570075Y-115232236D02*
X145570075Y-115184617D01*
X145570075Y-115184617D02*
X145593884Y-115136998D01*
X145593884Y-115136998D02*
X145641503Y-115113189D01*
X145641503Y-115113189D02*
X145760551Y-115113189D01*
X145760551Y-115113189D02*
X145808170Y-115089379D01*
X146046265Y-114970332D02*
X146046265Y-115303665D01*
X146046265Y-115017951D02*
X146070075Y-114994141D01*
X146070075Y-114994141D02*
X146117694Y-114970332D01*
X146117694Y-114970332D02*
X146189122Y-114970332D01*
X146189122Y-114970332D02*
X146236741Y-114994141D01*
X146236741Y-114994141D02*
X146260551Y-115041760D01*
X146260551Y-115041760D02*
X146260551Y-115303665D01*
X146712932Y-115303665D02*
X146712932Y-114803665D01*
X146712932Y-115279856D02*
X146665313Y-115303665D01*
X146665313Y-115303665D02*
X146570075Y-115303665D01*
X146570075Y-115303665D02*
X146522456Y-115279856D01*
X146522456Y-115279856D02*
X146498646Y-115256046D01*
X146498646Y-115256046D02*
X146474837Y-115208427D01*
X146474837Y-115208427D02*
X146474837Y-115065570D01*
X146474837Y-115065570D02*
X146498646Y-115017951D01*
X146498646Y-115017951D02*
X146522456Y-114994141D01*
X146522456Y-114994141D02*
X146570075Y-114970332D01*
X146570075Y-114970332D02*
X146665313Y-114970332D01*
X146665313Y-114970332D02*
X146712932Y-114994141D01*
X147308170Y-115160808D02*
X147546265Y-115160808D01*
X147260551Y-115303665D02*
X147427217Y-114803665D01*
X147427217Y-114803665D02*
X147593884Y-115303665D01*
X147760550Y-114970332D02*
X147760550Y-115303665D01*
X147760550Y-115017951D02*
X147784360Y-114994141D01*
X147784360Y-114994141D02*
X147831979Y-114970332D01*
X147831979Y-114970332D02*
X147903407Y-114970332D01*
X147903407Y-114970332D02*
X147951026Y-114994141D01*
X147951026Y-114994141D02*
X147974836Y-115041760D01*
X147974836Y-115041760D02*
X147974836Y-115303665D01*
X148141503Y-114970332D02*
X148331979Y-114970332D01*
X148212931Y-114803665D02*
X148212931Y-115232236D01*
X148212931Y-115232236D02*
X148236741Y-115279856D01*
X148236741Y-115279856D02*
X148284360Y-115303665D01*
X148284360Y-115303665D02*
X148331979Y-115303665D01*
X148689121Y-115279856D02*
X148641502Y-115303665D01*
X148641502Y-115303665D02*
X148546264Y-115303665D01*
X148546264Y-115303665D02*
X148498645Y-115279856D01*
X148498645Y-115279856D02*
X148474836Y-115232236D01*
X148474836Y-115232236D02*
X148474836Y-115041760D01*
X148474836Y-115041760D02*
X148498645Y-114994141D01*
X148498645Y-114994141D02*
X148546264Y-114970332D01*
X148546264Y-114970332D02*
X148641502Y-114970332D01*
X148641502Y-114970332D02*
X148689121Y-114994141D01*
X148689121Y-114994141D02*
X148712931Y-115041760D01*
X148712931Y-115041760D02*
X148712931Y-115089379D01*
X148712931Y-115089379D02*
X148474836Y-115136998D01*
X148927216Y-114970332D02*
X148927216Y-115303665D01*
X148927216Y-115017951D02*
X148951026Y-114994141D01*
X148951026Y-114994141D02*
X148998645Y-114970332D01*
X148998645Y-114970332D02*
X149070073Y-114970332D01*
X149070073Y-114970332D02*
X149117692Y-114994141D01*
X149117692Y-114994141D02*
X149141502Y-115041760D01*
X149141502Y-115041760D02*
X149141502Y-115303665D01*
X149379597Y-114970332D02*
X149379597Y-115303665D01*
X149379597Y-115017951D02*
X149403407Y-114994141D01*
X149403407Y-114994141D02*
X149451026Y-114970332D01*
X149451026Y-114970332D02*
X149522454Y-114970332D01*
X149522454Y-114970332D02*
X149570073Y-114994141D01*
X149570073Y-114994141D02*
X149593883Y-115041760D01*
X149593883Y-115041760D02*
X149593883Y-115303665D01*
X150046264Y-115303665D02*
X150046264Y-115041760D01*
X150046264Y-115041760D02*
X150022454Y-114994141D01*
X150022454Y-114994141D02*
X149974835Y-114970332D01*
X149974835Y-114970332D02*
X149879597Y-114970332D01*
X149879597Y-114970332D02*
X149831978Y-114994141D01*
X150046264Y-115279856D02*
X149998645Y-115303665D01*
X149998645Y-115303665D02*
X149879597Y-115303665D01*
X149879597Y-115303665D02*
X149831978Y-115279856D01*
X149831978Y-115279856D02*
X149808169Y-115232236D01*
X149808169Y-115232236D02*
X149808169Y-115184617D01*
X149808169Y-115184617D02*
X149831978Y-115136998D01*
X149831978Y-115136998D02*
X149879597Y-115113189D01*
X149879597Y-115113189D02*
X149998645Y-115113189D01*
X149998645Y-115113189D02*
X150046264Y-115089379D01*
X150593883Y-114803665D02*
X150760549Y-115303665D01*
X150760549Y-115303665D02*
X150927216Y-114803665D01*
X151189120Y-114803665D02*
X151236739Y-114803665D01*
X151236739Y-114803665D02*
X151284358Y-114827475D01*
X151284358Y-114827475D02*
X151308168Y-114851284D01*
X151308168Y-114851284D02*
X151331977Y-114898903D01*
X151331977Y-114898903D02*
X151355787Y-114994141D01*
X151355787Y-114994141D02*
X151355787Y-115113189D01*
X151355787Y-115113189D02*
X151331977Y-115208427D01*
X151331977Y-115208427D02*
X151308168Y-115256046D01*
X151308168Y-115256046D02*
X151284358Y-115279856D01*
X151284358Y-115279856D02*
X151236739Y-115303665D01*
X151236739Y-115303665D02*
X151189120Y-115303665D01*
X151189120Y-115303665D02*
X151141501Y-115279856D01*
X151141501Y-115279856D02*
X151117692Y-115256046D01*
X151117692Y-115256046D02*
X151093882Y-115208427D01*
X151093882Y-115208427D02*
X151070073Y-115113189D01*
X151070073Y-115113189D02*
X151070073Y-114994141D01*
X151070073Y-114994141D02*
X151093882Y-114898903D01*
X151093882Y-114898903D02*
X151117692Y-114851284D01*
X151117692Y-114851284D02*
X151141501Y-114827475D01*
X151141501Y-114827475D02*
X151189120Y-114803665D01*
X151570072Y-115256046D02*
X151593882Y-115279856D01*
X151593882Y-115279856D02*
X151570072Y-115303665D01*
X151570072Y-115303665D02*
X151546263Y-115279856D01*
X151546263Y-115279856D02*
X151570072Y-115256046D01*
X151570072Y-115256046D02*
X151570072Y-115303665D01*
X152070072Y-115303665D02*
X151784358Y-115303665D01*
X151927215Y-115303665D02*
X151927215Y-114803665D01*
X151927215Y-114803665D02*
X151879596Y-114875094D01*
X151879596Y-114875094D02*
X151831977Y-114922713D01*
X151831977Y-114922713D02*
X151784358Y-114946522D01*
X143117693Y-115608637D02*
X143117693Y-115965780D01*
X143117693Y-115965780D02*
X143093884Y-116037208D01*
X143093884Y-116037208D02*
X143046265Y-116084828D01*
X143046265Y-116084828D02*
X142974836Y-116108637D01*
X142974836Y-116108637D02*
X142927217Y-116108637D01*
X143355788Y-116108637D02*
X143355788Y-115775304D01*
X143355788Y-115608637D02*
X143331979Y-115632447D01*
X143331979Y-115632447D02*
X143355788Y-115656256D01*
X143355788Y-115656256D02*
X143379598Y-115632447D01*
X143379598Y-115632447D02*
X143355788Y-115608637D01*
X143355788Y-115608637D02*
X143355788Y-115656256D01*
X143593883Y-116108637D02*
X143593883Y-115775304D01*
X143593883Y-115822923D02*
X143617693Y-115799113D01*
X143617693Y-115799113D02*
X143665312Y-115775304D01*
X143665312Y-115775304D02*
X143736740Y-115775304D01*
X143736740Y-115775304D02*
X143784359Y-115799113D01*
X143784359Y-115799113D02*
X143808169Y-115846732D01*
X143808169Y-115846732D02*
X143808169Y-116108637D01*
X143808169Y-115846732D02*
X143831978Y-115799113D01*
X143831978Y-115799113D02*
X143879597Y-115775304D01*
X143879597Y-115775304D02*
X143951026Y-115775304D01*
X143951026Y-115775304D02*
X143998645Y-115799113D01*
X143998645Y-115799113D02*
X144022455Y-115846732D01*
X144022455Y-115846732D02*
X144022455Y-116108637D01*
X144260550Y-116108637D02*
X144260550Y-115775304D01*
X144260550Y-115822923D02*
X144284360Y-115799113D01*
X144284360Y-115799113D02*
X144331979Y-115775304D01*
X144331979Y-115775304D02*
X144403407Y-115775304D01*
X144403407Y-115775304D02*
X144451026Y-115799113D01*
X144451026Y-115799113D02*
X144474836Y-115846732D01*
X144474836Y-115846732D02*
X144474836Y-116108637D01*
X144474836Y-115846732D02*
X144498645Y-115799113D01*
X144498645Y-115799113D02*
X144546264Y-115775304D01*
X144546264Y-115775304D02*
X144617693Y-115775304D01*
X144617693Y-115775304D02*
X144665312Y-115799113D01*
X144665312Y-115799113D02*
X144689122Y-115846732D01*
X144689122Y-115846732D02*
X144689122Y-116108637D01*
X144879598Y-115775304D02*
X144998646Y-116108637D01*
X145117693Y-115775304D02*
X144998646Y-116108637D01*
X144998646Y-116108637D02*
X144951027Y-116227685D01*
X144951027Y-116227685D02*
X144927217Y-116251494D01*
X144927217Y-116251494D02*
X144879598Y-116275304D01*
X145951026Y-115632447D02*
X145903407Y-115608637D01*
X145903407Y-115608637D02*
X145831978Y-115608637D01*
X145831978Y-115608637D02*
X145760550Y-115632447D01*
X145760550Y-115632447D02*
X145712931Y-115680066D01*
X145712931Y-115680066D02*
X145689121Y-115727685D01*
X145689121Y-115727685D02*
X145665312Y-115822923D01*
X145665312Y-115822923D02*
X145665312Y-115894351D01*
X145665312Y-115894351D02*
X145689121Y-115989589D01*
X145689121Y-115989589D02*
X145712931Y-116037208D01*
X145712931Y-116037208D02*
X145760550Y-116084828D01*
X145760550Y-116084828D02*
X145831978Y-116108637D01*
X145831978Y-116108637D02*
X145879597Y-116108637D01*
X145879597Y-116108637D02*
X145951026Y-116084828D01*
X145951026Y-116084828D02*
X145974835Y-116061018D01*
X145974835Y-116061018D02*
X145974835Y-115894351D01*
X145974835Y-115894351D02*
X145879597Y-115894351D01*
X146189121Y-116108637D02*
X146189121Y-115775304D01*
X146189121Y-115608637D02*
X146165312Y-115632447D01*
X146165312Y-115632447D02*
X146189121Y-115656256D01*
X146189121Y-115656256D02*
X146212931Y-115632447D01*
X146212931Y-115632447D02*
X146189121Y-115608637D01*
X146189121Y-115608637D02*
X146189121Y-115656256D01*
X146641502Y-116108637D02*
X146641502Y-115846732D01*
X146641502Y-115846732D02*
X146617692Y-115799113D01*
X146617692Y-115799113D02*
X146570073Y-115775304D01*
X146570073Y-115775304D02*
X146474835Y-115775304D01*
X146474835Y-115775304D02*
X146427216Y-115799113D01*
X146641502Y-116084828D02*
X146593883Y-116108637D01*
X146593883Y-116108637D02*
X146474835Y-116108637D01*
X146474835Y-116108637D02*
X146427216Y-116084828D01*
X146427216Y-116084828D02*
X146403407Y-116037208D01*
X146403407Y-116037208D02*
X146403407Y-115989589D01*
X146403407Y-115989589D02*
X146427216Y-115941970D01*
X146427216Y-115941970D02*
X146474835Y-115918161D01*
X146474835Y-115918161D02*
X146593883Y-115918161D01*
X146593883Y-115918161D02*
X146641502Y-115894351D01*
X146879597Y-115775304D02*
X146879597Y-116108637D01*
X146879597Y-115822923D02*
X146903407Y-115799113D01*
X146903407Y-115799113D02*
X146951026Y-115775304D01*
X146951026Y-115775304D02*
X147022454Y-115775304D01*
X147022454Y-115775304D02*
X147070073Y-115799113D01*
X147070073Y-115799113D02*
X147093883Y-115846732D01*
X147093883Y-115846732D02*
X147093883Y-116108637D01*
X147331978Y-115775304D02*
X147331978Y-116108637D01*
X147331978Y-115822923D02*
X147355788Y-115799113D01*
X147355788Y-115799113D02*
X147403407Y-115775304D01*
X147403407Y-115775304D02*
X147474835Y-115775304D01*
X147474835Y-115775304D02*
X147522454Y-115799113D01*
X147522454Y-115799113D02*
X147546264Y-115846732D01*
X147546264Y-115846732D02*
X147546264Y-116108637D01*
X147998645Y-116108637D02*
X147998645Y-115846732D01*
X147998645Y-115846732D02*
X147974835Y-115799113D01*
X147974835Y-115799113D02*
X147927216Y-115775304D01*
X147927216Y-115775304D02*
X147831978Y-115775304D01*
X147831978Y-115775304D02*
X147784359Y-115799113D01*
X147998645Y-116084828D02*
X147951026Y-116108637D01*
X147951026Y-116108637D02*
X147831978Y-116108637D01*
X147831978Y-116108637D02*
X147784359Y-116084828D01*
X147784359Y-116084828D02*
X147760550Y-116037208D01*
X147760550Y-116037208D02*
X147760550Y-115989589D01*
X147760550Y-115989589D02*
X147784359Y-115941970D01*
X147784359Y-115941970D02*
X147831978Y-115918161D01*
X147831978Y-115918161D02*
X147951026Y-115918161D01*
X147951026Y-115918161D02*
X147998645Y-115894351D01*
X148212931Y-116084828D02*
X148260550Y-116108637D01*
X148260550Y-116108637D02*
X148355788Y-116108637D01*
X148355788Y-116108637D02*
X148403407Y-116084828D01*
X148403407Y-116084828D02*
X148427216Y-116037208D01*
X148427216Y-116037208D02*
X148427216Y-116013399D01*
X148427216Y-116013399D02*
X148403407Y-115965780D01*
X148403407Y-115965780D02*
X148355788Y-115941970D01*
X148355788Y-115941970D02*
X148284359Y-115941970D01*
X148284359Y-115941970D02*
X148236740Y-115918161D01*
X148236740Y-115918161D02*
X148212931Y-115870542D01*
X148212931Y-115870542D02*
X148212931Y-115846732D01*
X148212931Y-115846732D02*
X148236740Y-115799113D01*
X148236740Y-115799113D02*
X148284359Y-115775304D01*
X148284359Y-115775304D02*
X148355788Y-115775304D01*
X148355788Y-115775304D02*
X148403407Y-115799113D01*
X148641502Y-116108637D02*
X148641502Y-115775304D01*
X148641502Y-115608637D02*
X148617693Y-115632447D01*
X148617693Y-115632447D02*
X148641502Y-115656256D01*
X148641502Y-115656256D02*
X148665312Y-115632447D01*
X148665312Y-115632447D02*
X148641502Y-115608637D01*
X148641502Y-115608637D02*
X148641502Y-115656256D01*
X143236741Y-116913609D02*
X142951027Y-116913609D01*
X143093884Y-116913609D02*
X143093884Y-116413609D01*
X143093884Y-116413609D02*
X143046265Y-116485038D01*
X143046265Y-116485038D02*
X142998646Y-116532657D01*
X142998646Y-116532657D02*
X142951027Y-116556466D01*
X143546264Y-116413609D02*
X143593883Y-116413609D01*
X143593883Y-116413609D02*
X143641502Y-116437419D01*
X143641502Y-116437419D02*
X143665312Y-116461228D01*
X143665312Y-116461228D02*
X143689121Y-116508847D01*
X143689121Y-116508847D02*
X143712931Y-116604085D01*
X143712931Y-116604085D02*
X143712931Y-116723133D01*
X143712931Y-116723133D02*
X143689121Y-116818371D01*
X143689121Y-116818371D02*
X143665312Y-116865990D01*
X143665312Y-116865990D02*
X143641502Y-116889800D01*
X143641502Y-116889800D02*
X143593883Y-116913609D01*
X143593883Y-116913609D02*
X143546264Y-116913609D01*
X143546264Y-116913609D02*
X143498645Y-116889800D01*
X143498645Y-116889800D02*
X143474836Y-116865990D01*
X143474836Y-116865990D02*
X143451026Y-116818371D01*
X143451026Y-116818371D02*
X143427217Y-116723133D01*
X143427217Y-116723133D02*
X143427217Y-116604085D01*
X143427217Y-116604085D02*
X143451026Y-116508847D01*
X143451026Y-116508847D02*
X143474836Y-116461228D01*
X143474836Y-116461228D02*
X143498645Y-116437419D01*
X143498645Y-116437419D02*
X143546264Y-116413609D01*
X144284359Y-116389800D02*
X143855788Y-117032657D01*
X144546264Y-116413609D02*
X144593883Y-116413609D01*
X144593883Y-116413609D02*
X144641502Y-116437419D01*
X144641502Y-116437419D02*
X144665312Y-116461228D01*
X144665312Y-116461228D02*
X144689121Y-116508847D01*
X144689121Y-116508847D02*
X144712931Y-116604085D01*
X144712931Y-116604085D02*
X144712931Y-116723133D01*
X144712931Y-116723133D02*
X144689121Y-116818371D01*
X144689121Y-116818371D02*
X144665312Y-116865990D01*
X144665312Y-116865990D02*
X144641502Y-116889800D01*
X144641502Y-116889800D02*
X144593883Y-116913609D01*
X144593883Y-116913609D02*
X144546264Y-116913609D01*
X144546264Y-116913609D02*
X144498645Y-116889800D01*
X144498645Y-116889800D02*
X144474836Y-116865990D01*
X144474836Y-116865990D02*
X144451026Y-116818371D01*
X144451026Y-116818371D02*
X144427217Y-116723133D01*
X144427217Y-116723133D02*
X144427217Y-116604085D01*
X144427217Y-116604085D02*
X144451026Y-116508847D01*
X144451026Y-116508847D02*
X144474836Y-116461228D01*
X144474836Y-116461228D02*
X144498645Y-116437419D01*
X144498645Y-116437419D02*
X144546264Y-116413609D01*
X145189121Y-116913609D02*
X144903407Y-116913609D01*
X145046264Y-116913609D02*
X145046264Y-116413609D01*
X145046264Y-116413609D02*
X144998645Y-116485038D01*
X144998645Y-116485038D02*
X144951026Y-116532657D01*
X144951026Y-116532657D02*
X144903407Y-116556466D01*
X145760549Y-116389800D02*
X145331978Y-117032657D01*
X145903407Y-116461228D02*
X145927216Y-116437419D01*
X145927216Y-116437419D02*
X145974835Y-116413609D01*
X145974835Y-116413609D02*
X146093883Y-116413609D01*
X146093883Y-116413609D02*
X146141502Y-116437419D01*
X146141502Y-116437419D02*
X146165311Y-116461228D01*
X146165311Y-116461228D02*
X146189121Y-116508847D01*
X146189121Y-116508847D02*
X146189121Y-116556466D01*
X146189121Y-116556466D02*
X146165311Y-116627895D01*
X146165311Y-116627895D02*
X145879597Y-116913609D01*
X145879597Y-116913609D02*
X146189121Y-116913609D01*
X146498644Y-116413609D02*
X146546263Y-116413609D01*
X146546263Y-116413609D02*
X146593882Y-116437419D01*
X146593882Y-116437419D02*
X146617692Y-116461228D01*
X146617692Y-116461228D02*
X146641501Y-116508847D01*
X146641501Y-116508847D02*
X146665311Y-116604085D01*
X146665311Y-116604085D02*
X146665311Y-116723133D01*
X146665311Y-116723133D02*
X146641501Y-116818371D01*
X146641501Y-116818371D02*
X146617692Y-116865990D01*
X146617692Y-116865990D02*
X146593882Y-116889800D01*
X146593882Y-116889800D02*
X146546263Y-116913609D01*
X146546263Y-116913609D02*
X146498644Y-116913609D01*
X146498644Y-116913609D02*
X146451025Y-116889800D01*
X146451025Y-116889800D02*
X146427216Y-116865990D01*
X146427216Y-116865990D02*
X146403406Y-116818371D01*
X146403406Y-116818371D02*
X146379597Y-116723133D01*
X146379597Y-116723133D02*
X146379597Y-116604085D01*
X146379597Y-116604085D02*
X146403406Y-116508847D01*
X146403406Y-116508847D02*
X146427216Y-116461228D01*
X146427216Y-116461228D02*
X146451025Y-116437419D01*
X146451025Y-116437419D02*
X146498644Y-116413609D01*
X146855787Y-116461228D02*
X146879596Y-116437419D01*
X146879596Y-116437419D02*
X146927215Y-116413609D01*
X146927215Y-116413609D02*
X147046263Y-116413609D01*
X147046263Y-116413609D02*
X147093882Y-116437419D01*
X147093882Y-116437419D02*
X147117691Y-116461228D01*
X147117691Y-116461228D02*
X147141501Y-116508847D01*
X147141501Y-116508847D02*
X147141501Y-116556466D01*
X147141501Y-116556466D02*
X147117691Y-116627895D01*
X147117691Y-116627895D02*
X146831977Y-116913609D01*
X146831977Y-116913609D02*
X147141501Y-116913609D01*
X147570072Y-116413609D02*
X147474834Y-116413609D01*
X147474834Y-116413609D02*
X147427215Y-116437419D01*
X147427215Y-116437419D02*
X147403405Y-116461228D01*
X147403405Y-116461228D02*
X147355786Y-116532657D01*
X147355786Y-116532657D02*
X147331977Y-116627895D01*
X147331977Y-116627895D02*
X147331977Y-116818371D01*
X147331977Y-116818371D02*
X147355786Y-116865990D01*
X147355786Y-116865990D02*
X147379596Y-116889800D01*
X147379596Y-116889800D02*
X147427215Y-116913609D01*
X147427215Y-116913609D02*
X147522453Y-116913609D01*
X147522453Y-116913609D02*
X147570072Y-116889800D01*
X147570072Y-116889800D02*
X147593881Y-116865990D01*
X147593881Y-116865990D02*
X147617691Y-116818371D01*
X147617691Y-116818371D02*
X147617691Y-116699323D01*
X147617691Y-116699323D02*
X147593881Y-116651704D01*
X147593881Y-116651704D02*
X147570072Y-116627895D01*
X147570072Y-116627895D02*
X147522453Y-116604085D01*
X147522453Y-116604085D02*
X147427215Y-116604085D01*
X147427215Y-116604085D02*
X147379596Y-116627895D01*
X147379596Y-116627895D02*
X147355786Y-116651704D01*
X147355786Y-116651704D02*
X147331977Y-116699323D01*
D11*
%TO.C,G\u002A\u002A\u002A*%
G36*
X140209680Y-114196466D02*
G01*
X140215470Y-114206358D01*
X140226521Y-114227147D01*
X140241044Y-114255280D01*
X140257249Y-114287203D01*
X140273349Y-114319363D01*
X140287555Y-114348206D01*
X140298079Y-114370180D01*
X140303132Y-114381730D01*
X140303333Y-114382540D01*
X140297063Y-114387688D01*
X140282142Y-114397488D01*
X140264402Y-114408348D01*
X140249674Y-114416673D01*
X140244016Y-114419095D01*
X140240098Y-114411781D01*
X140233032Y-114392777D01*
X140225256Y-114369058D01*
X140211217Y-114333609D01*
X140191715Y-114295701D01*
X140177960Y-114273812D01*
X140146241Y-114228531D01*
X140173946Y-114207399D01*
X140193449Y-114194572D01*
X140205148Y-114192874D01*
X140209680Y-114196466D01*
G37*
G36*
X139384519Y-114198162D02*
G01*
X139406250Y-114202849D01*
X139420236Y-114206980D01*
X139421546Y-114207622D01*
X139420840Y-114216219D01*
X139414131Y-114236328D01*
X139402676Y-114264460D01*
X139394762Y-114282182D01*
X139379028Y-114317891D01*
X139365161Y-114352028D01*
X139355412Y-114378950D01*
X139353248Y-114386149D01*
X139345175Y-114408531D01*
X139334296Y-114417250D01*
X139316643Y-114413707D01*
X139299166Y-114405233D01*
X139281427Y-114395554D01*
X139271514Y-114389644D01*
X139271174Y-114389380D01*
X139273520Y-114381692D01*
X139283106Y-114365930D01*
X139286099Y-114361629D01*
X139297921Y-114341772D01*
X139312132Y-114313279D01*
X139326755Y-114280769D01*
X139339810Y-114248861D01*
X139349322Y-114222176D01*
X139353311Y-114205332D01*
X139353333Y-114204593D01*
X139356888Y-114197000D01*
X139370101Y-114195940D01*
X139384519Y-114198162D01*
G37*
G36*
X139466191Y-111675798D02*
G01*
X139511599Y-111678602D01*
X139550730Y-111682953D01*
X139580810Y-111688747D01*
X139599066Y-111695883D01*
X139603333Y-111701894D01*
X139595727Y-111705857D01*
X139575743Y-111710058D01*
X139547633Y-111713615D01*
X139546324Y-111713738D01*
X139488669Y-111722059D01*
X139422648Y-111736372D01*
X139354702Y-111755014D01*
X139291268Y-111776323D01*
X139266965Y-111785898D01*
X139170457Y-111834965D01*
X139081437Y-111898152D01*
X139001210Y-111974104D01*
X138931080Y-112061466D01*
X138872351Y-112158880D01*
X138839554Y-112230268D01*
X138811947Y-112298333D01*
X138811806Y-112134498D01*
X138811666Y-111970663D01*
X138843972Y-111929793D01*
X138906648Y-111862993D01*
X138982466Y-111803447D01*
X139068919Y-111752674D01*
X139163500Y-111712193D01*
X139242054Y-111688555D01*
X139277250Y-111682092D01*
X139320035Y-111677687D01*
X139367636Y-111675238D01*
X139417279Y-111674642D01*
X139466191Y-111675798D01*
G37*
G36*
X140930208Y-112404067D02*
G01*
X140973951Y-112404391D01*
X141005487Y-112404873D01*
X141023082Y-112405506D01*
X141026211Y-112405933D01*
X141023793Y-112414107D01*
X141013965Y-112431757D01*
X140999306Y-112455018D01*
X140982395Y-112480026D01*
X140965811Y-112502916D01*
X140952132Y-112519823D01*
X140946482Y-112525416D01*
X140938272Y-112528499D01*
X140921260Y-112530967D01*
X140894114Y-112532872D01*
X140855507Y-112534261D01*
X140804109Y-112535185D01*
X140738591Y-112535692D01*
X140665260Y-112535833D01*
X140590571Y-112535759D01*
X140530811Y-112535482D01*
X140484242Y-112534915D01*
X140449126Y-112533973D01*
X140423727Y-112532570D01*
X140406306Y-112530621D01*
X140395127Y-112528040D01*
X140388451Y-112524742D01*
X140385605Y-112522054D01*
X140375634Y-112508117D01*
X140360511Y-112484856D01*
X140343611Y-112457471D01*
X140313052Y-112406666D01*
X140667824Y-112404492D01*
X140743066Y-112404114D01*
X140813032Y-112403922D01*
X140875991Y-112403908D01*
X140930208Y-112404067D01*
G37*
G36*
X138965835Y-112402642D02*
G01*
X139035415Y-112403047D01*
X139097861Y-112403687D01*
X139151465Y-112404530D01*
X139194515Y-112405546D01*
X139225303Y-112406706D01*
X139242118Y-112407978D01*
X139244794Y-112408750D01*
X139240648Y-112418330D01*
X139229806Y-112438282D01*
X139214358Y-112464814D01*
X139209232Y-112473333D01*
X139173876Y-112531666D01*
X138894161Y-112533859D01*
X138818135Y-112534400D01*
X138757049Y-112534659D01*
X138709177Y-112534560D01*
X138672793Y-112534029D01*
X138646173Y-112532994D01*
X138627591Y-112531380D01*
X138615320Y-112529113D01*
X138607636Y-112526120D01*
X138602813Y-112522327D01*
X138601949Y-112521359D01*
X138592553Y-112508015D01*
X138579127Y-112486335D01*
X138564249Y-112460842D01*
X138550495Y-112436056D01*
X138540443Y-112416502D01*
X138536666Y-112406792D01*
X138544714Y-112405883D01*
X138567718Y-112405040D01*
X138603965Y-112404282D01*
X138651745Y-112403632D01*
X138709345Y-112403110D01*
X138775056Y-112402736D01*
X138847165Y-112402532D01*
X138890833Y-112402500D01*
X138965835Y-112402642D01*
G37*
G36*
X140263637Y-111673935D02*
G01*
X140362183Y-111691329D01*
X140459055Y-111723092D01*
X140551837Y-111768227D01*
X140638115Y-111825735D01*
X140715474Y-111894618D01*
X140722431Y-111901886D01*
X140778333Y-111961145D01*
X140778333Y-112119322D01*
X140778229Y-112168596D01*
X140777939Y-112211598D01*
X140777497Y-112245771D01*
X140776937Y-112268556D01*
X140776292Y-112277392D01*
X140776250Y-112277423D01*
X140772125Y-112270346D01*
X140762775Y-112251415D01*
X140749821Y-112223967D01*
X140741837Y-112206643D01*
X140684320Y-112098904D01*
X140616199Y-112004003D01*
X140537553Y-111922005D01*
X140448463Y-111852979D01*
X140349008Y-111796993D01*
X140239268Y-111754113D01*
X140191551Y-111740396D01*
X140148680Y-111730277D01*
X140104111Y-111721422D01*
X140065163Y-111715229D01*
X140052261Y-111713761D01*
X140023832Y-111710324D01*
X140003338Y-111706329D01*
X139995020Y-111702615D01*
X139995000Y-111702453D01*
X140002782Y-111696909D01*
X140024009Y-111690738D01*
X140055502Y-111684507D01*
X140094082Y-111678787D01*
X140136570Y-111674144D01*
X140165833Y-111671908D01*
X140263637Y-111673935D01*
G37*
G36*
X139991401Y-114272982D02*
G01*
X140033012Y-114286590D01*
X140063292Y-114311529D01*
X140081411Y-114347148D01*
X140086635Y-114386684D01*
X140079111Y-114429919D01*
X140057524Y-114466010D01*
X140023462Y-114493537D01*
X139978515Y-114511081D01*
X139941114Y-114516682D01*
X139908460Y-114515892D01*
X139880090Y-114510187D01*
X139874166Y-114507864D01*
X139837631Y-114483673D01*
X139814901Y-114450615D01*
X139805116Y-114409789D01*
X139807058Y-114372001D01*
X139876944Y-114372001D01*
X139882101Y-114411722D01*
X139896008Y-114445051D01*
X139916318Y-114470244D01*
X139940686Y-114485557D01*
X139966764Y-114489245D01*
X139992206Y-114479564D01*
X140005416Y-114467519D01*
X140018346Y-114441137D01*
X140020175Y-114408703D01*
X140012608Y-114374193D01*
X139997348Y-114341584D01*
X139976101Y-114314855D01*
X139950571Y-114297982D01*
X139931133Y-114294166D01*
X139904249Y-114301240D01*
X139886273Y-114322020D01*
X139877664Y-114355845D01*
X139876944Y-114372001D01*
X139807058Y-114372001D01*
X139807497Y-114363467D01*
X139823900Y-114325732D01*
X139853682Y-114297245D01*
X139896204Y-114278667D01*
X139939292Y-114271356D01*
X139991401Y-114272982D01*
G37*
G36*
X144375968Y-111375416D02*
G01*
X144370588Y-111385093D01*
X144366368Y-111395160D01*
X144363168Y-111407667D01*
X144360847Y-111424662D01*
X144359265Y-111448196D01*
X144358280Y-111480318D01*
X144357751Y-111523077D01*
X144357538Y-111578524D01*
X144357500Y-111644166D01*
X144357507Y-111713557D01*
X144357701Y-111768551D01*
X144358345Y-111811420D01*
X144359699Y-111844434D01*
X144362023Y-111869865D01*
X144365579Y-111889981D01*
X144370628Y-111907054D01*
X144377430Y-111923355D01*
X144386246Y-111941154D01*
X144393171Y-111954583D01*
X144386589Y-111956891D01*
X144366303Y-111958815D01*
X144335273Y-111960179D01*
X144296460Y-111960810D01*
X144287111Y-111960833D01*
X144177834Y-111960833D01*
X144196833Y-111935151D01*
X144202223Y-111927420D01*
X144206505Y-111919141D01*
X144209829Y-111908380D01*
X144212343Y-111893204D01*
X144214198Y-111871679D01*
X144215543Y-111841872D01*
X144216526Y-111801849D01*
X144217297Y-111749676D01*
X144218005Y-111683422D01*
X144218255Y-111657646D01*
X144220677Y-111405824D01*
X144199756Y-111374995D01*
X144178835Y-111344166D01*
X144286636Y-111344166D01*
X144394437Y-111344166D01*
X144375968Y-111375416D01*
G37*
G36*
X147523033Y-111383078D02*
G01*
X147517264Y-111394945D01*
X147512747Y-111406494D01*
X147509330Y-111419851D01*
X147506859Y-111437141D01*
X147505181Y-111460489D01*
X147504142Y-111492021D01*
X147503590Y-111533862D01*
X147503372Y-111588137D01*
X147503333Y-111656316D01*
X147503403Y-111725529D01*
X147503702Y-111780158D01*
X147504359Y-111822288D01*
X147505504Y-111854003D01*
X147507267Y-111877385D01*
X147509778Y-111894519D01*
X147513167Y-111907489D01*
X147517565Y-111918377D01*
X147520000Y-111923333D01*
X147530090Y-111943618D01*
X147536013Y-111956482D01*
X147536666Y-111958428D01*
X147528845Y-111959317D01*
X147507432Y-111960058D01*
X147475499Y-111960583D01*
X147436121Y-111960824D01*
X147426880Y-111960833D01*
X147317094Y-111960833D01*
X147337297Y-111939328D01*
X147357500Y-111917823D01*
X147357500Y-111652703D01*
X147357432Y-111578626D01*
X147357168Y-111519419D01*
X147356614Y-111473287D01*
X147355677Y-111438432D01*
X147354263Y-111413060D01*
X147352280Y-111395375D01*
X147349635Y-111383579D01*
X147346234Y-111375878D01*
X147342916Y-111371468D01*
X147331937Y-111357414D01*
X147328333Y-111349760D01*
X147336147Y-111347669D01*
X147357517Y-111345933D01*
X147389331Y-111344716D01*
X147428480Y-111344178D01*
X147435533Y-111344166D01*
X147542733Y-111344166D01*
X147523033Y-111383078D01*
G37*
G36*
X154941260Y-112463209D02*
G01*
X154920151Y-112489313D01*
X154903196Y-112517448D01*
X154896959Y-112532578D01*
X154894712Y-112545087D01*
X154892777Y-112567121D01*
X154891135Y-112599547D01*
X154889772Y-112643232D01*
X154888671Y-112699044D01*
X154887816Y-112767850D01*
X154887191Y-112850518D01*
X154886779Y-112947914D01*
X154886564Y-113060907D01*
X154886541Y-113089596D01*
X154886484Y-113195941D01*
X154886487Y-113286918D01*
X154886589Y-113363829D01*
X154886831Y-113427973D01*
X154887251Y-113480650D01*
X154887891Y-113523160D01*
X154888791Y-113556803D01*
X154889990Y-113582880D01*
X154891527Y-113602689D01*
X154893445Y-113617531D01*
X154895781Y-113628706D01*
X154898577Y-113637513D01*
X154901872Y-113645254D01*
X154903753Y-113649200D01*
X154919985Y-113676219D01*
X154939435Y-113700103D01*
X154945649Y-113705934D01*
X154961333Y-113720244D01*
X154969614Y-113729970D01*
X154970000Y-113731128D01*
X154962037Y-113732412D01*
X154939636Y-113733562D01*
X154905023Y-113734529D01*
X154860425Y-113735262D01*
X154808069Y-113735711D01*
X154760901Y-113735833D01*
X154551803Y-113735833D01*
X154588166Y-113700416D01*
X154614365Y-113669704D01*
X154631593Y-113638876D01*
X154634056Y-113631666D01*
X154636324Y-113616508D01*
X154638361Y-113587478D01*
X154640176Y-113544190D01*
X154641776Y-113486258D01*
X154643170Y-113413296D01*
X154644367Y-113324919D01*
X154645375Y-113220739D01*
X154646203Y-113100372D01*
X154646375Y-113069166D01*
X154649166Y-112540000D01*
X154630647Y-112505368D01*
X154612657Y-112478478D01*
X154590738Y-112454296D01*
X154584814Y-112449210D01*
X154557500Y-112427684D01*
X154766488Y-112427592D01*
X154975476Y-112427500D01*
X154941260Y-112463209D01*
G37*
G36*
X150655446Y-111333334D02*
G01*
X150688509Y-111333653D01*
X150708873Y-111334262D01*
X150713750Y-111334721D01*
X150721122Y-111338570D01*
X150725539Y-111348567D01*
X150727707Y-111368094D01*
X150728329Y-111400536D01*
X150728333Y-111404782D01*
X150728333Y-111471788D01*
X150709218Y-111435060D01*
X150683001Y-111399229D01*
X150647454Y-111375751D01*
X150601337Y-111364033D01*
X150557500Y-111362667D01*
X150499166Y-111365000D01*
X150496866Y-111486831D01*
X150494566Y-111608663D01*
X150520825Y-111613915D01*
X150575294Y-111618925D01*
X150624729Y-111612060D01*
X150666143Y-111594067D01*
X150692616Y-111570821D01*
X150711067Y-111548333D01*
X150711274Y-111640000D01*
X150711481Y-111731666D01*
X150689348Y-111703576D01*
X150661665Y-111676956D01*
X150627109Y-111660611D01*
X150582328Y-111653238D01*
X150557926Y-111652500D01*
X150528585Y-111652933D01*
X150511739Y-111655256D01*
X150503218Y-111660998D01*
X150498855Y-111671691D01*
X150498138Y-111674461D01*
X150496431Y-111691249D01*
X150495909Y-111720472D01*
X150496568Y-111757945D01*
X150498284Y-111797378D01*
X150501889Y-111847735D01*
X150506546Y-111884695D01*
X150512794Y-111911518D01*
X150520170Y-111929583D01*
X150536399Y-111960833D01*
X150428480Y-111960833D01*
X150320562Y-111960833D01*
X150339031Y-111929583D01*
X150344322Y-111920084D01*
X150348493Y-111910205D01*
X150351676Y-111897942D01*
X150354005Y-111881295D01*
X150355613Y-111858259D01*
X150356634Y-111826832D01*
X150357199Y-111785013D01*
X150357443Y-111730797D01*
X150357499Y-111662183D01*
X150357500Y-111651894D01*
X150357500Y-111405455D01*
X150334752Y-111371078D01*
X150312004Y-111336701D01*
X150505585Y-111334184D01*
X150561432Y-111333593D01*
X150612236Y-111333312D01*
X150655446Y-111333334D01*
G37*
G36*
X139012676Y-114348833D02*
G01*
X139033725Y-114360862D01*
X139061051Y-114378373D01*
X139076517Y-114388917D01*
X139198180Y-114463818D01*
X139325508Y-114523683D01*
X139457230Y-114568416D01*
X139592074Y-114597921D01*
X139728768Y-114612102D01*
X139866038Y-114610860D01*
X140002615Y-114594101D01*
X140137224Y-114561728D01*
X140268595Y-114513643D01*
X140331796Y-114484118D01*
X140364000Y-114467004D01*
X140400565Y-114446094D01*
X140438398Y-114423340D01*
X140474405Y-114400691D01*
X140505492Y-114380100D01*
X140528565Y-114363517D01*
X140540530Y-114352893D01*
X140541044Y-114352158D01*
X140552684Y-114344995D01*
X140568044Y-114350008D01*
X140584302Y-114364044D01*
X140598635Y-114383950D01*
X140608220Y-114406574D01*
X140610234Y-114428762D01*
X140610154Y-114429350D01*
X140600905Y-114446063D01*
X140578533Y-114468027D01*
X140545200Y-114493846D01*
X140503067Y-114522125D01*
X140454296Y-114551469D01*
X140401048Y-114580483D01*
X140345486Y-114607771D01*
X140307770Y-114624509D01*
X140184568Y-114668664D01*
X140050039Y-114701790D01*
X139976122Y-114714518D01*
X139923618Y-114720364D01*
X139861002Y-114724260D01*
X139792833Y-114726196D01*
X139723670Y-114726166D01*
X139658073Y-114724161D01*
X139600602Y-114720172D01*
X139561666Y-114715238D01*
X139459714Y-114693216D01*
X139354223Y-114661727D01*
X139251721Y-114622992D01*
X139158733Y-114579229D01*
X139153333Y-114576349D01*
X139110885Y-114552444D01*
X139068507Y-114526667D01*
X139028830Y-114500828D01*
X138994487Y-114476737D01*
X138968108Y-114456204D01*
X138952325Y-114441038D01*
X138949208Y-114435963D01*
X138950653Y-114420873D01*
X138959315Y-114399009D01*
X138972203Y-114375607D01*
X138986324Y-114355903D01*
X138998685Y-114345134D01*
X139001517Y-114344430D01*
X139012676Y-114348833D01*
G37*
G36*
X140145000Y-109646834D02*
G01*
X140145000Y-109766969D01*
X140090197Y-109799019D01*
X140022318Y-109848040D01*
X139961124Y-109911099D01*
X139907590Y-109986576D01*
X139862691Y-110072853D01*
X139827402Y-110168308D01*
X139802699Y-110271323D01*
X139801417Y-110278624D01*
X139795937Y-110306924D01*
X139790780Y-110327378D01*
X139787011Y-110335801D01*
X139786847Y-110335833D01*
X139783130Y-110328277D01*
X139777334Y-110308129D01*
X139770499Y-110279169D01*
X139767926Y-110267033D01*
X139738172Y-110152055D01*
X139699081Y-110050827D01*
X139650664Y-109963370D01*
X139592934Y-109889704D01*
X139525904Y-109829849D01*
X139486666Y-109803766D01*
X139432500Y-109771504D01*
X139430193Y-109649502D01*
X139429726Y-109606567D01*
X139429988Y-109570249D01*
X139430905Y-109543461D01*
X139432405Y-109529118D01*
X139433244Y-109527500D01*
X139445724Y-109533019D01*
X139466972Y-109547940D01*
X139494043Y-109569808D01*
X139523992Y-109596169D01*
X139553873Y-109624565D01*
X139572335Y-109643452D01*
X139637454Y-109724490D01*
X139691139Y-109817188D01*
X139715344Y-109872235D01*
X139725488Y-109901187D01*
X139736980Y-109939172D01*
X139748779Y-109982072D01*
X139759846Y-110025769D01*
X139769139Y-110066145D01*
X139775619Y-110099081D01*
X139778245Y-110120458D01*
X139778257Y-110121250D01*
X139782254Y-110133619D01*
X139786666Y-110135833D01*
X139792599Y-110128612D01*
X139795000Y-110111722D01*
X139797807Y-110085079D01*
X139805459Y-110046938D01*
X139816802Y-110001353D01*
X139830683Y-109952375D01*
X139845949Y-109904056D01*
X139861445Y-109860450D01*
X139876018Y-109825607D01*
X139877088Y-109823364D01*
X139930880Y-109730557D01*
X139997523Y-109647566D01*
X140075663Y-109575979D01*
X140109442Y-109551163D01*
X140145000Y-109526700D01*
X140145000Y-109646834D01*
G37*
G36*
X149863612Y-111332546D02*
G01*
X149938652Y-111349318D01*
X150004349Y-111379316D01*
X150060108Y-111422225D01*
X150105328Y-111477732D01*
X150123313Y-111509149D01*
X150147618Y-111574266D01*
X150156623Y-111640794D01*
X150151320Y-111706641D01*
X150132703Y-111769713D01*
X150101766Y-111827918D01*
X150059502Y-111879166D01*
X150006906Y-111921364D01*
X149944969Y-111952419D01*
X149907294Y-111963989D01*
X149855553Y-111974361D01*
X149807006Y-111980042D01*
X149767324Y-111980415D01*
X149761666Y-111979883D01*
X149680083Y-111963794D01*
X149608265Y-111935994D01*
X149547186Y-111897370D01*
X149497817Y-111848805D01*
X149461129Y-111791183D01*
X149438094Y-111725390D01*
X149430920Y-111678861D01*
X149431112Y-111671026D01*
X149578488Y-111671026D01*
X149588854Y-111746758D01*
X149599032Y-111781001D01*
X149612862Y-111814862D01*
X149629046Y-111846793D01*
X149643090Y-111868501D01*
X149680949Y-111903772D01*
X149726352Y-111926179D01*
X149775765Y-111934833D01*
X149825656Y-111928850D01*
X149849344Y-111920244D01*
X149882803Y-111898744D01*
X149916993Y-111866306D01*
X149947606Y-111827878D01*
X149970335Y-111788406D01*
X149975662Y-111775168D01*
X149985798Y-111731869D01*
X149990776Y-111679007D01*
X149990688Y-111622497D01*
X149985628Y-111568250D01*
X149975688Y-111522178D01*
X149971509Y-111510172D01*
X149943087Y-111455190D01*
X149907223Y-111412510D01*
X149865942Y-111382487D01*
X149821270Y-111365477D01*
X149775232Y-111361838D01*
X149729853Y-111371925D01*
X149687157Y-111396096D01*
X149649170Y-111434707D01*
X149637569Y-111451373D01*
X149603205Y-111520255D01*
X149583392Y-111594499D01*
X149578488Y-111671026D01*
X149431112Y-111671026D01*
X149432658Y-111607896D01*
X149449324Y-111542239D01*
X149479686Y-111483124D01*
X149522510Y-111431787D01*
X149576562Y-111389464D01*
X149640610Y-111357391D01*
X149713420Y-111336801D01*
X149779827Y-111329311D01*
X149863612Y-111332546D01*
G37*
G36*
X148064568Y-111334812D02*
G01*
X148124860Y-111334848D01*
X148177956Y-111334912D01*
X148221771Y-111334998D01*
X148254220Y-111335105D01*
X148273217Y-111335227D01*
X148277153Y-111335298D01*
X148283989Y-111339863D01*
X148283650Y-111353682D01*
X148275757Y-111378396D01*
X148259928Y-111415649D01*
X148257056Y-111421960D01*
X148242706Y-111448892D01*
X148231021Y-111462321D01*
X148223092Y-111461575D01*
X148220007Y-111445981D01*
X148220000Y-111444798D01*
X148215056Y-111428032D01*
X148203111Y-111408283D01*
X148202597Y-111407623D01*
X148169959Y-111378453D01*
X148130731Y-111363180D01*
X148088512Y-111362829D01*
X148066637Y-111368861D01*
X148045522Y-111376888D01*
X148049954Y-111625111D01*
X148051208Y-111688668D01*
X148052595Y-111747522D01*
X148054045Y-111799412D01*
X148055485Y-111842073D01*
X148056846Y-111873243D01*
X148058055Y-111890658D01*
X148058364Y-111892793D01*
X148067160Y-111911842D01*
X148083046Y-111931426D01*
X148084053Y-111932376D01*
X148105767Y-111952500D01*
X147983716Y-111952500D01*
X147940766Y-111952132D01*
X147904434Y-111951121D01*
X147877635Y-111949603D01*
X147863286Y-111947714D01*
X147861666Y-111946787D01*
X147866831Y-111937365D01*
X147879368Y-111922250D01*
X147880416Y-111921125D01*
X147885616Y-111915254D01*
X147889754Y-111908694D01*
X147892949Y-111899605D01*
X147895325Y-111886147D01*
X147897002Y-111866481D01*
X147898102Y-111838764D01*
X147898747Y-111801158D01*
X147899059Y-111751822D01*
X147899158Y-111688915D01*
X147899166Y-111637255D01*
X147899166Y-111373333D01*
X147872379Y-111374529D01*
X147835987Y-111382492D01*
X147793469Y-111402348D01*
X147748291Y-111432360D01*
X147733412Y-111444178D01*
X147712024Y-111461158D01*
X147696262Y-111472293D01*
X147689858Y-111475136D01*
X147691032Y-111466528D01*
X147696558Y-111445925D01*
X147705387Y-111417096D01*
X147709779Y-111403592D01*
X147732500Y-111334848D01*
X147999166Y-111334806D01*
X148064568Y-111334812D01*
G37*
G36*
X144752511Y-111368496D02*
G01*
X144739948Y-111392089D01*
X144740076Y-111414914D01*
X144740343Y-111416015D01*
X144745184Y-111430534D01*
X144755169Y-111457082D01*
X144769263Y-111493136D01*
X144786429Y-111536173D01*
X144805634Y-111583673D01*
X144825840Y-111633113D01*
X144846013Y-111681971D01*
X144865116Y-111727725D01*
X144882115Y-111767852D01*
X144895974Y-111799832D01*
X144905657Y-111821141D01*
X144909967Y-111829134D01*
X144915236Y-111824120D01*
X144925670Y-111805877D01*
X144940263Y-111776659D01*
X144958012Y-111738720D01*
X144977912Y-111694315D01*
X144998959Y-111645696D01*
X145020147Y-111595119D01*
X145040473Y-111544838D01*
X145058931Y-111497105D01*
X145063920Y-111483711D01*
X145078292Y-111444254D01*
X145087359Y-111417058D01*
X145091708Y-111398794D01*
X145091926Y-111386133D01*
X145088601Y-111375746D01*
X145084352Y-111367823D01*
X145070775Y-111344166D01*
X145141220Y-111344166D01*
X145173135Y-111344593D01*
X145197510Y-111345731D01*
X145210508Y-111347368D01*
X145211666Y-111348073D01*
X145207459Y-111356409D01*
X145196282Y-111375099D01*
X145180298Y-111400557D01*
X145175204Y-111408490D01*
X145141758Y-111464196D01*
X145105928Y-111531522D01*
X145067140Y-111611646D01*
X145024816Y-111705748D01*
X144990562Y-111785833D01*
X144970074Y-111833872D01*
X144950970Y-111877293D01*
X144934445Y-111913489D01*
X144921693Y-111939850D01*
X144913909Y-111953770D01*
X144913279Y-111954583D01*
X144893843Y-111966341D01*
X144867302Y-111970097D01*
X144840442Y-111966144D01*
X144820049Y-111954774D01*
X144816496Y-111950416D01*
X144809553Y-111937037D01*
X144797518Y-111910979D01*
X144781603Y-111874990D01*
X144763025Y-111831819D01*
X144742996Y-111784214D01*
X144741936Y-111781666D01*
X144699982Y-111681360D01*
X144663704Y-111596034D01*
X144632837Y-111525100D01*
X144607114Y-111467967D01*
X144586269Y-111424044D01*
X144570036Y-111392743D01*
X144558148Y-111373472D01*
X144557202Y-111372202D01*
X144535818Y-111344166D01*
X144653158Y-111344166D01*
X144770498Y-111344166D01*
X144752511Y-111368496D01*
G37*
G36*
X139640633Y-114212015D02*
G01*
X139671052Y-114221189D01*
X139697730Y-114236372D01*
X139718088Y-114256098D01*
X139729551Y-114278904D01*
X139729539Y-114303323D01*
X139715583Y-114327776D01*
X139700644Y-114340169D01*
X139690033Y-114344166D01*
X139676379Y-114349155D01*
X139675573Y-114362868D01*
X139687604Y-114383419D01*
X139690236Y-114386643D01*
X139708626Y-114420376D01*
X139712263Y-114457373D01*
X139701221Y-114493293D01*
X139688066Y-114511983D01*
X139670767Y-114528349D01*
X139652091Y-114537017D01*
X139624985Y-114541006D01*
X139619316Y-114541417D01*
X139574522Y-114539709D01*
X139545059Y-114531353D01*
X139509922Y-114511884D01*
X139488906Y-114489973D01*
X139479486Y-114462320D01*
X139479410Y-114461122D01*
X139538987Y-114461122D01*
X139542551Y-114482763D01*
X139557718Y-114507020D01*
X139580172Y-114519463D01*
X139605330Y-114519981D01*
X139628611Y-114508458D01*
X139645224Y-114485292D01*
X139649607Y-114454340D01*
X139639286Y-114423071D01*
X139615640Y-114395525D01*
X139614137Y-114394321D01*
X139596420Y-114383804D01*
X139580145Y-114384935D01*
X139573522Y-114387643D01*
X139555151Y-114404166D01*
X139542976Y-114430699D01*
X139538987Y-114461122D01*
X139479410Y-114461122D01*
X139478333Y-114444166D01*
X139484659Y-114407317D01*
X139503747Y-114381164D01*
X139535761Y-114365489D01*
X139538491Y-114364779D01*
X139561149Y-114359156D01*
X139544741Y-114326993D01*
X139531563Y-114294737D01*
X139530781Y-114276682D01*
X139588643Y-114276682D01*
X139588915Y-114290875D01*
X139598470Y-114306603D01*
X139607893Y-114318114D01*
X139628035Y-114335633D01*
X139645406Y-114336777D01*
X139660318Y-114321549D01*
X139661898Y-114318734D01*
X139668754Y-114295669D01*
X139669015Y-114269969D01*
X139662888Y-114249570D01*
X139660000Y-114245833D01*
X139639838Y-114235808D01*
X139617307Y-114238152D01*
X139599461Y-114251622D01*
X139596337Y-114257058D01*
X139588643Y-114276682D01*
X139530781Y-114276682D01*
X139530478Y-114269699D01*
X139541890Y-114247217D01*
X139552692Y-114235192D01*
X139578875Y-114217552D01*
X139609048Y-114210314D01*
X139640633Y-114212015D01*
G37*
G36*
X148612271Y-111349457D02*
G01*
X148600351Y-111367430D01*
X148595019Y-111381042D01*
X148595000Y-111381554D01*
X148599255Y-111391611D01*
X148610829Y-111412368D01*
X148627933Y-111441025D01*
X148648777Y-111474778D01*
X148671573Y-111510827D01*
X148694532Y-111546370D01*
X148715865Y-111578604D01*
X148733783Y-111604729D01*
X148746497Y-111621942D01*
X148752037Y-111627500D01*
X148758456Y-111620873D01*
X148771196Y-111603218D01*
X148788127Y-111577870D01*
X148807119Y-111548166D01*
X148826041Y-111517442D01*
X148842763Y-111489034D01*
X148855155Y-111466278D01*
X148855798Y-111465000D01*
X148870059Y-111424400D01*
X148869711Y-111389840D01*
X148854778Y-111362324D01*
X148853333Y-111360833D01*
X148836666Y-111344166D01*
X148934191Y-111344166D01*
X149031715Y-111344166D01*
X149002163Y-111375416D01*
X148962634Y-111421247D01*
X148916733Y-111481903D01*
X148864330Y-111557562D01*
X148837355Y-111598448D01*
X148778333Y-111689121D01*
X148778333Y-111794686D01*
X148778618Y-111839585D01*
X148779763Y-111871113D01*
X148782199Y-111892558D01*
X148786360Y-111907211D01*
X148792677Y-111918360D01*
X148795000Y-111921440D01*
X148806519Y-111937462D01*
X148811649Y-111947320D01*
X148811666Y-111947564D01*
X148803839Y-111949366D01*
X148782378Y-111950874D01*
X148750318Y-111951953D01*
X148710690Y-111952473D01*
X148698917Y-111952500D01*
X148586167Y-111952500D01*
X148603658Y-111928842D01*
X148620667Y-111895047D01*
X148631846Y-111850453D01*
X148636714Y-111800045D01*
X148634793Y-111748806D01*
X148625603Y-111701721D01*
X148625528Y-111701472D01*
X148616960Y-111681933D01*
X148600341Y-111651522D01*
X148577364Y-111612886D01*
X148549722Y-111568674D01*
X148519109Y-111521535D01*
X148487217Y-111474116D01*
X148455739Y-111429068D01*
X148426370Y-111389037D01*
X148422827Y-111384382D01*
X148405049Y-111360511D01*
X148392143Y-111341993D01*
X148386702Y-111332558D01*
X148386666Y-111332299D01*
X148394512Y-111330606D01*
X148416102Y-111329175D01*
X148448512Y-111328121D01*
X148488822Y-111327560D01*
X148508104Y-111327500D01*
X148629543Y-111327500D01*
X148612271Y-111349457D01*
G37*
G36*
X142726381Y-111360154D02*
G01*
X142699166Y-111384476D01*
X142699166Y-111603904D01*
X142699347Y-111679695D01*
X142700349Y-111740664D01*
X142702866Y-111788653D01*
X142707590Y-111825508D01*
X142715212Y-111853072D01*
X142726424Y-111873188D01*
X142741920Y-111887700D01*
X142762390Y-111898452D01*
X142788527Y-111907287D01*
X142815833Y-111914699D01*
X142867668Y-111921958D01*
X142916294Y-111917096D01*
X142958966Y-111901268D01*
X142992936Y-111875631D01*
X143015457Y-111841340D01*
X143019751Y-111828897D01*
X143022444Y-111810724D01*
X143024621Y-111779457D01*
X143026277Y-111738116D01*
X143027405Y-111689720D01*
X143028000Y-111637289D01*
X143028058Y-111583844D01*
X143027571Y-111532403D01*
X143026536Y-111485986D01*
X143024946Y-111447612D01*
X143022795Y-111420302D01*
X143020516Y-111408025D01*
X143009030Y-111388366D01*
X142991411Y-111367775D01*
X142989351Y-111365816D01*
X142966003Y-111344166D01*
X143056954Y-111344166D01*
X143147905Y-111344166D01*
X143130183Y-111363030D01*
X143116676Y-111378984D01*
X143106003Y-111396270D01*
X143097745Y-111417136D01*
X143091483Y-111443828D01*
X143086796Y-111478592D01*
X143083265Y-111523675D01*
X143080469Y-111581323D01*
X143078416Y-111640000D01*
X143076111Y-111705807D01*
X143073713Y-111757202D01*
X143071017Y-111796438D01*
X143067818Y-111825769D01*
X143063912Y-111847450D01*
X143059093Y-111863734D01*
X143057767Y-111867114D01*
X143036194Y-111904449D01*
X143005224Y-111932657D01*
X142963453Y-111952351D01*
X142909476Y-111964143D01*
X142841888Y-111968646D01*
X142824737Y-111968718D01*
X142760261Y-111965793D01*
X142709484Y-111957615D01*
X142693636Y-111953176D01*
X142648363Y-111936749D01*
X142613609Y-111918474D01*
X142587810Y-111895875D01*
X142569397Y-111866476D01*
X142556806Y-111827801D01*
X142548470Y-111777374D01*
X142542975Y-111715000D01*
X142540173Y-111659616D01*
X142538534Y-111597782D01*
X142538197Y-111537474D01*
X142539103Y-111491593D01*
X142540617Y-111447564D01*
X142541002Y-111416860D01*
X142539835Y-111396153D01*
X142536695Y-111382116D01*
X142531161Y-111371421D01*
X142522811Y-111360742D01*
X142522475Y-111360343D01*
X142501851Y-111335833D01*
X142627724Y-111335833D01*
X142753596Y-111335833D01*
X142726381Y-111360154D01*
G37*
G36*
X145673227Y-111340707D02*
G01*
X145714888Y-111341643D01*
X145742138Y-111343416D01*
X145755723Y-111346047D01*
X145757597Y-111347578D01*
X145759632Y-111360187D01*
X145762214Y-111383956D01*
X145764461Y-111409758D01*
X145768602Y-111462851D01*
X145738051Y-111433593D01*
X145705730Y-111406184D01*
X145673647Y-111388042D01*
X145636658Y-111377172D01*
X145589619Y-111371575D01*
X145576250Y-111370794D01*
X145503333Y-111367128D01*
X145503333Y-111489809D01*
X145503333Y-111612491D01*
X145579291Y-111609579D01*
X145655249Y-111606666D01*
X145684568Y-111573333D01*
X145713886Y-111540000D01*
X145708610Y-111593305D01*
X145705701Y-111629008D01*
X145703785Y-111664653D01*
X145703333Y-111684523D01*
X145703333Y-111722436D01*
X145676250Y-111696223D01*
X145633820Y-111665227D01*
X145586057Y-111647572D01*
X145554282Y-111644166D01*
X145531629Y-111644390D01*
X145515633Y-111646705D01*
X145505136Y-111653581D01*
X145498982Y-111667486D01*
X145496012Y-111690888D01*
X145495070Y-111726255D01*
X145495000Y-111770606D01*
X145495585Y-111814161D01*
X145497189Y-111852677D01*
X145499586Y-111882604D01*
X145502549Y-111900394D01*
X145503434Y-111902689D01*
X145520565Y-111917438D01*
X145551092Y-111924295D01*
X145593628Y-111923063D01*
X145620110Y-111919146D01*
X145683844Y-111901805D01*
X145735343Y-111874719D01*
X145767916Y-111846578D01*
X145784402Y-111830459D01*
X145792701Y-111826361D01*
X145794953Y-111833156D01*
X145790233Y-111865421D01*
X145778282Y-111899417D01*
X145762151Y-111927098D01*
X145757193Y-111932731D01*
X145737424Y-111952500D01*
X145523092Y-111952500D01*
X145308761Y-111952500D01*
X145328964Y-111931024D01*
X145336663Y-111921957D01*
X145342254Y-111911790D01*
X145346206Y-111897660D01*
X145348985Y-111876706D01*
X145351059Y-111846066D01*
X145352895Y-111802878D01*
X145353742Y-111779308D01*
X145355142Y-111719522D01*
X145355630Y-111651240D01*
X145355205Y-111582610D01*
X145353867Y-111521778D01*
X145353742Y-111518119D01*
X145351870Y-111468394D01*
X145349967Y-111432479D01*
X145347570Y-111407521D01*
X145344216Y-111390668D01*
X145339442Y-111379069D01*
X145332783Y-111369873D01*
X145328964Y-111365667D01*
X145317052Y-111350512D01*
X145318472Y-111344321D01*
X145320630Y-111344094D01*
X145331935Y-111343969D01*
X145357519Y-111343654D01*
X145394999Y-111343180D01*
X145441989Y-111342578D01*
X145496104Y-111341877D01*
X145543688Y-111341256D01*
X145616409Y-111340585D01*
X145673227Y-111340707D01*
G37*
G36*
X139023878Y-109679168D02*
G01*
X139046142Y-109687943D01*
X139077649Y-109703673D01*
X139083463Y-109706631D01*
X139132715Y-109735742D01*
X139189579Y-109776478D01*
X139251801Y-109827035D01*
X139317126Y-109885603D01*
X139366900Y-109933802D01*
X139479403Y-110057770D01*
X139577718Y-110190442D01*
X139661751Y-110331675D01*
X139731410Y-110481322D01*
X139754668Y-110541952D01*
X139766878Y-110574602D01*
X139777292Y-110600405D01*
X139784504Y-110615986D01*
X139786777Y-110619036D01*
X139791117Y-110611751D01*
X139799210Y-110592102D01*
X139809670Y-110563580D01*
X139815636Y-110546250D01*
X139835794Y-110493266D01*
X139863039Y-110431340D01*
X139895100Y-110364913D01*
X139929703Y-110298425D01*
X139964573Y-110236317D01*
X139997437Y-110183028D01*
X140013945Y-110158934D01*
X140089927Y-110061179D01*
X140174154Y-109966394D01*
X140263134Y-109878113D01*
X140353375Y-109799870D01*
X140414480Y-109753632D01*
X140450910Y-109729720D01*
X140487606Y-109708875D01*
X140521220Y-109692687D01*
X140548404Y-109682746D01*
X140565809Y-109680645D01*
X140567257Y-109681060D01*
X140571768Y-109685920D01*
X140574809Y-109697929D01*
X140576539Y-109719333D01*
X140577114Y-109752375D01*
X140576692Y-109799298D01*
X140576468Y-109812430D01*
X140575513Y-109860893D01*
X140574391Y-109895362D01*
X140572654Y-109918504D01*
X140569851Y-109932991D01*
X140565533Y-109941491D01*
X140559251Y-109946675D01*
X140553333Y-109949814D01*
X140537531Y-109957512D01*
X140510628Y-109970403D01*
X140476607Y-109986585D01*
X140445000Y-110001539D01*
X140322437Y-110068356D01*
X140209336Y-110148695D01*
X140105594Y-110242664D01*
X140011107Y-110350369D01*
X139925772Y-110471917D01*
X139849484Y-110607416D01*
X139839668Y-110627203D01*
X139821353Y-110664021D01*
X139805439Y-110694756D01*
X139793406Y-110716639D01*
X139786733Y-110726906D01*
X139786101Y-110727334D01*
X139781008Y-110720261D01*
X139771497Y-110701247D01*
X139759298Y-110673847D01*
X139754302Y-110661940D01*
X139701007Y-110551060D01*
X139634717Y-110443316D01*
X139557330Y-110340610D01*
X139470743Y-110244845D01*
X139376853Y-110157922D01*
X139277558Y-110081744D01*
X139174755Y-110018212D01*
X139070341Y-109969229D01*
X139058850Y-109964814D01*
X139033237Y-109952697D01*
X139013417Y-109938896D01*
X139007534Y-109932337D01*
X139002413Y-109917055D01*
X138998825Y-109888998D01*
X138996654Y-109846835D01*
X138995820Y-109796250D01*
X138995606Y-109745977D01*
X138996723Y-109710751D01*
X139000752Y-109688954D01*
X139009276Y-109678965D01*
X139023878Y-109679168D01*
G37*
G36*
X139125097Y-111199518D02*
G01*
X139232109Y-111215264D01*
X139301601Y-111232605D01*
X139401830Y-111268741D01*
X139503246Y-111318709D01*
X139602165Y-111380403D01*
X139694902Y-111451715D01*
X139714148Y-111468521D01*
X139741057Y-111491053D01*
X139765057Y-111508431D01*
X139782410Y-111518056D01*
X139787030Y-111519166D01*
X139799977Y-111513768D01*
X139821271Y-111499283D01*
X139847341Y-111478278D01*
X139861922Y-111465335D01*
X139961457Y-111384697D01*
X140068519Y-111318089D01*
X140181749Y-111266054D01*
X140299788Y-111229135D01*
X140421276Y-111207872D01*
X140520931Y-111202500D01*
X140655464Y-111209485D01*
X140788056Y-111229941D01*
X140916779Y-111263119D01*
X141039701Y-111308271D01*
X141154893Y-111364648D01*
X141260425Y-111431500D01*
X141354367Y-111508080D01*
X141384747Y-111537650D01*
X141428661Y-111582522D01*
X141426413Y-111769594D01*
X141425659Y-111829935D01*
X141424908Y-111875369D01*
X141423968Y-111907655D01*
X141422641Y-111928553D01*
X141420735Y-111939821D01*
X141418055Y-111943219D01*
X141414405Y-111940505D01*
X141409591Y-111933438D01*
X141408478Y-111931666D01*
X141321726Y-111805647D01*
X141229076Y-111694905D01*
X141129998Y-111598939D01*
X141023960Y-111517249D01*
X140910430Y-111449333D01*
X140882500Y-111435265D01*
X140758322Y-111382689D01*
X140634954Y-111346082D01*
X140512996Y-111325559D01*
X140393052Y-111321233D01*
X140311666Y-111327766D01*
X140214669Y-111345657D01*
X140119911Y-111373318D01*
X140030372Y-111409420D01*
X139949028Y-111452631D01*
X139878859Y-111501623D01*
X139836928Y-111539729D01*
X139817258Y-111557052D01*
X139799691Y-111567632D01*
X139793453Y-111569166D01*
X139780213Y-111563832D01*
X139759371Y-111549787D01*
X139735245Y-111529973D01*
X139733250Y-111528179D01*
X139647571Y-111461255D01*
X139553434Y-111408163D01*
X139450405Y-111368736D01*
X139338047Y-111342809D01*
X139215922Y-111330219D01*
X139209479Y-111329933D01*
X139078533Y-111330866D01*
X138956053Y-111345341D01*
X138840404Y-111373933D01*
X138729948Y-111417213D01*
X138623050Y-111475755D01*
X138518072Y-111550131D01*
X138471876Y-111588186D01*
X138392517Y-111658436D01*
X138325724Y-111722418D01*
X138269604Y-111782157D01*
X138222267Y-111839678D01*
X138181820Y-111897006D01*
X138178333Y-111902412D01*
X138149166Y-111947985D01*
X138146916Y-111765203D01*
X138144665Y-111582422D01*
X138201082Y-111525155D01*
X138281054Y-111454493D01*
X138375016Y-111390126D01*
X138481135Y-111333109D01*
X138597578Y-111284500D01*
X138649166Y-111266831D01*
X138778831Y-111230275D01*
X138900208Y-111206932D01*
X139015047Y-111196710D01*
X139125097Y-111199518D01*
G37*
G36*
X153921048Y-112427712D02*
G01*
X153975779Y-112428313D01*
X154022586Y-112429246D01*
X154059370Y-112430454D01*
X154084032Y-112431883D01*
X154094473Y-112433476D01*
X154094683Y-112433750D01*
X154088229Y-112441842D01*
X154072301Y-112455009D01*
X154063433Y-112461397D01*
X154042011Y-112480960D01*
X154019874Y-112508475D01*
X154007500Y-112528063D01*
X153982500Y-112573333D01*
X153980115Y-113087748D01*
X153979598Y-113197614D01*
X153979214Y-113292021D01*
X153979081Y-113372174D01*
X153979311Y-113439281D01*
X153980021Y-113494549D01*
X153981325Y-113539185D01*
X153983338Y-113574396D01*
X153986174Y-113601387D01*
X153989949Y-113621367D01*
X153994777Y-113635543D01*
X154000773Y-113645120D01*
X154008051Y-113651306D01*
X154016728Y-113655308D01*
X154026917Y-113658332D01*
X154034596Y-113660398D01*
X154063884Y-113665390D01*
X154104315Y-113668180D01*
X154150511Y-113668760D01*
X154197092Y-113667120D01*
X154238680Y-113663250D01*
X154254279Y-113660789D01*
X154325033Y-113639293D01*
X154389557Y-113602919D01*
X154446471Y-113552730D01*
X154494399Y-113489793D01*
X154509640Y-113463372D01*
X154525385Y-113435920D01*
X154540253Y-113413477D01*
X154550416Y-113401519D01*
X154558988Y-113395789D01*
X154561846Y-113400023D01*
X154560140Y-113417082D01*
X154559190Y-113423333D01*
X154555069Y-113446323D01*
X154548419Y-113479436D01*
X154539959Y-113519476D01*
X154530406Y-113563246D01*
X154520480Y-113607549D01*
X154510900Y-113649189D01*
X154502384Y-113684969D01*
X154495650Y-113711694D01*
X154491417Y-113726167D01*
X154490795Y-113727560D01*
X154486595Y-113730676D01*
X154477296Y-113732823D01*
X154461182Y-113733990D01*
X154436540Y-113734166D01*
X154401653Y-113733339D01*
X154354808Y-113731499D01*
X154294288Y-113728633D01*
X154240833Y-113725904D01*
X154192697Y-113724062D01*
X154132038Y-113722766D01*
X154062990Y-113722046D01*
X153989691Y-113721930D01*
X153916274Y-113722446D01*
X153862116Y-113723295D01*
X153625067Y-113728054D01*
X153658927Y-113703526D01*
X153686720Y-113677086D01*
X153709896Y-113643947D01*
X153712644Y-113638665D01*
X153732500Y-113598333D01*
X153732056Y-113090000D01*
X153731958Y-112978899D01*
X153731781Y-112883186D01*
X153731385Y-112801579D01*
X153730633Y-112732800D01*
X153729387Y-112675567D01*
X153727507Y-112628602D01*
X153724856Y-112590624D01*
X153721294Y-112560354D01*
X153716684Y-112536511D01*
X153710888Y-112517816D01*
X153703766Y-112502989D01*
X153695181Y-112490750D01*
X153684994Y-112479819D01*
X153673067Y-112468916D01*
X153664046Y-112461001D01*
X153625986Y-112427500D01*
X153860493Y-112427500D01*
X153921048Y-112427712D01*
G37*
G36*
X146916283Y-111322460D02*
G01*
X146954136Y-111328365D01*
X146995989Y-111337861D01*
X147020479Y-111344975D01*
X147052820Y-111354366D01*
X147074679Y-111357215D01*
X147090659Y-111354058D01*
X147092285Y-111353354D01*
X147111666Y-111344523D01*
X147111176Y-111421428D01*
X147110614Y-111457050D01*
X147109248Y-111478073D01*
X147106719Y-111486560D01*
X147102672Y-111484573D01*
X147100759Y-111481666D01*
X147090044Y-111467568D01*
X147071327Y-111446370D01*
X147048582Y-111422564D01*
X147047679Y-111421656D01*
X147007519Y-111388625D01*
X146965959Y-111367113D01*
X146925228Y-111356832D01*
X146887560Y-111357494D01*
X146855185Y-111368813D01*
X146830335Y-111390500D01*
X146815242Y-111422269D01*
X146811666Y-111452064D01*
X146813891Y-111476208D01*
X146821918Y-111496433D01*
X146837777Y-111514471D01*
X146863495Y-111532056D01*
X146901102Y-111550921D01*
X146952627Y-111572799D01*
X146953333Y-111573085D01*
X147021520Y-111603072D01*
X147074492Y-111632277D01*
X147113556Y-111662116D01*
X147140018Y-111694003D01*
X147155186Y-111729355D01*
X147160365Y-111769586D01*
X147159266Y-111796161D01*
X147147019Y-111850086D01*
X147120920Y-111894760D01*
X147081012Y-111930139D01*
X147027337Y-111956179D01*
X146999499Y-111964633D01*
X146938854Y-111974592D01*
X146875512Y-111975243D01*
X146845000Y-111971742D01*
X146812055Y-111964179D01*
X146774930Y-111952487D01*
X146737768Y-111938363D01*
X146704712Y-111923504D01*
X146679906Y-111909605D01*
X146668044Y-111899297D01*
X146664802Y-111886835D01*
X146662777Y-111864377D01*
X146661954Y-111836754D01*
X146662321Y-111808798D01*
X146663865Y-111785342D01*
X146666573Y-111771219D01*
X146668396Y-111769166D01*
X146675500Y-111776087D01*
X146685606Y-111793558D01*
X146690184Y-111803297D01*
X146722123Y-111856768D01*
X146764833Y-111897842D01*
X146817264Y-111925677D01*
X146856361Y-111936328D01*
X146908166Y-111939883D01*
X146951576Y-111930547D01*
X146985280Y-111909132D01*
X147007970Y-111876448D01*
X147018088Y-111836131D01*
X147019598Y-111810089D01*
X147015957Y-111793092D01*
X147004434Y-111777695D01*
X146992316Y-111765858D01*
X146969919Y-111749081D01*
X146938057Y-111730513D01*
X146903029Y-111713769D01*
X146897497Y-111711478D01*
X146834208Y-111685104D01*
X146784846Y-111662307D01*
X146747445Y-111641649D01*
X146720037Y-111621692D01*
X146700655Y-111600996D01*
X146687332Y-111578124D01*
X146678102Y-111551637D01*
X146677896Y-111550876D01*
X146672011Y-111500274D01*
X146680975Y-111452791D01*
X146703032Y-111410108D01*
X146736426Y-111373909D01*
X146779401Y-111345876D01*
X146830202Y-111327691D01*
X146887072Y-111321037D01*
X146916283Y-111322460D01*
G37*
G36*
X143405065Y-111335930D02*
G01*
X143499166Y-111336027D01*
X143678104Y-111544446D01*
X143721381Y-111594981D01*
X143761305Y-111641841D01*
X143796538Y-111683438D01*
X143825743Y-111718186D01*
X143847583Y-111744495D01*
X143860721Y-111760777D01*
X143863935Y-111765182D01*
X143876355Y-111776018D01*
X143882914Y-111777500D01*
X143887121Y-111775213D01*
X143890245Y-111767013D01*
X143892430Y-111750891D01*
X143893823Y-111724839D01*
X143894567Y-111686849D01*
X143894808Y-111634911D01*
X143894801Y-111612916D01*
X143894341Y-111544584D01*
X143892935Y-111490789D01*
X143890268Y-111449415D01*
X143886022Y-111418345D01*
X143879883Y-111395463D01*
X143871533Y-111378650D01*
X143860656Y-111365791D01*
X143857471Y-111362916D01*
X143835737Y-111344166D01*
X143924442Y-111344166D01*
X144013148Y-111344166D01*
X143991793Y-111369545D01*
X143974807Y-111395673D01*
X143962409Y-111424844D01*
X143961831Y-111426886D01*
X143959299Y-111443237D01*
X143956347Y-111473841D01*
X143953138Y-111516294D01*
X143949833Y-111568194D01*
X143946596Y-111627135D01*
X143943589Y-111690715D01*
X143942862Y-111707757D01*
X143932500Y-111956666D01*
X143896808Y-111959242D01*
X143872317Y-111959234D01*
X143855526Y-111952409D01*
X143838176Y-111935301D01*
X143837257Y-111934242D01*
X143825085Y-111919956D01*
X143804110Y-111895103D01*
X143776204Y-111861912D01*
X143743242Y-111822613D01*
X143707096Y-111779436D01*
X143688061Y-111756666D01*
X143647679Y-111708753D01*
X143606263Y-111660347D01*
X143566512Y-111614551D01*
X143531125Y-111574467D01*
X143502801Y-111543195D01*
X143495930Y-111535833D01*
X143429135Y-111465000D01*
X143429258Y-111619166D01*
X143429681Y-111674289D01*
X143430772Y-111729317D01*
X143432398Y-111779815D01*
X143434422Y-111821351D01*
X143436093Y-111843652D01*
X143440081Y-111879352D01*
X143444722Y-111902752D01*
X143451430Y-111918200D01*
X143461618Y-111930046D01*
X143465200Y-111933235D01*
X143487596Y-111952500D01*
X143401943Y-111952500D01*
X143363841Y-111952353D01*
X143340133Y-111951602D01*
X143328549Y-111949782D01*
X143326817Y-111946427D01*
X143332667Y-111941070D01*
X143335692Y-111938910D01*
X143349645Y-111927341D01*
X143360562Y-111913080D01*
X143368859Y-111893998D01*
X143374953Y-111867965D01*
X143379262Y-111832852D01*
X143382202Y-111786529D01*
X143384189Y-111726866D01*
X143385043Y-111686755D01*
X143385772Y-111629862D01*
X143385876Y-111574926D01*
X143385392Y-111525460D01*
X143384360Y-111484975D01*
X143382818Y-111456982D01*
X143382477Y-111453422D01*
X143378214Y-111422092D01*
X143371764Y-111401047D01*
X143360274Y-111383920D01*
X143343779Y-111367083D01*
X143310964Y-111335833D01*
X143405065Y-111335930D01*
G37*
G36*
X138650771Y-110033042D02*
G01*
X138686058Y-110039098D01*
X138727442Y-110047835D01*
X138771624Y-110058579D01*
X138815308Y-110070659D01*
X138838915Y-110077949D01*
X138926454Y-110110736D01*
X139021047Y-110154137D01*
X139119073Y-110205967D01*
X139216911Y-110264040D01*
X139310941Y-110326170D01*
X139397541Y-110390172D01*
X139473092Y-110453859D01*
X139493720Y-110473213D01*
X139560569Y-110541700D01*
X139616773Y-110608706D01*
X139666004Y-110679278D01*
X139711933Y-110758465D01*
X139737576Y-110808446D01*
X139792653Y-110919846D01*
X139839107Y-110825046D01*
X139897213Y-110717068D01*
X139960060Y-110621733D01*
X140030376Y-110535138D01*
X140073797Y-110489243D01*
X140152029Y-110417453D01*
X140242465Y-110346051D01*
X140341214Y-110277498D01*
X140444384Y-110214255D01*
X140548088Y-110158785D01*
X140648433Y-110113550D01*
X140695655Y-110095706D01*
X140731362Y-110084135D01*
X140773022Y-110072124D01*
X140817466Y-110060408D01*
X140861526Y-110049726D01*
X140902035Y-110040812D01*
X140935823Y-110034404D01*
X140959723Y-110031239D01*
X140970296Y-110031849D01*
X140973212Y-110041671D01*
X140975614Y-110065527D01*
X140977343Y-110100787D01*
X140978241Y-110144823D01*
X140978333Y-110165333D01*
X140978600Y-110215192D01*
X140978225Y-110250915D01*
X140975444Y-110274993D01*
X140968495Y-110289919D01*
X140955614Y-110298184D01*
X140935037Y-110302281D01*
X140905001Y-110304703D01*
X140878333Y-110306659D01*
X140823231Y-110313136D01*
X140757837Y-110323955D01*
X140687602Y-110337990D01*
X140617976Y-110354115D01*
X140554411Y-110371202D01*
X140530278Y-110378572D01*
X140410936Y-110421834D01*
X140303090Y-110472273D01*
X140204803Y-110531410D01*
X140114140Y-110600767D01*
X140029164Y-110681865D01*
X139947939Y-110776225D01*
X139868529Y-110885368D01*
X139850190Y-110912916D01*
X139827775Y-110946511D01*
X139808444Y-110974364D01*
X139794077Y-110993848D01*
X139786551Y-111002337D01*
X139786121Y-111002500D01*
X139779442Y-110996014D01*
X139766176Y-110978694D01*
X139748717Y-110953742D01*
X139740926Y-110942083D01*
X139673748Y-110844114D01*
X139610056Y-110759965D01*
X139547813Y-110687728D01*
X139484983Y-110625498D01*
X139419530Y-110571369D01*
X139349417Y-110523435D01*
X139272609Y-110479789D01*
X139218401Y-110452944D01*
X139077634Y-110394198D01*
X138935733Y-110350726D01*
X138788847Y-110321464D01*
X138704638Y-110311052D01*
X138668060Y-110307073D01*
X138637624Y-110303094D01*
X138617193Y-110299658D01*
X138610888Y-110297852D01*
X138607924Y-110288050D01*
X138605709Y-110265130D01*
X138604233Y-110232624D01*
X138603485Y-110194063D01*
X138603456Y-110152978D01*
X138604133Y-110112900D01*
X138605507Y-110077362D01*
X138607568Y-110049895D01*
X138610304Y-110034030D01*
X138611682Y-110031657D01*
X138624880Y-110030337D01*
X138650771Y-110033042D01*
G37*
G36*
X153018348Y-112401209D02*
G01*
X153126729Y-112421987D01*
X153226491Y-112456157D01*
X153316957Y-112503266D01*
X153397452Y-112562863D01*
X153467300Y-112634495D01*
X153525826Y-112717710D01*
X153572353Y-112812055D01*
X153587500Y-112852951D01*
X153609785Y-112942067D01*
X153619723Y-113037906D01*
X153617447Y-113136143D01*
X153603090Y-113232453D01*
X153576786Y-113322513D01*
X153572719Y-113332979D01*
X153527790Y-113423433D01*
X153469699Y-113504512D01*
X153399494Y-113575555D01*
X153318221Y-113635897D01*
X153226929Y-113684876D01*
X153126665Y-113721826D01*
X153018477Y-113746086D01*
X152903412Y-113756990D01*
X152903333Y-113756993D01*
X152825882Y-113757341D01*
X152761922Y-113752550D01*
X152734448Y-113748226D01*
X152630698Y-113720557D01*
X152532411Y-113678525D01*
X152442186Y-113623422D01*
X152377634Y-113570865D01*
X152327201Y-113520573D01*
X152287026Y-113471112D01*
X152252321Y-113416148D01*
X152232963Y-113379557D01*
X152203524Y-113313082D01*
X152183675Y-113248084D01*
X152172224Y-113179178D01*
X152167978Y-113100981D01*
X152167887Y-113085833D01*
X152169514Y-113044507D01*
X152460140Y-113044507D01*
X152462982Y-113149545D01*
X152476383Y-113252511D01*
X152500059Y-113349415D01*
X152528817Y-113425737D01*
X152572248Y-113505577D01*
X152623634Y-113571998D01*
X152682123Y-113624499D01*
X152746861Y-113662581D01*
X152816996Y-113685744D01*
X152891675Y-113693491D01*
X152970045Y-113685320D01*
X152971673Y-113684985D01*
X153046077Y-113661207D01*
X153114150Y-113622612D01*
X153175151Y-113570086D01*
X153228339Y-113504514D01*
X153272973Y-113426781D01*
X153308313Y-113337771D01*
X153329803Y-113257146D01*
X153338727Y-113201311D01*
X153344273Y-113136192D01*
X153346388Y-113067103D01*
X153345016Y-112999356D01*
X153340104Y-112938264D01*
X153333505Y-112897371D01*
X153306453Y-112802891D01*
X153268234Y-112715715D01*
X153220108Y-112637815D01*
X153163335Y-112571167D01*
X153099176Y-112517745D01*
X153085464Y-112508756D01*
X153034377Y-112484616D01*
X152973637Y-112468422D01*
X152908579Y-112460822D01*
X152844532Y-112462462D01*
X152790216Y-112472947D01*
X152741038Y-112493317D01*
X152689743Y-112524121D01*
X152642434Y-112561292D01*
X152613380Y-112590740D01*
X152585470Y-112628832D01*
X152556428Y-112678115D01*
X152528779Y-112733521D01*
X152505044Y-112789979D01*
X152487745Y-112842420D01*
X152487275Y-112844166D01*
X152468143Y-112941384D01*
X152460140Y-113044507D01*
X152169514Y-113044507D01*
X152171085Y-113004625D01*
X152181547Y-112933261D01*
X152200574Y-112866022D01*
X152229467Y-112797188D01*
X152237075Y-112781666D01*
X152287147Y-112696892D01*
X152347635Y-112622742D01*
X152420049Y-112557758D01*
X152505897Y-112500486D01*
X152556975Y-112472953D01*
X152634767Y-112438306D01*
X152710579Y-112414488D01*
X152789671Y-112400299D01*
X152877305Y-112394540D01*
X152902024Y-112394276D01*
X153018348Y-112401209D01*
G37*
G36*
X140646172Y-114583159D02*
G01*
X140664665Y-114598538D01*
X140689155Y-114621234D01*
X140714811Y-114646684D01*
X140754257Y-114684100D01*
X140797269Y-114720168D01*
X140837685Y-114749807D01*
X140847783Y-114756316D01*
X140883624Y-114779893D01*
X140907041Y-114800033D01*
X140920593Y-114820604D01*
X140926837Y-114845470D01*
X140928333Y-114878042D01*
X140927139Y-114903521D01*
X140922770Y-114916032D01*
X140914756Y-114919166D01*
X140896575Y-114914546D01*
X140868437Y-114902035D01*
X140833783Y-114883659D01*
X140796053Y-114861442D01*
X140758686Y-114837409D01*
X140725124Y-114813584D01*
X140699015Y-114792185D01*
X140672985Y-114770122D01*
X140649545Y-114753405D01*
X140632676Y-114744773D01*
X140629264Y-114744166D01*
X140612754Y-114748399D01*
X140588763Y-114759285D01*
X140571312Y-114769150D01*
X140490304Y-114813302D01*
X140396548Y-114854509D01*
X140293901Y-114891297D01*
X140186218Y-114922192D01*
X140145801Y-114931850D01*
X140118708Y-114937791D01*
X140094483Y-114942457D01*
X140070649Y-114945990D01*
X140044734Y-114948535D01*
X140014262Y-114950233D01*
X139976758Y-114951226D01*
X139929748Y-114951658D01*
X139870758Y-114951672D01*
X139805912Y-114951446D01*
X139741475Y-114950915D01*
X139680976Y-114949930D01*
X139626840Y-114948568D01*
X139581492Y-114946906D01*
X139547357Y-114945021D01*
X139526861Y-114942991D01*
X139524166Y-114942473D01*
X139424388Y-114918291D01*
X139338972Y-114896428D01*
X139265887Y-114876194D01*
X139203102Y-114856896D01*
X139148586Y-114837841D01*
X139100311Y-114818338D01*
X139056244Y-114797693D01*
X139014355Y-114775215D01*
X138987898Y-114759636D01*
X138961111Y-114744028D01*
X138939449Y-114732603D01*
X138927136Y-114727569D01*
X138926460Y-114727500D01*
X138916908Y-114732860D01*
X138898674Y-114747175D01*
X138875036Y-114767799D01*
X138864578Y-114777432D01*
X138833191Y-114804181D01*
X138795488Y-114832365D01*
X138755389Y-114859446D01*
X138716809Y-114882888D01*
X138683667Y-114900155D01*
X138662855Y-114908042D01*
X138643149Y-114907210D01*
X138631771Y-114892222D01*
X138628460Y-114866815D01*
X138632520Y-114833196D01*
X138646522Y-114804795D01*
X138672587Y-114778733D01*
X138712836Y-114752132D01*
X138712984Y-114752046D01*
X138755449Y-114723572D01*
X138802056Y-114685725D01*
X138843269Y-114647064D01*
X138871485Y-114619706D01*
X138896459Y-114597409D01*
X138915390Y-114582553D01*
X138925197Y-114577500D01*
X138936906Y-114581919D01*
X138959068Y-114593928D01*
X138988418Y-114611649D01*
X139019060Y-114631449D01*
X139138912Y-114701559D01*
X139266621Y-114758295D01*
X139400490Y-114801660D01*
X139538826Y-114831659D01*
X139679934Y-114848293D01*
X139822120Y-114851567D01*
X139963688Y-114841485D01*
X140102945Y-114818049D01*
X140238195Y-114781262D01*
X140367744Y-114731130D01*
X140489897Y-114667654D01*
X140551431Y-114628349D01*
X140582771Y-114607532D01*
X140609704Y-114590837D01*
X140628918Y-114580246D01*
X140636398Y-114577500D01*
X140646172Y-114583159D01*
G37*
G36*
X140954788Y-110868966D02*
G01*
X141026518Y-110878321D01*
X141102851Y-110892499D01*
X141178155Y-110910206D01*
X141246797Y-110930149D01*
X141291898Y-110946348D01*
X141340833Y-110966013D01*
X141343100Y-111121756D01*
X141343553Y-111170629D01*
X141343452Y-111213219D01*
X141342845Y-111246946D01*
X141341780Y-111269232D01*
X141340302Y-111277495D01*
X141340262Y-111277500D01*
X141331814Y-111272479D01*
X141314565Y-111259315D01*
X141292242Y-111240852D01*
X141292162Y-111240784D01*
X141201598Y-111174257D01*
X141098450Y-111118570D01*
X140982847Y-111073788D01*
X140918875Y-111055101D01*
X140882974Y-111046144D01*
X140851753Y-111039857D01*
X140820729Y-111035770D01*
X140785419Y-111033411D01*
X140741341Y-111032311D01*
X140699166Y-111032026D01*
X140633352Y-111032648D01*
X140580138Y-111035101D01*
X140535528Y-111039674D01*
X140495529Y-111046657D01*
X140495000Y-111046769D01*
X140374594Y-111078558D01*
X140252842Y-111122188D01*
X140133511Y-111175844D01*
X140020365Y-111237711D01*
X139917172Y-111305972D01*
X139853333Y-111356196D01*
X139828182Y-111377114D01*
X139807899Y-111393100D01*
X139795736Y-111401626D01*
X139793937Y-111402384D01*
X139785702Y-111397413D01*
X139767840Y-111383955D01*
X139743390Y-111364354D01*
X139727270Y-111350995D01*
X139620384Y-111270811D01*
X139502686Y-111199541D01*
X139377302Y-111138510D01*
X139247362Y-111089042D01*
X139115993Y-111052460D01*
X138986323Y-111030088D01*
X138963514Y-111027683D01*
X138844793Y-111024708D01*
X138726630Y-111037980D01*
X138610387Y-111067100D01*
X138497425Y-111111669D01*
X138389108Y-111171286D01*
X138326146Y-111214686D01*
X138296262Y-111236721D01*
X138271511Y-111254482D01*
X138254781Y-111265927D01*
X138249063Y-111269166D01*
X138247749Y-111261277D01*
X138246613Y-111239384D01*
X138245727Y-111206149D01*
X138245166Y-111164237D01*
X138245000Y-111122864D01*
X138245000Y-110976562D01*
X138280416Y-110960915D01*
X138318214Y-110946386D01*
X138367580Y-110930560D01*
X138423628Y-110914804D01*
X138481472Y-110900482D01*
X138536228Y-110888961D01*
X138540833Y-110888109D01*
X138597802Y-110880484D01*
X138665395Y-110875838D01*
X138738430Y-110874162D01*
X138811725Y-110875448D01*
X138880099Y-110879686D01*
X138938372Y-110886868D01*
X138949166Y-110888812D01*
X139076944Y-110920184D01*
X139206087Y-110964509D01*
X139333372Y-111020155D01*
X139455579Y-111085491D01*
X139569485Y-111158885D01*
X139671868Y-111238704D01*
X139712412Y-111275416D01*
X139740877Y-111302096D01*
X139764996Y-111323948D01*
X139782226Y-111338722D01*
X139790025Y-111344166D01*
X139790030Y-111344166D01*
X139797900Y-111338945D01*
X139815751Y-111324629D01*
X139841149Y-111303241D01*
X139871658Y-111276805D01*
X139880609Y-111268929D01*
X139975597Y-111189551D01*
X140067176Y-111122594D01*
X140159098Y-111065430D01*
X140211666Y-111036950D01*
X140348491Y-110973596D01*
X140485126Y-110924400D01*
X140620278Y-110889653D01*
X140752656Y-110869647D01*
X140880967Y-110864676D01*
X140954788Y-110868966D01*
G37*
G36*
X141132297Y-110461741D02*
G01*
X141160212Y-110464279D01*
X141173864Y-110468915D01*
X141178706Y-110475552D01*
X141182195Y-110487768D01*
X141184534Y-110507928D01*
X141185921Y-110538398D01*
X141186559Y-110581541D01*
X141186666Y-110619695D01*
X141186280Y-110666305D01*
X141185211Y-110706861D01*
X141183593Y-110738533D01*
X141181559Y-110758490D01*
X141179844Y-110764065D01*
X141169030Y-110764131D01*
X141146622Y-110760468D01*
X141117077Y-110753840D01*
X141111094Y-110752326D01*
X141003414Y-110729159D01*
X140893307Y-110713993D01*
X140784682Y-110707044D01*
X140681448Y-110708531D01*
X140587513Y-110718670D01*
X140568251Y-110722129D01*
X140453614Y-110750590D01*
X140343449Y-110790894D01*
X140236269Y-110843899D01*
X140130588Y-110910464D01*
X140024921Y-110991447D01*
X139917781Y-111087706D01*
X139892340Y-111112527D01*
X139858021Y-111146429D01*
X139828103Y-111175866D01*
X139804463Y-111198997D01*
X139788983Y-111213982D01*
X139783546Y-111218998D01*
X139777576Y-111213400D01*
X139761619Y-111197942D01*
X139737558Y-111174463D01*
X139707279Y-111144802D01*
X139674166Y-111112273D01*
X139571353Y-111016810D01*
X139471595Y-110936160D01*
X139373033Y-110869209D01*
X139273811Y-110814843D01*
X139172068Y-110771950D01*
X139065947Y-110739415D01*
X139042198Y-110733623D01*
X138985952Y-110723920D01*
X138918149Y-110717627D01*
X138843546Y-110714743D01*
X138766902Y-110715266D01*
X138692972Y-110719196D01*
X138626514Y-110726531D01*
X138586666Y-110733761D01*
X138528875Y-110746658D01*
X138485276Y-110756308D01*
X138453775Y-110763019D01*
X138432281Y-110767094D01*
X138418699Y-110768840D01*
X138410939Y-110768562D01*
X138406906Y-110766564D01*
X138404509Y-110763154D01*
X138402993Y-110760568D01*
X138400098Y-110747725D01*
X138397895Y-110721850D01*
X138396387Y-110686560D01*
X138395576Y-110645469D01*
X138395466Y-110602195D01*
X138396060Y-110560353D01*
X138397360Y-110523558D01*
X138399371Y-110495427D01*
X138402094Y-110479576D01*
X138402754Y-110478150D01*
X138415138Y-110472171D01*
X138441244Y-110468748D01*
X138478337Y-110467800D01*
X138523684Y-110469243D01*
X138574550Y-110472996D01*
X138628200Y-110478976D01*
X138678276Y-110486476D01*
X138849558Y-110522690D01*
X139009763Y-110571213D01*
X139159318Y-110632291D01*
X139298647Y-110706172D01*
X139428176Y-110793102D01*
X139548331Y-110893329D01*
X139659538Y-111007098D01*
X139736712Y-111100663D01*
X139761665Y-111132206D01*
X139779013Y-111151580D01*
X139790502Y-111160412D01*
X139797881Y-111160328D01*
X139799387Y-111158996D01*
X139807694Y-111149115D01*
X139824435Y-111128683D01*
X139847617Y-111100150D01*
X139875247Y-111065967D01*
X139894477Y-111042090D01*
X139985575Y-110936776D01*
X140078555Y-110845837D01*
X140176214Y-110767007D01*
X140281348Y-110698021D01*
X140391903Y-110638951D01*
X140464883Y-110606575D01*
X140549020Y-110574206D01*
X140638901Y-110543649D01*
X140729115Y-110516710D01*
X140814248Y-110495197D01*
X140837942Y-110490081D01*
X140887634Y-110481083D01*
X140940932Y-110473551D01*
X140994941Y-110467669D01*
X141046767Y-110463619D01*
X141093517Y-110461582D01*
X141132297Y-110461741D01*
G37*
G36*
X140374826Y-111467678D02*
G01*
X140437051Y-111473478D01*
X140478333Y-111480334D01*
X140617913Y-111517547D01*
X140748422Y-111568718D01*
X140870067Y-111633957D01*
X140983055Y-111713376D01*
X141087592Y-111807087D01*
X141090833Y-111810356D01*
X141157500Y-111877852D01*
X141160098Y-112031842D01*
X141160563Y-112080421D01*
X141160289Y-112122703D01*
X141159349Y-112156095D01*
X141157817Y-112178003D01*
X141155774Y-112185833D01*
X141148528Y-112179389D01*
X141134123Y-112161904D01*
X141114733Y-112136142D01*
X141095220Y-112108750D01*
X141064004Y-112067851D01*
X141022630Y-112019455D01*
X140973975Y-111966450D01*
X140920916Y-111911721D01*
X140866332Y-111858158D01*
X140813099Y-111808648D01*
X140764095Y-111766077D01*
X140722197Y-111733334D01*
X140718470Y-111730684D01*
X140612811Y-111665062D01*
X140503209Y-111613584D01*
X140432500Y-111588790D01*
X140401369Y-111579807D01*
X140374161Y-111573507D01*
X140346640Y-111569406D01*
X140314568Y-111567022D01*
X140273711Y-111565871D01*
X140228333Y-111565499D01*
X140176104Y-111565598D01*
X140136576Y-111566619D01*
X140105790Y-111568955D01*
X140079788Y-111572998D01*
X140054612Y-111579140D01*
X140036666Y-111584490D01*
X139946900Y-111620517D01*
X139859318Y-111672159D01*
X139843883Y-111683014D01*
X139820152Y-111698370D01*
X139799911Y-111708474D01*
X139790837Y-111710833D01*
X139777426Y-111706415D01*
X139754727Y-111694693D01*
X139727077Y-111677962D01*
X139719852Y-111673235D01*
X139650771Y-111631338D01*
X139585278Y-111601039D01*
X139518726Y-111580980D01*
X139446466Y-111569803D01*
X139363850Y-111566149D01*
X139353333Y-111566150D01*
X139301886Y-111566890D01*
X139261542Y-111569075D01*
X139226757Y-111573358D01*
X139191986Y-111580390D01*
X139157793Y-111589154D01*
X139044184Y-111628493D01*
X138933155Y-111683861D01*
X138825358Y-111754735D01*
X138721448Y-111840589D01*
X138622080Y-111940897D01*
X138527909Y-112055136D01*
X138463337Y-112146250D01*
X138445672Y-112172278D01*
X138431700Y-112191920D01*
X138423784Y-112201887D01*
X138422944Y-112202500D01*
X138422031Y-112194590D01*
X138421232Y-112172557D01*
X138420592Y-112138943D01*
X138420159Y-112096291D01*
X138419980Y-112047143D01*
X138419978Y-112042083D01*
X138419957Y-111881666D01*
X138509561Y-111793880D01*
X138609426Y-111704920D01*
X138712132Y-111631394D01*
X138819625Y-111572095D01*
X138933846Y-111525816D01*
X138949166Y-111520733D01*
X139004888Y-111503684D01*
X139054571Y-111491134D01*
X139102699Y-111482454D01*
X139153756Y-111477014D01*
X139212225Y-111474184D01*
X139282592Y-111473335D01*
X139286666Y-111473333D01*
X139343307Y-111473631D01*
X139386419Y-111474697D01*
X139419133Y-111476784D01*
X139444578Y-111480149D01*
X139465885Y-111485045D01*
X139478333Y-111488942D01*
X139561548Y-111524427D01*
X139648557Y-111575353D01*
X139704675Y-111614964D01*
X139735161Y-111637109D01*
X139761492Y-111654857D01*
X139780433Y-111666108D01*
X139788009Y-111669026D01*
X139798989Y-111663994D01*
X139819314Y-111650595D01*
X139845566Y-111631174D01*
X139861666Y-111618475D01*
X139919119Y-111577485D01*
X139984644Y-111539536D01*
X140052457Y-111507580D01*
X140116770Y-111484569D01*
X140132500Y-111480342D01*
X140181682Y-111471796D01*
X140241935Y-111466837D01*
X140308052Y-111465464D01*
X140374826Y-111467678D01*
G37*
G36*
X146261791Y-111332882D02*
G01*
X146298328Y-111333698D01*
X146325332Y-111335288D01*
X146345183Y-111337797D01*
X146360256Y-111341370D01*
X146372929Y-111346150D01*
X146373861Y-111346567D01*
X146409698Y-111366188D01*
X146434818Y-111389738D01*
X146454220Y-111420918D01*
X146469456Y-111467309D01*
X146469345Y-111513477D01*
X146455038Y-111556827D01*
X146427684Y-111594761D01*
X146388435Y-111624685D01*
X146357867Y-111638343D01*
X146326412Y-111649232D01*
X146393070Y-111732116D01*
X146426867Y-111772540D01*
X146465490Y-111816246D01*
X146503466Y-111857147D01*
X146527364Y-111881471D01*
X146554253Y-111908431D01*
X146576076Y-111931330D01*
X146590437Y-111947582D01*
X146595000Y-111954387D01*
X146587336Y-111957414D01*
X146567017Y-111959655D01*
X146538047Y-111960716D01*
X146530416Y-111960751D01*
X146489070Y-111959142D01*
X146457150Y-111953570D01*
X146427628Y-111942739D01*
X146424166Y-111941144D01*
X146407536Y-111932536D01*
X146391333Y-111921903D01*
X146373799Y-111907521D01*
X146353177Y-111887671D01*
X146327709Y-111860629D01*
X146295637Y-111824674D01*
X146255203Y-111778084D01*
X146241947Y-111762669D01*
X146206315Y-111722825D01*
X146178855Y-111696065D01*
X146158517Y-111681589D01*
X146144251Y-111678598D01*
X146137305Y-111682922D01*
X146135411Y-111693473D01*
X146134492Y-111717329D01*
X146134585Y-111751152D01*
X146135724Y-111791606D01*
X146136060Y-111799747D01*
X146138242Y-111844984D01*
X146140583Y-111876777D01*
X146143696Y-111898346D01*
X146148192Y-111912907D01*
X146154685Y-111923679D01*
X146161035Y-111930997D01*
X146181238Y-111952500D01*
X146067566Y-111952500D01*
X145953895Y-111952500D01*
X145972364Y-111921250D01*
X145977648Y-111911766D01*
X145981814Y-111901902D01*
X145984996Y-111889661D01*
X145987326Y-111873042D01*
X145988936Y-111850048D01*
X145989959Y-111818680D01*
X145990528Y-111776940D01*
X145990775Y-111722828D01*
X145990832Y-111654345D01*
X145990833Y-111642781D01*
X145990807Y-111572152D01*
X145990635Y-111516233D01*
X145990628Y-111515606D01*
X146128333Y-111515606D01*
X146128525Y-111564995D01*
X146129284Y-111600298D01*
X146130887Y-111624089D01*
X146133609Y-111638948D01*
X146137727Y-111647449D01*
X146142916Y-111651832D01*
X146169402Y-111659863D01*
X146202138Y-111655707D01*
X146243289Y-111639072D01*
X146245589Y-111637916D01*
X146286974Y-111609425D01*
X146313642Y-111573151D01*
X146325805Y-111528721D01*
X146326080Y-111495904D01*
X146315438Y-111448423D01*
X146292038Y-111411396D01*
X146256750Y-111385682D01*
X146210443Y-111372140D01*
X146199524Y-111370933D01*
X146174280Y-111369274D01*
X146155844Y-111370557D01*
X146143146Y-111376956D01*
X146135116Y-111390645D01*
X146130685Y-111413797D01*
X146128784Y-111448587D01*
X146128341Y-111497189D01*
X146128333Y-111515606D01*
X145990628Y-111515606D01*
X145990178Y-111473068D01*
X145989297Y-111440700D01*
X145987853Y-111417173D01*
X145985705Y-111400531D01*
X145982716Y-111388817D01*
X145978745Y-111380075D01*
X145973653Y-111372348D01*
X145971349Y-111369209D01*
X145959996Y-111351578D01*
X145955670Y-111340058D01*
X145956130Y-111338591D01*
X145965333Y-111337315D01*
X145988798Y-111336074D01*
X146024118Y-111334939D01*
X146068888Y-111333977D01*
X146120703Y-111333258D01*
X146150614Y-111332996D01*
X146213345Y-111332697D01*
X146261791Y-111332882D01*
G37*
G36*
X139492331Y-111950303D02*
G01*
X139514878Y-111975548D01*
X139544442Y-112009183D01*
X139577254Y-112046895D01*
X139609543Y-112084370D01*
X139610795Y-112085833D01*
X139685715Y-112173333D01*
X139603679Y-112177500D01*
X139521644Y-112181666D01*
X139579992Y-112248333D01*
X139610275Y-112282968D01*
X139642153Y-112319485D01*
X139670523Y-112352034D01*
X139681091Y-112364182D01*
X139723842Y-112413365D01*
X139665671Y-112407888D01*
X139627283Y-112405366D01*
X139603957Y-112407174D01*
X139594429Y-112414285D01*
X139597438Y-112427668D01*
X139611720Y-112448296D01*
X139612257Y-112448971D01*
X139647278Y-112500613D01*
X139672511Y-112557241D01*
X139683168Y-112591829D01*
X139686318Y-112611840D01*
X139689045Y-112645798D01*
X139691350Y-112691703D01*
X139693235Y-112747557D01*
X139694702Y-112811361D01*
X139695750Y-112881115D01*
X139696383Y-112954822D01*
X139696601Y-113030482D01*
X139696406Y-113106097D01*
X139695799Y-113179666D01*
X139694782Y-113249193D01*
X139693356Y-113312677D01*
X139691522Y-113368121D01*
X139689282Y-113413524D01*
X139686637Y-113446889D01*
X139683589Y-113466216D01*
X139682553Y-113469064D01*
X139673341Y-113484315D01*
X139656972Y-113508999D01*
X139635442Y-113540322D01*
X139610749Y-113575495D01*
X139584890Y-113611725D01*
X139559861Y-113646222D01*
X139537659Y-113676195D01*
X139520283Y-113698852D01*
X139509727Y-113711402D01*
X139508175Y-113712789D01*
X139496852Y-113715416D01*
X139474541Y-113717358D01*
X139445686Y-113718566D01*
X139414732Y-113718991D01*
X139386122Y-113718585D01*
X139364301Y-113717298D01*
X139353713Y-113715084D01*
X139353333Y-113714479D01*
X139358129Y-113706635D01*
X139371429Y-113687800D01*
X139391599Y-113660212D01*
X139417007Y-113626109D01*
X139440833Y-113594552D01*
X139469347Y-113556721D01*
X139493972Y-113523517D01*
X139513076Y-113497187D01*
X139525023Y-113479979D01*
X139528333Y-113474240D01*
X139520537Y-113472281D01*
X139499295Y-113470674D01*
X139467829Y-113469581D01*
X139429359Y-113469166D01*
X139428333Y-113469166D01*
X139382807Y-113468659D01*
X139352066Y-113467011D01*
X139334254Y-113464030D01*
X139327517Y-113459525D01*
X139327351Y-113458750D01*
X139325059Y-113416899D01*
X139327315Y-113389272D01*
X139331112Y-113379583D01*
X139341166Y-113374652D01*
X139363825Y-113371366D01*
X139400520Y-113369591D01*
X139441361Y-113369166D01*
X139489512Y-113368417D01*
X139524462Y-113366242D01*
X139544893Y-113362753D01*
X139549638Y-113360069D01*
X139551439Y-113348843D01*
X139552841Y-113323062D01*
X139553866Y-113284831D01*
X139554534Y-113236256D01*
X139554865Y-113179443D01*
X139554878Y-113116496D01*
X139554596Y-113049523D01*
X139554036Y-112980628D01*
X139553220Y-112911918D01*
X139552168Y-112845499D01*
X139550901Y-112783475D01*
X139549437Y-112727953D01*
X139547798Y-112681038D01*
X139546004Y-112644837D01*
X139544075Y-112621455D01*
X139542475Y-112613444D01*
X139533983Y-112600063D01*
X139517659Y-112576387D01*
X139495653Y-112545466D01*
X139470115Y-112510352D01*
X139463027Y-112500729D01*
X139393555Y-112406666D01*
X139471051Y-112402500D01*
X139548547Y-112398333D01*
X139446573Y-112285833D01*
X139344599Y-112173333D01*
X139419979Y-112170934D01*
X139495359Y-112168536D01*
X139434762Y-112093916D01*
X139410032Y-112064389D01*
X139388481Y-112040370D01*
X139372545Y-112024462D01*
X139364938Y-112019231D01*
X139354744Y-112025162D01*
X139336281Y-112041313D01*
X139311958Y-112065111D01*
X139284188Y-112093980D01*
X139255382Y-112125348D01*
X139227951Y-112156640D01*
X139204306Y-112185283D01*
X139186858Y-112208702D01*
X139185408Y-112210868D01*
X139164329Y-112244969D01*
X139142876Y-112282976D01*
X139131677Y-112304618D01*
X139118620Y-112329303D01*
X139107660Y-112346591D01*
X139101597Y-112352500D01*
X139099368Y-112344632D01*
X139097462Y-112322888D01*
X139096014Y-112290060D01*
X139095165Y-112248936D01*
X139095000Y-112219288D01*
X139095000Y-112086077D01*
X139142916Y-112048062D01*
X139179160Y-112022773D01*
X139226051Y-111994985D01*
X139278387Y-111967356D01*
X139330966Y-111942541D01*
X139378587Y-111923198D01*
X139403143Y-111915173D01*
X139448787Y-111902273D01*
X139492331Y-111950303D01*
G37*
G36*
X140151282Y-111908582D02*
G01*
X140179882Y-111916477D01*
X140188596Y-111919093D01*
X140240894Y-111937868D01*
X140296889Y-111962943D01*
X140351402Y-111991625D01*
X140399255Y-112021224D01*
X140430416Y-112044742D01*
X140470000Y-112078796D01*
X140470000Y-112207315D01*
X140469584Y-112251462D01*
X140468439Y-112289065D01*
X140466713Y-112317283D01*
X140464557Y-112333276D01*
X140463210Y-112335833D01*
X140455759Y-112329011D01*
X140445301Y-112311938D01*
X140441628Y-112304583D01*
X140415334Y-112256832D01*
X140379980Y-112203628D01*
X140339360Y-112150123D01*
X140297272Y-112101469D01*
X140275845Y-112079583D01*
X140249176Y-112054516D01*
X140226429Y-112034527D01*
X140210496Y-112022079D01*
X140204861Y-112019166D01*
X140196580Y-112025351D01*
X140180565Y-112042148D01*
X140159199Y-112066921D01*
X140137118Y-112094166D01*
X140077956Y-112169166D01*
X140153145Y-112169166D01*
X140186220Y-112169538D01*
X140211877Y-112170535D01*
X140226404Y-112171978D01*
X140228333Y-112172794D01*
X140223826Y-112180523D01*
X140211381Y-112199507D01*
X140192612Y-112227345D01*
X140169131Y-112261634D01*
X140153333Y-112284477D01*
X140127764Y-112321618D01*
X140105939Y-112353898D01*
X140089477Y-112378876D01*
X140079997Y-112394113D01*
X140078333Y-112397564D01*
X140085997Y-112399245D01*
X140106454Y-112399411D01*
X140135903Y-112398082D01*
X140149166Y-112397152D01*
X140181112Y-112395368D01*
X140205571Y-112395279D01*
X140218742Y-112396845D01*
X140220000Y-112397912D01*
X140214569Y-112405690D01*
X140199477Y-112423539D01*
X140176522Y-112449430D01*
X140147502Y-112481332D01*
X140115746Y-112515580D01*
X140011492Y-112627045D01*
X140013663Y-112996022D01*
X140015833Y-113365000D01*
X140119470Y-113367352D01*
X140161935Y-113369009D01*
X140197423Y-113371724D01*
X140222641Y-113375169D01*
X140234053Y-113378789D01*
X140242200Y-113394542D01*
X140244685Y-113418632D01*
X140241691Y-113443787D01*
X140233401Y-113462736D01*
X140231904Y-113464404D01*
X140221816Y-113470647D01*
X140204517Y-113474646D01*
X140176966Y-113476796D01*
X140136123Y-113477494D01*
X140131210Y-113477500D01*
X140095628Y-113478052D01*
X140067546Y-113479546D01*
X140050258Y-113481737D01*
X140046388Y-113483776D01*
X140052101Y-113492202D01*
X140066177Y-113511592D01*
X140086907Y-113539631D01*
X140112582Y-113574005D01*
X140134583Y-113603247D01*
X140162692Y-113640808D01*
X140186909Y-113673757D01*
X140205587Y-113699808D01*
X140217081Y-113716673D01*
X140220000Y-113721971D01*
X140212420Y-113724647D01*
X140192643Y-113726379D01*
X140165107Y-113727191D01*
X140134254Y-113727107D01*
X140104524Y-113726153D01*
X140080357Y-113724352D01*
X140066192Y-113721728D01*
X140064973Y-113721122D01*
X140053837Y-113709831D01*
X140035827Y-113687253D01*
X140012885Y-113656246D01*
X139986956Y-113619668D01*
X139959982Y-113580373D01*
X139933906Y-113541221D01*
X139910673Y-113505067D01*
X139892224Y-113474769D01*
X139880504Y-113453183D01*
X139877477Y-113445466D01*
X139875982Y-113430699D01*
X139874649Y-113401330D01*
X139873484Y-113359423D01*
X139872491Y-113307044D01*
X139871675Y-113246257D01*
X139871041Y-113179125D01*
X139870593Y-113107713D01*
X139870337Y-113034086D01*
X139870277Y-112960307D01*
X139870417Y-112888441D01*
X139870764Y-112820553D01*
X139871320Y-112758707D01*
X139872092Y-112704967D01*
X139873084Y-112661398D01*
X139874301Y-112630063D01*
X139875557Y-112614278D01*
X139878730Y-112596850D01*
X139884266Y-112581428D01*
X139894168Y-112565125D01*
X139910437Y-112545053D01*
X139935077Y-112518325D01*
X139960149Y-112492282D01*
X140039184Y-112410833D01*
X139970367Y-112410833D01*
X139936210Y-112410363D01*
X139915944Y-112408603D01*
X139906810Y-112405032D01*
X139906051Y-112399125D01*
X139906216Y-112398672D01*
X139912354Y-112387650D01*
X139926034Y-112365665D01*
X139945446Y-112335551D01*
X139968781Y-112300139D01*
X139977941Y-112286417D01*
X140001759Y-112250578D01*
X140021850Y-112219793D01*
X140036567Y-112196633D01*
X140044259Y-112183671D01*
X140045000Y-112181912D01*
X140037270Y-112180016D01*
X140016494Y-112178528D01*
X139986292Y-112177650D01*
X139965833Y-112177500D01*
X139931814Y-112176992D01*
X139905118Y-112175626D01*
X139889364Y-112173641D01*
X139886666Y-112172297D01*
X139891887Y-112163682D01*
X139906200Y-112145006D01*
X139927583Y-112118626D01*
X139954012Y-112086901D01*
X139983465Y-112052187D01*
X140013918Y-112016842D01*
X140043348Y-111983224D01*
X140069732Y-111953690D01*
X140091046Y-111930598D01*
X140105269Y-111916305D01*
X140108932Y-111913295D01*
X140120297Y-111907318D01*
X140132917Y-111905638D01*
X140151282Y-111908582D01*
G37*
G36*
X142978714Y-112353379D02*
G01*
X143069197Y-112364979D01*
X143160863Y-112388506D01*
X143201803Y-112402990D01*
X143250606Y-112419463D01*
X143288172Y-112426428D01*
X143316879Y-112423993D01*
X143339103Y-112412264D01*
X143342489Y-112409277D01*
X143359991Y-112397445D01*
X143370098Y-112399265D01*
X143373232Y-112409810D01*
X143376918Y-112433759D01*
X143380874Y-112467867D01*
X143384818Y-112508893D01*
X143388468Y-112553594D01*
X143391540Y-112598726D01*
X143393753Y-112641047D01*
X143394823Y-112677314D01*
X143394876Y-112683750D01*
X143393888Y-112706142D01*
X143389140Y-112716386D01*
X143378273Y-112718942D01*
X143376250Y-112718942D01*
X143364760Y-112715730D01*
X143353934Y-112704408D01*
X143341457Y-112681998D01*
X143332527Y-112662692D01*
X143296643Y-112601810D01*
X143247006Y-112546947D01*
X143185962Y-112499825D01*
X143115862Y-112462166D01*
X143039054Y-112435691D01*
X143015476Y-112430273D01*
X142981335Y-112424031D01*
X142956091Y-112422047D01*
X142932523Y-112424357D01*
X142904168Y-112430798D01*
X142841913Y-112453749D01*
X142791922Y-112487303D01*
X142754770Y-112530926D01*
X142731029Y-112584081D01*
X142728156Y-112594905D01*
X142722339Y-112652354D01*
X142732693Y-112706841D01*
X142758812Y-112757122D01*
X142794097Y-112796526D01*
X142818894Y-112816754D01*
X142847577Y-112835412D01*
X142882851Y-112853848D01*
X142927422Y-112873408D01*
X142983996Y-112895440D01*
X143017396Y-112907719D01*
X143102798Y-112939928D01*
X143174445Y-112969953D01*
X143234865Y-112999165D01*
X143286585Y-113028934D01*
X143332133Y-113060633D01*
X143374037Y-113095630D01*
X143388215Y-113108822D01*
X143436666Y-113155037D01*
X143436666Y-113084614D01*
X143743265Y-113084614D01*
X143745773Y-113154553D01*
X143753763Y-113236029D01*
X143767340Y-113307261D01*
X143787974Y-113374154D01*
X143817136Y-113442614D01*
X143817856Y-113444123D01*
X143861341Y-113519089D01*
X143913804Y-113582212D01*
X143973860Y-113632603D01*
X144040127Y-113669374D01*
X144111220Y-113691635D01*
X144185755Y-113698496D01*
X144211629Y-113697163D01*
X144249312Y-113691680D01*
X144288445Y-113682663D01*
X144310297Y-113675737D01*
X144383940Y-113639534D01*
X144448488Y-113589748D01*
X144503608Y-113526969D01*
X144548972Y-113451791D01*
X144584247Y-113364805D01*
X144609105Y-113266603D01*
X144623213Y-113157776D01*
X144625793Y-113110833D01*
X144627177Y-113056466D01*
X144626814Y-113013647D01*
X144624393Y-112977316D01*
X144619605Y-112942417D01*
X144613509Y-112910422D01*
X144586286Y-112809386D01*
X144549126Y-112720005D01*
X144502472Y-112642937D01*
X144446766Y-112578838D01*
X144382451Y-112528365D01*
X144340122Y-112504992D01*
X144303143Y-112488590D01*
X144272484Y-112478690D01*
X144240242Y-112473315D01*
X144203017Y-112470698D01*
X144128686Y-112472775D01*
X144061251Y-112487391D01*
X143995418Y-112515720D01*
X143992423Y-112517328D01*
X143957930Y-112540971D01*
X143919727Y-112575177D01*
X143881778Y-112615716D01*
X143848046Y-112658356D01*
X143822585Y-112698691D01*
X143787814Y-112779702D01*
X143762770Y-112872412D01*
X143747804Y-112974743D01*
X143743265Y-113084614D01*
X143436666Y-113084614D01*
X143436666Y-113063034D01*
X143444650Y-112960116D01*
X143468006Y-112861620D01*
X143505842Y-112769032D01*
X143557266Y-112683842D01*
X143621384Y-112607538D01*
X143697305Y-112541608D01*
X143780687Y-112489340D01*
X143870692Y-112448935D01*
X143967444Y-112417876D01*
X144067116Y-112396840D01*
X144165883Y-112386505D01*
X144259916Y-112387546D01*
X144316386Y-112394591D01*
X144421124Y-112420939D01*
X144518824Y-112461127D01*
X144608105Y-112514149D01*
X144687587Y-112578996D01*
X144755889Y-112654665D01*
X144811632Y-112740147D01*
X144824457Y-112765000D01*
X144851248Y-112824477D01*
X144869981Y-112878741D01*
X144881817Y-112933156D01*
X144887918Y-112993085D01*
X144889447Y-113063891D01*
X144889441Y-113065000D01*
X144888657Y-113114622D01*
X144886470Y-113152942D01*
X144882209Y-113185308D01*
X144875201Y-113217068D01*
X144866482Y-113247922D01*
X144827301Y-113352113D01*
X144775698Y-113445230D01*
X144711879Y-113527079D01*
X144636048Y-113597463D01*
X144548412Y-113656188D01*
X144449174Y-113703058D01*
X144356431Y-113733277D01*
X144320603Y-113742286D01*
X144289104Y-113748483D01*
X144257186Y-113752374D01*
X144220106Y-113754463D01*
X144173117Y-113755255D01*
X144149166Y-113755323D01*
X144098217Y-113755049D01*
X144059552Y-113753852D01*
X144028794Y-113751237D01*
X144001564Y-113746708D01*
X143973485Y-113739768D01*
X143949166Y-113732661D01*
X143844867Y-113694468D01*
X143751755Y-113646720D01*
X143670745Y-113590123D01*
X143602752Y-113525383D01*
X143548691Y-113453206D01*
X143521420Y-113402562D01*
X143500261Y-113356791D01*
X143490097Y-113417115D01*
X143468526Y-113497262D01*
X143432655Y-113569731D01*
X143383465Y-113633497D01*
X143321938Y-113687534D01*
X143249055Y-113730817D01*
X143165797Y-113762321D01*
X143157500Y-113764633D01*
X143116586Y-113772598D01*
X143064052Y-113778309D01*
X143004808Y-113781641D01*
X142943764Y-113782470D01*
X142885829Y-113780671D01*
X142835915Y-113776121D01*
X142817832Y-113773229D01*
X142727454Y-113751380D01*
X142643234Y-113720387D01*
X142587655Y-113693933D01*
X142549580Y-113673883D01*
X142523581Y-113658703D01*
X142506626Y-113646219D01*
X142495684Y-113634263D01*
X142489075Y-113623333D01*
X142485624Y-113609349D01*
X142481969Y-113582138D01*
X142478467Y-113545130D01*
X142475473Y-113501755D01*
X142474461Y-113482624D01*
X142472346Y-113432645D01*
X142471634Y-113396942D01*
X142472419Y-113373175D01*
X142474793Y-113359005D01*
X142478848Y-113352092D01*
X142479663Y-113351501D01*
X142492546Y-113345521D01*
X142502255Y-113348872D01*
X142511972Y-113363963D01*
X142520211Y-113382159D01*
X142564204Y-113464848D01*
X142620867Y-113539040D01*
X142688233Y-113602894D01*
X142764334Y-113654564D01*
X142847204Y-113692208D01*
X142853333Y-113694312D01*
X142909561Y-113707050D01*
X142971750Y-113710960D01*
X143033954Y-113706268D01*
X143090229Y-113693200D01*
X143112387Y-113684484D01*
X143167765Y-113650978D01*
X143210321Y-113608874D01*
X143240004Y-113560282D01*
X143256764Y-113507309D01*
X143260551Y-113452065D01*
X143251316Y-113396658D01*
X143229008Y-113343197D01*
X143193578Y-113293790D01*
X143144976Y-113250547D01*
X143122996Y-113236141D01*
X143096476Y-113221802D01*
X143058803Y-113203523D01*
X143014379Y-113183343D01*
X142967606Y-113163303D01*
X142952162Y-113156970D01*
X142858036Y-113117500D01*
X142778512Y-113080939D01*
X142712011Y-113046196D01*
X142656955Y-113012178D01*
X142611768Y-112977794D01*
X142574870Y-112941951D01*
X142544685Y-112903557D01*
X142519635Y-112861520D01*
X142516539Y-112855462D01*
X142494869Y-112795023D01*
X142485924Y-112728306D01*
X142489726Y-112659823D01*
X142506295Y-112594085D01*
X142515199Y-112572376D01*
X142551818Y-112511738D01*
X142601016Y-112460215D01*
X142661165Y-112418208D01*
X142730638Y-112386119D01*
X142807806Y-112364350D01*
X142891040Y-112353303D01*
X142978714Y-112353379D01*
G37*
G36*
X156989830Y-112380670D02*
G01*
X156996826Y-112384349D01*
X157004621Y-112393090D01*
X157014080Y-112408634D01*
X157026069Y-112432722D01*
X157041452Y-112467093D01*
X157061093Y-112513488D01*
X157085857Y-112573648D01*
X157086510Y-112575246D01*
X157134648Y-112692411D01*
X157182613Y-112807718D01*
X157229866Y-112919946D01*
X157275867Y-113027877D01*
X157320079Y-113130290D01*
X157361962Y-113225965D01*
X157400977Y-113313683D01*
X157436587Y-113392224D01*
X157468251Y-113460369D01*
X157495432Y-113516897D01*
X157517590Y-113560589D01*
X157534188Y-113590226D01*
X157536339Y-113593657D01*
X157563643Y-113631612D01*
X157591772Y-113662761D01*
X157617687Y-113684004D01*
X157631908Y-113691035D01*
X157653716Y-113704344D01*
X157661539Y-113725416D01*
X157658018Y-113728511D01*
X157646429Y-113730973D01*
X157625361Y-113732859D01*
X157593401Y-113734230D01*
X157549135Y-113735143D01*
X157491152Y-113735657D01*
X157418039Y-113735832D01*
X157410972Y-113735833D01*
X157345756Y-113735597D01*
X157287716Y-113734926D01*
X157238657Y-113733872D01*
X157200383Y-113732491D01*
X157174700Y-113730835D01*
X157163411Y-113728959D01*
X157163055Y-113728445D01*
X157170786Y-113719691D01*
X157187791Y-113704900D01*
X157203333Y-113692674D01*
X157219290Y-113680006D01*
X157231281Y-113667823D01*
X157239040Y-113654323D01*
X157242299Y-113637707D01*
X157240792Y-113616173D01*
X157234253Y-113587920D01*
X157222415Y-113551146D01*
X157205011Y-113504051D01*
X157181776Y-113444834D01*
X157157813Y-113385042D01*
X157134457Y-113327624D01*
X157112447Y-113274749D01*
X157092713Y-113228554D01*
X157076185Y-113191177D01*
X157063792Y-113164756D01*
X157056465Y-113151427D01*
X157055939Y-113150775D01*
X157050615Y-113146069D01*
X157042883Y-113142484D01*
X157030695Y-113139900D01*
X157012005Y-113138198D01*
X156984765Y-113137257D01*
X156946928Y-113136957D01*
X156896446Y-113137180D01*
X156833924Y-113137776D01*
X156625686Y-113140000D01*
X156585643Y-113227500D01*
X156545432Y-113322492D01*
X156515765Y-113408448D01*
X156496815Y-113484619D01*
X156488757Y-113550256D01*
X156491763Y-113604611D01*
X156494926Y-113618893D01*
X156511663Y-113656112D01*
X156536487Y-113687614D01*
X156568039Y-113719166D01*
X156370955Y-113719166D01*
X156173872Y-113719166D01*
X155737191Y-113190000D01*
X155670019Y-113108707D01*
X155605828Y-113031225D01*
X155545414Y-112958506D01*
X155489576Y-112891499D01*
X155439111Y-112831155D01*
X155394816Y-112778425D01*
X155357490Y-112734258D01*
X155327929Y-112699606D01*
X155306931Y-112675420D01*
X155295293Y-112662648D01*
X155293188Y-112660833D01*
X155291797Y-112668936D01*
X155290595Y-112692330D01*
X155289596Y-112729637D01*
X155288816Y-112779482D01*
X155288269Y-112840490D01*
X155287969Y-112911283D01*
X155287932Y-112990487D01*
X155288172Y-113076724D01*
X155288350Y-113113155D01*
X155290833Y-113565477D01*
X155311943Y-113606905D01*
X155330620Y-113636368D01*
X155356223Y-113662059D01*
X155385616Y-113683750D01*
X155438178Y-113719166D01*
X155249922Y-113719166D01*
X155195918Y-113719012D01*
X155147965Y-113718581D01*
X155108411Y-113717917D01*
X155079601Y-113717067D01*
X155063885Y-113716076D01*
X155061666Y-113715517D01*
X155067846Y-113709056D01*
X155083746Y-113696312D01*
X155098254Y-113685593D01*
X155126365Y-113659947D01*
X155151856Y-113627517D01*
X155158651Y-113616325D01*
X155182460Y-113573333D01*
X155189252Y-113077500D01*
X155190662Y-112969866D01*
X155191713Y-112877688D01*
X155192396Y-112799760D01*
X155192702Y-112734875D01*
X155192621Y-112681826D01*
X155192143Y-112639407D01*
X155191260Y-112606411D01*
X155189962Y-112581631D01*
X155188238Y-112563860D01*
X155186081Y-112551893D01*
X155185105Y-112548494D01*
X155176591Y-112529479D01*
X155162629Y-112511699D01*
X155140061Y-112491811D01*
X155111666Y-112470685D01*
X155083910Y-112450286D01*
X155061828Y-112432972D01*
X155048637Y-112421317D01*
X155046388Y-112418440D01*
X155053463Y-112416019D01*
X155075303Y-112413966D01*
X155110009Y-112412363D01*
X155155681Y-112411294D01*
X155210422Y-112410842D01*
X155220103Y-112410833D01*
X155280919Y-112411017D01*
X155327347Y-112411672D01*
X155361661Y-112412952D01*
X155386135Y-112415011D01*
X155403044Y-112418003D01*
X155414663Y-112422082D01*
X155418714Y-112424278D01*
X155427595Y-112432807D01*
X155446163Y-112453142D01*
X155473514Y-112484223D01*
X155508743Y-112524988D01*
X155550947Y-112574374D01*
X155599220Y-112631320D01*
X155652659Y-112694765D01*
X155710358Y-112763646D01*
X155771415Y-112836902D01*
X155820000Y-112895443D01*
X156199166Y-113353163D01*
X156205645Y-113209081D01*
X156207619Y-113153711D01*
X156208989Y-113090725D01*
X156209786Y-113022324D01*
X156210040Y-112950708D01*
X156209783Y-112878079D01*
X156209044Y-112806637D01*
X156207856Y-112738583D01*
X156206247Y-112676119D01*
X156204250Y-112621444D01*
X156201894Y-112576760D01*
X156199210Y-112544268D01*
X156196229Y-112526169D01*
X156196128Y-112525849D01*
X156185683Y-112501425D01*
X156169569Y-112471691D01*
X156157791Y-112452933D01*
X156129460Y-112410833D01*
X156276421Y-112410833D01*
X156423382Y-112410833D01*
X156392935Y-112442083D01*
X156357891Y-112488783D01*
X156333679Y-112546358D01*
X156320781Y-112607552D01*
X156316981Y-112643503D01*
X156313270Y-112693702D01*
X156309726Y-112755731D01*
X156306425Y-112827171D01*
X156303445Y-112905603D01*
X156300862Y-112988610D01*
X156298754Y-113073774D01*
X156297197Y-113158674D01*
X156296269Y-113240893D01*
X156296045Y-113318013D01*
X156296414Y-113373333D01*
X156299166Y-113606666D01*
X156329218Y-113560833D01*
X156337599Y-113545671D01*
X156352130Y-113516627D01*
X156372186Y-113475046D01*
X156397143Y-113422273D01*
X156426374Y-113359653D01*
X156459254Y-113288530D01*
X156495159Y-113210250D01*
X156533461Y-113126157D01*
X156563022Y-113060833D01*
X156671673Y-113060833D01*
X156845836Y-113060833D01*
X156913006Y-113060418D01*
X156964010Y-113059179D01*
X156998712Y-113057123D01*
X157016982Y-113054255D01*
X157020000Y-113052138D01*
X157016920Y-113042337D01*
X157008384Y-113019743D01*
X156995444Y-112986906D01*
X156979154Y-112946377D01*
X156960565Y-112900705D01*
X156940731Y-112852440D01*
X156920704Y-112804133D01*
X156901538Y-112758333D01*
X156884285Y-112717591D01*
X156869998Y-112684456D01*
X156859731Y-112661479D01*
X156854535Y-112651210D01*
X156854395Y-112651039D01*
X156849897Y-112656874D01*
X156839845Y-112676172D01*
X156825124Y-112707024D01*
X156806623Y-112747522D01*
X156785230Y-112795758D01*
X156761831Y-112849822D01*
X156760420Y-112853123D01*
X156671673Y-113060833D01*
X156563022Y-113060833D01*
X156573537Y-113037596D01*
X156603547Y-112970911D01*
X156643935Y-112881059D01*
X156682487Y-112795502D01*
X156718636Y-112715479D01*
X156751819Y-112642232D01*
X156781471Y-112577000D01*
X156807027Y-112521024D01*
X156827921Y-112475545D01*
X156843591Y-112441803D01*
X156853470Y-112421038D01*
X156856828Y-112414598D01*
X156870456Y-112405469D01*
X156895154Y-112396007D01*
X156925418Y-112387616D01*
X156955742Y-112381701D01*
X156980622Y-112379667D01*
X156989830Y-112380670D01*
G37*
G36*
X139162050Y-112607675D02*
G01*
X139163514Y-112619719D01*
X139164774Y-112646470D01*
X139165833Y-112686229D01*
X139166698Y-112737297D01*
X139167372Y-112797976D01*
X139167862Y-112866568D01*
X139168171Y-112941373D01*
X139168305Y-113020695D01*
X139168268Y-113102833D01*
X139168066Y-113186090D01*
X139167703Y-113268767D01*
X139167184Y-113349166D01*
X139166515Y-113425588D01*
X139165700Y-113496335D01*
X139164743Y-113559708D01*
X139163651Y-113614009D01*
X139162427Y-113657540D01*
X139161077Y-113688601D01*
X139159606Y-113705494D01*
X139158872Y-113708059D01*
X139145393Y-113712799D01*
X139122483Y-113714090D01*
X139096531Y-113712377D01*
X139073929Y-113708107D01*
X139061065Y-113701726D01*
X139060687Y-113701201D01*
X139059391Y-113691028D01*
X139058167Y-113665697D01*
X139057037Y-113626715D01*
X139056023Y-113575588D01*
X139055147Y-113513826D01*
X139054430Y-113442934D01*
X139053896Y-113364422D01*
X139053565Y-113279796D01*
X139053460Y-113204876D01*
X139053409Y-113102550D01*
X139053286Y-113015621D01*
X139053055Y-112942817D01*
X139052677Y-112882867D01*
X139052114Y-112834502D01*
X139051328Y-112796450D01*
X139050282Y-112767442D01*
X139048937Y-112746206D01*
X139047255Y-112731471D01*
X139045198Y-112721968D01*
X139042729Y-112716425D01*
X139039808Y-112713572D01*
X139038750Y-112713009D01*
X139025249Y-112710592D01*
X138998969Y-112708808D01*
X138963477Y-112707649D01*
X138922340Y-112707102D01*
X138879125Y-112707157D01*
X138837398Y-112707803D01*
X138800728Y-112709030D01*
X138772680Y-112710827D01*
X138756823Y-112713182D01*
X138755170Y-112713864D01*
X138752901Y-112719050D01*
X138750967Y-112732256D01*
X138749346Y-112754490D01*
X138748018Y-112786757D01*
X138746961Y-112830063D01*
X138746155Y-112885413D01*
X138745578Y-112953813D01*
X138745209Y-113036269D01*
X138745027Y-113133787D01*
X138745000Y-113199372D01*
X138744845Y-113316178D01*
X138744386Y-113417745D01*
X138743624Y-113503857D01*
X138742564Y-113574298D01*
X138741210Y-113628850D01*
X138739566Y-113667297D01*
X138737634Y-113689424D01*
X138736373Y-113694714D01*
X138724332Y-113706288D01*
X138702062Y-113710662D01*
X138694158Y-113710833D01*
X138676807Y-113711026D01*
X138662798Y-113710537D01*
X138651774Y-113707759D01*
X138643380Y-113701088D01*
X138637259Y-113688920D01*
X138633055Y-113669650D01*
X138630412Y-113641672D01*
X138628975Y-113603382D01*
X138628387Y-113553175D01*
X138628291Y-113489446D01*
X138628333Y-113414158D01*
X138628069Y-113331051D01*
X138627293Y-113260315D01*
X138626031Y-113202816D01*
X138624309Y-113159421D01*
X138622151Y-113130995D01*
X138619706Y-113118618D01*
X138605203Y-113107430D01*
X138580299Y-113102362D01*
X138550267Y-113103867D01*
X138525025Y-113110506D01*
X138503966Y-113118513D01*
X138501566Y-113402852D01*
X138500879Y-113479325D01*
X138500174Y-113540845D01*
X138499343Y-113589128D01*
X138498279Y-113625886D01*
X138496874Y-113652835D01*
X138495020Y-113671688D01*
X138492610Y-113684161D01*
X138489537Y-113691966D01*
X138485693Y-113696819D01*
X138482990Y-113699012D01*
X138458971Y-113709097D01*
X138433181Y-113709157D01*
X138412773Y-113699384D01*
X138410603Y-113697065D01*
X138407331Y-113689821D01*
X138404573Y-113675664D01*
X138402252Y-113653116D01*
X138400290Y-113620700D01*
X138398609Y-113576940D01*
X138397133Y-113520358D01*
X138395785Y-113449479D01*
X138395000Y-113399148D01*
X138390833Y-113115000D01*
X138334278Y-113115000D01*
X138299957Y-113116272D01*
X138279298Y-113120455D01*
X138269822Y-113127500D01*
X138267786Y-113138909D01*
X138265968Y-113165237D01*
X138264417Y-113204736D01*
X138263182Y-113255657D01*
X138262311Y-113316254D01*
X138261852Y-113384778D01*
X138261794Y-113416062D01*
X138261605Y-113495978D01*
X138261086Y-113560562D01*
X138260189Y-113611146D01*
X138258864Y-113649063D01*
X138257061Y-113675646D01*
X138254732Y-113692226D01*
X138251826Y-113700137D01*
X138251250Y-113700733D01*
X138232782Y-113709554D01*
X138207571Y-113714700D01*
X138183448Y-113715152D01*
X138170000Y-113711320D01*
X138166575Y-113706974D01*
X138163731Y-113697793D01*
X138161380Y-113682194D01*
X138159433Y-113658593D01*
X138157802Y-113625408D01*
X138156398Y-113581055D01*
X138155132Y-113523952D01*
X138153917Y-113452516D01*
X138153333Y-113413227D01*
X138149166Y-113123333D01*
X138094228Y-113120899D01*
X138058301Y-113120907D01*
X138036840Y-113124968D01*
X138030069Y-113129574D01*
X138027083Y-113141168D01*
X138024512Y-113168390D01*
X138022348Y-113211453D01*
X138020581Y-113270573D01*
X138019203Y-113345961D01*
X138018341Y-113421903D01*
X138017646Y-113500056D01*
X138016910Y-113563153D01*
X138015848Y-113612803D01*
X138014175Y-113650614D01*
X138011608Y-113678195D01*
X138007862Y-113697155D01*
X138002653Y-113709102D01*
X137995696Y-113715646D01*
X137986706Y-113718394D01*
X137975400Y-113718957D01*
X137965833Y-113718911D01*
X137952905Y-113718933D01*
X137942418Y-113717943D01*
X137934090Y-113714356D01*
X137927641Y-113706585D01*
X137922790Y-113693046D01*
X137919255Y-113672154D01*
X137916757Y-113642321D01*
X137915013Y-113601965D01*
X137913743Y-113549498D01*
X137912667Y-113483335D01*
X137911666Y-113413228D01*
X137907500Y-113123333D01*
X137853547Y-113120803D01*
X137822264Y-113120262D01*
X137803181Y-113122812D01*
X137791987Y-113129256D01*
X137788964Y-113132813D01*
X137785848Y-113141180D01*
X137783346Y-113157798D01*
X137781405Y-113184055D01*
X137779973Y-113221339D01*
X137778998Y-113271038D01*
X137778427Y-113334538D01*
X137778208Y-113413228D01*
X137778205Y-113418676D01*
X137777937Y-113488184D01*
X137777235Y-113551075D01*
X137776151Y-113605499D01*
X137774737Y-113649604D01*
X137773044Y-113681540D01*
X137771126Y-113699456D01*
X137770244Y-113702388D01*
X137755296Y-113711370D01*
X137725655Y-113715441D01*
X137720372Y-113715599D01*
X137678333Y-113716421D01*
X137678333Y-113352054D01*
X137678333Y-112987688D01*
X137707383Y-112982238D01*
X137739196Y-112981092D01*
X137759909Y-112992146D01*
X137770348Y-113015955D01*
X137771581Y-113025441D01*
X137774166Y-113056666D01*
X137830003Y-113056666D01*
X137861847Y-113055195D01*
X137885628Y-113051258D01*
X137895814Y-113046688D01*
X137901814Y-113033544D01*
X137907391Y-113009386D01*
X137910811Y-112984188D01*
X137915833Y-112931666D01*
X137953031Y-112929017D01*
X137981965Y-112930255D01*
X138000001Y-112940532D01*
X138009209Y-112962196D01*
X138011666Y-112995466D01*
X138014377Y-113023771D01*
X138024441Y-113041127D01*
X138044757Y-113049908D01*
X138078224Y-113052490D01*
X138081270Y-113052500D01*
X138109058Y-113052020D01*
X138127303Y-113048652D01*
X138138013Y-113039497D01*
X138143195Y-113021659D01*
X138144856Y-112992242D01*
X138145000Y-112960536D01*
X138145963Y-112916036D01*
X138149789Y-112885575D01*
X138157881Y-112866589D01*
X138171642Y-112856515D01*
X138192475Y-112852789D01*
X138204134Y-112852500D01*
X138223501Y-112854435D01*
X138237102Y-112861836D01*
X138245908Y-112877101D01*
X138250890Y-112902623D01*
X138253019Y-112940797D01*
X138253333Y-112973875D01*
X138253333Y-113052500D01*
X138305416Y-113052372D01*
X138334971Y-113051094D01*
X138358836Y-113047907D01*
X138370000Y-113044358D01*
X138374889Y-113038279D01*
X138378560Y-113025567D01*
X138381252Y-113003955D01*
X138383206Y-112971173D01*
X138384661Y-112924952D01*
X138385183Y-112900866D01*
X138386680Y-112851268D01*
X138388955Y-112809264D01*
X138391804Y-112777466D01*
X138395022Y-112758484D01*
X138396620Y-112754713D01*
X138411494Y-112747237D01*
X138434730Y-112744477D01*
X138458689Y-112746484D01*
X138475731Y-112753312D01*
X138476666Y-112754166D01*
X138480965Y-112765527D01*
X138484015Y-112790370D01*
X138485885Y-112829677D01*
X138486642Y-112884427D01*
X138486666Y-112898333D01*
X138487193Y-112956537D01*
X138488817Y-112999086D01*
X138491607Y-113026962D01*
X138495631Y-113041143D01*
X138496666Y-113042500D01*
X138512071Y-113049097D01*
X138537034Y-113052061D01*
X138564830Y-113051299D01*
X138588731Y-113046717D01*
X138595547Y-113043873D01*
X138600458Y-113040454D01*
X138604258Y-113034787D01*
X138607087Y-113024903D01*
X138609089Y-113008832D01*
X138610405Y-112984605D01*
X138611178Y-112950252D01*
X138611549Y-112903805D01*
X138611662Y-112843293D01*
X138611666Y-112820540D01*
X138611917Y-112748430D01*
X138612706Y-112691767D01*
X138614087Y-112649339D01*
X138616113Y-112619932D01*
X138618839Y-112602334D01*
X138621666Y-112595833D01*
X138629682Y-112592799D01*
X138647806Y-112590373D01*
X138677213Y-112588514D01*
X138719079Y-112587176D01*
X138774578Y-112586318D01*
X138844886Y-112585895D01*
X138892706Y-112585833D01*
X139153745Y-112585833D01*
X139162050Y-112607675D01*
G37*
G36*
X140684421Y-112596132D02*
G01*
X140949166Y-112598333D01*
X140951385Y-112821029D01*
X140952090Y-112887691D01*
X140952826Y-112939628D01*
X140953763Y-112978784D01*
X140955066Y-113007100D01*
X140956903Y-113026519D01*
X140959442Y-113038983D01*
X140962850Y-113046434D01*
X140967293Y-113050814D01*
X140971384Y-113053240D01*
X140990746Y-113058088D01*
X141016948Y-113058328D01*
X141043588Y-113054677D01*
X141064267Y-113047853D01*
X141071503Y-113042019D01*
X141073771Y-113030460D01*
X141075717Y-113005359D01*
X141077193Y-112969837D01*
X141078050Y-112927018D01*
X141078205Y-112901011D01*
X141078528Y-112849595D01*
X141079536Y-112812321D01*
X141081460Y-112786674D01*
X141084532Y-112770135D01*
X141088983Y-112760188D01*
X141091428Y-112757261D01*
X141113052Y-112746184D01*
X141140790Y-112745592D01*
X141162214Y-112752793D01*
X141168208Y-112757121D01*
X141172505Y-112764361D01*
X141175384Y-112777033D01*
X141177124Y-112797657D01*
X141178007Y-112828755D01*
X141178310Y-112872845D01*
X141178333Y-112898031D01*
X141178585Y-112954772D01*
X141179961Y-112996889D01*
X141183392Y-113026427D01*
X141189810Y-113045426D01*
X141200145Y-113055930D01*
X141215328Y-113059981D01*
X141236290Y-113059622D01*
X141251338Y-113058210D01*
X141282797Y-113053773D01*
X141302850Y-113046097D01*
X141314040Y-113031869D01*
X141318909Y-113007774D01*
X141319999Y-112970498D01*
X141320000Y-112968688D01*
X141321028Y-112934378D01*
X141323742Y-112904096D01*
X141327584Y-112883781D01*
X141328127Y-112882209D01*
X141335535Y-112868740D01*
X141347819Y-112862484D01*
X141370532Y-112860843D01*
X141373801Y-112860833D01*
X141391688Y-112861335D01*
X141404182Y-112864556D01*
X141412347Y-112873065D01*
X141417248Y-112889434D01*
X141419948Y-112916232D01*
X141421512Y-112956030D01*
X141422092Y-112977500D01*
X141424166Y-113056666D01*
X141478118Y-113059196D01*
X141513969Y-113058888D01*
X141536488Y-113052299D01*
X141548548Y-113037043D01*
X141553023Y-113010733D01*
X141553333Y-112996740D01*
X141559139Y-112962674D01*
X141574921Y-112939240D01*
X141598223Y-112928213D01*
X141626589Y-112931368D01*
X141637214Y-112936126D01*
X141647068Y-112945019D01*
X141651976Y-112961091D01*
X141653332Y-112988971D01*
X141653333Y-112989697D01*
X141655650Y-113023940D01*
X141664456Y-113045354D01*
X141682535Y-113056418D01*
X141712669Y-113059610D01*
X141731273Y-113059122D01*
X141782277Y-113056666D01*
X141787468Y-113024548D01*
X141793624Y-113001943D01*
X141802270Y-112986735D01*
X141804245Y-112985092D01*
X141829149Y-112977908D01*
X141857073Y-112981676D01*
X141878333Y-112994166D01*
X141882441Y-112998810D01*
X141885811Y-113004789D01*
X141888517Y-113013675D01*
X141890629Y-113027039D01*
X141892220Y-113046454D01*
X141893362Y-113073492D01*
X141894127Y-113109724D01*
X141894587Y-113156724D01*
X141894815Y-113216063D01*
X141894883Y-113289313D01*
X141894872Y-113354583D01*
X141894681Y-113428958D01*
X141894189Y-113498325D01*
X141893433Y-113560873D01*
X141892448Y-113614790D01*
X141891269Y-113658265D01*
X141889935Y-113689486D01*
X141888479Y-113706642D01*
X141887816Y-113709258D01*
X141873586Y-113716550D01*
X141844219Y-113717825D01*
X141840027Y-113717592D01*
X141799166Y-113715000D01*
X141796970Y-113432384D01*
X141796024Y-113343417D01*
X141794691Y-113270822D01*
X141792957Y-113214309D01*
X141790814Y-113173586D01*
X141788248Y-113148364D01*
X141785533Y-113138634D01*
X141772451Y-113132610D01*
X141748761Y-113128712D01*
X141720423Y-113127267D01*
X141693400Y-113128602D01*
X141674848Y-113132558D01*
X141671243Y-113135468D01*
X141668353Y-113142240D01*
X141666099Y-113154519D01*
X141664405Y-113173954D01*
X141663196Y-113202193D01*
X141662394Y-113240883D01*
X141661924Y-113291673D01*
X141661707Y-113356210D01*
X141661666Y-113416439D01*
X141661401Y-113499429D01*
X141660624Y-113570061D01*
X141659360Y-113627466D01*
X141657635Y-113670774D01*
X141655473Y-113699114D01*
X141653040Y-113711381D01*
X141642182Y-113722361D01*
X141622176Y-113727015D01*
X141607698Y-113727500D01*
X141584152Y-113725646D01*
X141568273Y-113720983D01*
X141565504Y-113718634D01*
X141564140Y-113708461D01*
X141562770Y-113683622D01*
X141561447Y-113646116D01*
X141560223Y-113597944D01*
X141559151Y-113541105D01*
X141558285Y-113477599D01*
X141557812Y-113428004D01*
X141557120Y-113360857D01*
X141556168Y-113298886D01*
X141555011Y-113244098D01*
X141553703Y-113198497D01*
X141552300Y-113164087D01*
X141550856Y-113142874D01*
X141549807Y-113136870D01*
X141537652Y-113130568D01*
X141514868Y-113127561D01*
X141487128Y-113127670D01*
X141460103Y-113130713D01*
X141439464Y-113136509D01*
X141433095Y-113140595D01*
X141429479Y-113145979D01*
X141426580Y-113155263D01*
X141424321Y-113170141D01*
X141422624Y-113192310D01*
X141421413Y-113223466D01*
X141420609Y-113265303D01*
X141420135Y-113319518D01*
X141419913Y-113387807D01*
X141419872Y-113430178D01*
X141419663Y-113496669D01*
X141419128Y-113557961D01*
X141418311Y-113612030D01*
X141417257Y-113656854D01*
X141416011Y-113690409D01*
X141414615Y-113710672D01*
X141413622Y-113715800D01*
X141398078Y-113726458D01*
X141373876Y-113731548D01*
X141348447Y-113729844D01*
X141341411Y-113727719D01*
X141320000Y-113719579D01*
X141320000Y-113440887D01*
X141319853Y-113373904D01*
X141319436Y-113311919D01*
X141318784Y-113256987D01*
X141317933Y-113211159D01*
X141316919Y-113176488D01*
X141315777Y-113155027D01*
X141314941Y-113149014D01*
X141307546Y-113141246D01*
X141290656Y-113137159D01*
X141260844Y-113135958D01*
X141258691Y-113135960D01*
X141229360Y-113137261D01*
X141205726Y-113140501D01*
X141195000Y-113143981D01*
X141191550Y-113148262D01*
X141188691Y-113157399D01*
X141186330Y-113172989D01*
X141184378Y-113196624D01*
X141182743Y-113229899D01*
X141181336Y-113274408D01*
X141180065Y-113331746D01*
X141178840Y-113403507D01*
X141178333Y-113437237D01*
X141174166Y-113722599D01*
X141153333Y-113728178D01*
X141127622Y-113730805D01*
X141102806Y-113726813D01*
X141086033Y-113717491D01*
X141084710Y-113715800D01*
X141083248Y-113705554D01*
X141081904Y-113680653D01*
X141080720Y-113643107D01*
X141079741Y-113594928D01*
X141079010Y-113538125D01*
X141078571Y-113474711D01*
X141078460Y-113427083D01*
X141078248Y-113344872D01*
X141077668Y-113278175D01*
X141076679Y-113225839D01*
X141075240Y-113186715D01*
X141073313Y-113159652D01*
X141070856Y-113143499D01*
X141068333Y-113137499D01*
X141053888Y-113131555D01*
X141029429Y-113128379D01*
X141001396Y-113128082D01*
X140976229Y-113130777D01*
X140961666Y-113135649D01*
X140958250Y-113139834D01*
X140955450Y-113148713D01*
X140953185Y-113163882D01*
X140951374Y-113186934D01*
X140949937Y-113219464D01*
X140948792Y-113263067D01*
X140947859Y-113319338D01*
X140947058Y-113389869D01*
X140946674Y-113431716D01*
X140944183Y-113719889D01*
X140923215Y-113727861D01*
X140903214Y-113733876D01*
X140884964Y-113733821D01*
X140861666Y-113728379D01*
X140840833Y-113722586D01*
X140836666Y-113229900D01*
X140835813Y-113140781D01*
X140834814Y-113056643D01*
X140833701Y-112978963D01*
X140832503Y-112909215D01*
X140831251Y-112848873D01*
X140829975Y-112799414D01*
X140828705Y-112762311D01*
X140827473Y-112739041D01*
X140826396Y-112731114D01*
X140816437Y-112729068D01*
X140792657Y-112727214D01*
X140757900Y-112725685D01*
X140715013Y-112724613D01*
X140676991Y-112724174D01*
X140620675Y-112724181D01*
X140579065Y-112725042D01*
X140550214Y-112726885D01*
X140532177Y-112729838D01*
X140523009Y-112734031D01*
X140522678Y-112734345D01*
X140520270Y-112739606D01*
X140518220Y-112750960D01*
X140516504Y-112769549D01*
X140515095Y-112796516D01*
X140513969Y-112833003D01*
X140513098Y-112880154D01*
X140512459Y-112939110D01*
X140512025Y-113011016D01*
X140511770Y-113097012D01*
X140511670Y-113198243D01*
X140511666Y-113226428D01*
X140511579Y-113334800D01*
X140511303Y-113427460D01*
X140510820Y-113505360D01*
X140510111Y-113569454D01*
X140509155Y-113620695D01*
X140507934Y-113660037D01*
X140506427Y-113688431D01*
X140504617Y-113706833D01*
X140502482Y-113716194D01*
X140501666Y-113717499D01*
X140488193Y-113723549D01*
X140466294Y-113726863D01*
X140441470Y-113727464D01*
X140419225Y-113725375D01*
X140405060Y-113720620D01*
X140402713Y-113717083D01*
X140402072Y-113696950D01*
X140401638Y-113662946D01*
X140401399Y-113616774D01*
X140401340Y-113560139D01*
X140401445Y-113494745D01*
X140401701Y-113422295D01*
X140402094Y-113344494D01*
X140402608Y-113263045D01*
X140403229Y-113179654D01*
X140403943Y-113096023D01*
X140404735Y-113013858D01*
X140405591Y-112934862D01*
X140406497Y-112860739D01*
X140407437Y-112793193D01*
X140408398Y-112733929D01*
X140409364Y-112684651D01*
X140410322Y-112647061D01*
X140411257Y-112622866D01*
X140412085Y-112613899D01*
X140419676Y-112593932D01*
X140684421Y-112596132D01*
G37*
G36*
X146529757Y-112419539D02*
G01*
X146676763Y-112420193D01*
X146833951Y-112421402D01*
X147000242Y-112423167D01*
X147117624Y-112424679D01*
X147517986Y-112430193D01*
X147473916Y-112473219D01*
X147455035Y-112492435D01*
X147439851Y-112510711D01*
X147427963Y-112530090D01*
X147418970Y-112552620D01*
X147412470Y-112580345D01*
X147408064Y-112615313D01*
X147405350Y-112659568D01*
X147403927Y-112715157D01*
X147403393Y-112784125D01*
X147403333Y-112833284D01*
X147403333Y-113061043D01*
X147701250Y-113058855D01*
X147999166Y-113056666D01*
X147999166Y-112798333D01*
X147999166Y-112540000D01*
X147975761Y-112500182D01*
X147959652Y-112475857D01*
X147943842Y-112456849D01*
X147936177Y-112450260D01*
X147923437Y-112439864D01*
X147920000Y-112433828D01*
X147927972Y-112432149D01*
X147950449Y-112430638D01*
X147985267Y-112429355D01*
X148030264Y-112428364D01*
X148083277Y-112427725D01*
X148141803Y-112427500D01*
X148363606Y-112427500D01*
X148332530Y-112461896D01*
X148310512Y-112490077D01*
X148290600Y-112521754D01*
X148283965Y-112534813D01*
X148280325Y-112543272D01*
X148277216Y-112552267D01*
X148274586Y-112563140D01*
X148272383Y-112577236D01*
X148270554Y-112595897D01*
X148269048Y-112620465D01*
X148267814Y-112652284D01*
X148266797Y-112692697D01*
X148265948Y-112743046D01*
X148265214Y-112804675D01*
X148264542Y-112878927D01*
X148263881Y-112967145D01*
X148263179Y-113070671D01*
X148263171Y-113071904D01*
X148262520Y-113181629D01*
X148262140Y-113275843D01*
X148262047Y-113355704D01*
X148262257Y-113422364D01*
X148262787Y-113476980D01*
X148263652Y-113520707D01*
X148264868Y-113554699D01*
X148266453Y-113580111D01*
X148268421Y-113598099D01*
X148270672Y-113609404D01*
X148283190Y-113639749D01*
X148305127Y-113670025D01*
X148326111Y-113692083D01*
X148370745Y-113735833D01*
X148132872Y-113735833D01*
X148071846Y-113735605D01*
X148016612Y-113734963D01*
X147969258Y-113733965D01*
X147931872Y-113732670D01*
X147906542Y-113731139D01*
X147895356Y-113729430D01*
X147895000Y-113729059D01*
X147900538Y-113719613D01*
X147914424Y-113704039D01*
X147920763Y-113697809D01*
X147941929Y-113674004D01*
X147958983Y-113645737D01*
X147972247Y-113611243D01*
X147982039Y-113568757D01*
X147988680Y-113516513D01*
X147992490Y-113452746D01*
X147993787Y-113375690D01*
X147993153Y-113298333D01*
X147990833Y-113156666D01*
X147692916Y-113154478D01*
X147395000Y-113152289D01*
X147395000Y-113381829D01*
X147395108Y-113455014D01*
X147395668Y-113513614D01*
X147397030Y-113559712D01*
X147399548Y-113595389D01*
X147403572Y-113622727D01*
X147409455Y-113643807D01*
X147417549Y-113660713D01*
X147428204Y-113675524D01*
X147441774Y-113690324D01*
X147448236Y-113696848D01*
X147465376Y-113714784D01*
X147476276Y-113727721D01*
X147478333Y-113731388D01*
X147470357Y-113732557D01*
X147447857Y-113733611D01*
X147412977Y-113734508D01*
X147367859Y-113735205D01*
X147314647Y-113735661D01*
X147255483Y-113735832D01*
X147252470Y-113735833D01*
X147026606Y-113735833D01*
X147053672Y-113705006D01*
X147068954Y-113686365D01*
X147081965Y-113667003D01*
X147092918Y-113645422D01*
X147102023Y-113620126D01*
X147109494Y-113589617D01*
X147115543Y-113552399D01*
X147120382Y-113506974D01*
X147124223Y-113451846D01*
X147127278Y-113385518D01*
X147129759Y-113306493D01*
X147131880Y-113213274D01*
X147133168Y-113144166D01*
X147134736Y-113024269D01*
X147134911Y-112920248D01*
X147133656Y-112831369D01*
X147130933Y-112756897D01*
X147126705Y-112696096D01*
X147120935Y-112648231D01*
X147113585Y-112612569D01*
X147104947Y-112589010D01*
X147087875Y-112560201D01*
X147068186Y-112538096D01*
X147043453Y-112521760D01*
X147011249Y-112510260D01*
X146969146Y-112502660D01*
X146914717Y-112498026D01*
X146863113Y-112495897D01*
X146818452Y-112495037D01*
X146779679Y-112495169D01*
X146749851Y-112496215D01*
X146732022Y-112498096D01*
X146728497Y-112499386D01*
X146727396Y-112508767D01*
X146726526Y-112533406D01*
X146725889Y-112571895D01*
X146725488Y-112622826D01*
X146725325Y-112684791D01*
X146725404Y-112756384D01*
X146725727Y-112836196D01*
X146726297Y-112922820D01*
X146727115Y-113014848D01*
X146727471Y-113049017D01*
X146733341Y-113591368D01*
X146755547Y-113636755D01*
X146778127Y-113673461D01*
X146806678Y-113700094D01*
X146815543Y-113706030D01*
X146836539Y-113719803D01*
X146850260Y-113729767D01*
X146853333Y-113732875D01*
X146845347Y-113733632D01*
X146822780Y-113734319D01*
X146787716Y-113734907D01*
X146742242Y-113735372D01*
X146688442Y-113735688D01*
X146628401Y-113735828D01*
X146614771Y-113735833D01*
X146376210Y-113735833D01*
X146410047Y-113699124D01*
X146422856Y-113684930D01*
X146433697Y-113671419D01*
X146442735Y-113657129D01*
X146450132Y-113640596D01*
X146456054Y-113620358D01*
X146460664Y-113594952D01*
X146464127Y-113562915D01*
X146466606Y-113522785D01*
X146468267Y-113473097D01*
X146469272Y-113412391D01*
X146469786Y-113339202D01*
X146469974Y-113252068D01*
X146470000Y-113164812D01*
X146469883Y-113078407D01*
X146469549Y-112992736D01*
X146469022Y-112910122D01*
X146468326Y-112832887D01*
X146467484Y-112763354D01*
X146466521Y-112703844D01*
X146465459Y-112656682D01*
X146464486Y-112627767D01*
X146458972Y-112500385D01*
X146354069Y-112504489D01*
X146301179Y-112507372D01*
X146260916Y-112511668D01*
X146229264Y-112517957D01*
X146203863Y-112526170D01*
X146152602Y-112554303D01*
X146108956Y-112594465D01*
X146076651Y-112642944D01*
X146068950Y-112660563D01*
X146064880Y-112671837D01*
X146061322Y-112683676D01*
X146058177Y-112697448D01*
X146055346Y-112714522D01*
X146052730Y-112736265D01*
X146050229Y-112764046D01*
X146047745Y-112799232D01*
X146045178Y-112843191D01*
X146042430Y-112897292D01*
X146039400Y-112962903D01*
X146035990Y-113041391D01*
X146032101Y-113134125D01*
X146028762Y-113215000D01*
X146025210Y-113289147D01*
X146021138Y-113352660D01*
X146016679Y-113403937D01*
X146011967Y-113441378D01*
X146008260Y-113459741D01*
X145980559Y-113535773D01*
X145942121Y-113599840D01*
X145892277Y-113652534D01*
X145830359Y-113694447D01*
X145755697Y-113726169D01*
X145686300Y-113744618D01*
X145629004Y-113754164D01*
X145563944Y-113760993D01*
X145496635Y-113764836D01*
X145432595Y-113765421D01*
X145377339Y-113762476D01*
X145361293Y-113760589D01*
X145306776Y-113750487D01*
X145247495Y-113735418D01*
X145189240Y-113717145D01*
X145137803Y-113697430D01*
X145109368Y-113683936D01*
X145077088Y-113663197D01*
X145043136Y-113635940D01*
X145020445Y-113613901D01*
X145006417Y-113598628D01*
X144994395Y-113584919D01*
X144984212Y-113571412D01*
X144975701Y-113556747D01*
X144968696Y-113539564D01*
X144963028Y-113518501D01*
X144958531Y-113492199D01*
X144955039Y-113459296D01*
X144952383Y-113418432D01*
X144950397Y-113368247D01*
X144948914Y-113307380D01*
X144947767Y-113234470D01*
X144946789Y-113148158D01*
X144945812Y-113047081D01*
X144945387Y-113002500D01*
X144944392Y-112898362D01*
X144943485Y-112809547D01*
X144942548Y-112734712D01*
X144941462Y-112672514D01*
X144940109Y-112621609D01*
X144938370Y-112580656D01*
X144936126Y-112548310D01*
X144933259Y-112523230D01*
X144929649Y-112504073D01*
X144925179Y-112489495D01*
X144919729Y-112478154D01*
X144913181Y-112468706D01*
X144905416Y-112459810D01*
X144896589Y-112450416D01*
X144875215Y-112427500D01*
X145099036Y-112427499D01*
X145322857Y-112427499D01*
X145286012Y-112451935D01*
X145263075Y-112468299D01*
X145245746Y-112484642D01*
X145233105Y-112503654D01*
X145224235Y-112528030D01*
X145218217Y-112560459D01*
X145214133Y-112603636D01*
X145211065Y-112660253D01*
X145210496Y-112673333D01*
X145207119Y-112770352D01*
X145205091Y-112868420D01*
X145204359Y-112965613D01*
X145204869Y-113060010D01*
X145206568Y-113149686D01*
X145209403Y-113232718D01*
X145213321Y-113307185D01*
X145218266Y-113371161D01*
X145224187Y-113422726D01*
X145231030Y-113459955D01*
X145232511Y-113465531D01*
X145257065Y-113523018D01*
X145294925Y-113570691D01*
X145345794Y-113608365D01*
X145409374Y-113635859D01*
X145485370Y-113652988D01*
X145545000Y-113658673D01*
X145633167Y-113657559D01*
X145709571Y-113644780D01*
X145774146Y-113620379D01*
X145826828Y-113584399D01*
X145867552Y-113536883D01*
X145896251Y-113477872D01*
X145911222Y-113418238D01*
X145913759Y-113394930D01*
X145916273Y-113357277D01*
X145918717Y-113307601D01*
X145921043Y-113248223D01*
X145923206Y-113181465D01*
X145925157Y-113109648D01*
X145926850Y-113035095D01*
X145928238Y-112960128D01*
X145929273Y-112887067D01*
X145929910Y-112818234D01*
X145930100Y-112755951D01*
X145929797Y-112702541D01*
X145928953Y-112660323D01*
X145927523Y-112631621D01*
X145927216Y-112628239D01*
X145917380Y-112567653D01*
X145900523Y-112519407D01*
X145875198Y-112480133D01*
X145854232Y-112458470D01*
X145822772Y-112430048D01*
X145985226Y-112424607D01*
X146065134Y-112422482D01*
X146160621Y-112420912D01*
X146270606Y-112419899D01*
X146394011Y-112419441D01*
X146529757Y-112419539D01*
G37*
G36*
X149529665Y-112333730D02*
G01*
X149643837Y-112351499D01*
X149755819Y-112384053D01*
X149815833Y-112408296D01*
X149857852Y-112425027D01*
X149892601Y-112434797D01*
X149912431Y-112436856D01*
X149942362Y-112435624D01*
X149951933Y-112529479D01*
X149958664Y-112596218D01*
X149963657Y-112648210D01*
X149966971Y-112687275D01*
X149968663Y-112715234D01*
X149968793Y-112733910D01*
X149967420Y-112745122D01*
X149964602Y-112750694D01*
X149960397Y-112752445D01*
X149959116Y-112752500D01*
X149948718Y-112746171D01*
X149931574Y-112729166D01*
X149910507Y-112704452D01*
X149897722Y-112687916D01*
X149870833Y-112654099D01*
X149836919Y-112614607D01*
X149801051Y-112575227D01*
X149778505Y-112551841D01*
X149741226Y-112515795D01*
X149709147Y-112488869D01*
X149677055Y-112467170D01*
X149639736Y-112446805D01*
X149633839Y-112443861D01*
X149597556Y-112426496D01*
X149569618Y-112415451D01*
X149543742Y-112409059D01*
X149513645Y-112405655D01*
X149483464Y-112404016D01*
X149401174Y-112406338D01*
X149328298Y-112421543D01*
X149262718Y-112450480D01*
X149202315Y-112494000D01*
X149162790Y-112532712D01*
X149114113Y-112596537D01*
X149072370Y-112673981D01*
X149038378Y-112763157D01*
X149012958Y-112862178D01*
X149007811Y-112889549D01*
X148996512Y-112988890D01*
X148996468Y-113088856D01*
X149006993Y-113187499D01*
X149027397Y-113282873D01*
X149056995Y-113373031D01*
X149095098Y-113456026D01*
X149141018Y-113529910D01*
X149194070Y-113592738D01*
X149253563Y-113642562D01*
X149279410Y-113658640D01*
X149333802Y-113685871D01*
X149384917Y-113703178D01*
X149439275Y-113712225D01*
X149499166Y-113714681D01*
X149584209Y-113708013D01*
X149661900Y-113687474D01*
X149734139Y-113652260D01*
X149802829Y-113601566D01*
X149833245Y-113573333D01*
X149862573Y-113542580D01*
X149889192Y-113510271D01*
X149914543Y-113474019D01*
X149940068Y-113431435D01*
X149967209Y-113380134D01*
X149997407Y-113317728D01*
X150028216Y-113250482D01*
X150051902Y-113198146D01*
X150080420Y-113135591D01*
X150111535Y-113067694D01*
X150114694Y-113060833D01*
X150205281Y-113060833D01*
X150382427Y-113060833D01*
X150559573Y-113060833D01*
X150474918Y-112857076D01*
X150452211Y-112802633D01*
X150431514Y-112753410D01*
X150413703Y-112711459D01*
X150399653Y-112678831D01*
X150390243Y-112657578D01*
X150386381Y-112649777D01*
X150382231Y-112656167D01*
X150372482Y-112675981D01*
X150358013Y-112707284D01*
X150339701Y-112748144D01*
X150318425Y-112796625D01*
X150295062Y-112850796D01*
X150293890Y-112853534D01*
X150205281Y-113060833D01*
X150114694Y-113060833D01*
X150143010Y-112999330D01*
X150172611Y-112935376D01*
X150178208Y-112923333D01*
X150207350Y-112860304D01*
X150238955Y-112791320D01*
X150270739Y-112721412D01*
X150300416Y-112655608D01*
X150325701Y-112598941D01*
X150329653Y-112590000D01*
X150350580Y-112543232D01*
X150369821Y-112501465D01*
X150386177Y-112467206D01*
X150398449Y-112442959D01*
X150405439Y-112431229D01*
X150405835Y-112430810D01*
X150418558Y-112424986D01*
X150442803Y-112418180D01*
X150473590Y-112411763D01*
X150477179Y-112411137D01*
X150509047Y-112406075D01*
X150528910Y-112404520D01*
X150541118Y-112406760D01*
X150550017Y-112413082D01*
X150553013Y-112416160D01*
X150559924Y-112427882D01*
X150571912Y-112452895D01*
X150587999Y-112488961D01*
X150607209Y-112533843D01*
X150628563Y-112585303D01*
X150648982Y-112635833D01*
X150679683Y-112712015D01*
X150712978Y-112793299D01*
X150748215Y-112878189D01*
X150784741Y-112965189D01*
X150821903Y-113052801D01*
X150859049Y-113139530D01*
X150895525Y-113223880D01*
X150930680Y-113304353D01*
X150963860Y-113379454D01*
X150994414Y-113447687D01*
X151021687Y-113507554D01*
X151045028Y-113557559D01*
X151063784Y-113596207D01*
X151077301Y-113622000D01*
X151083343Y-113631666D01*
X151093425Y-113643123D01*
X151100682Y-113641371D01*
X151107673Y-113632624D01*
X151116386Y-113614293D01*
X151123273Y-113588724D01*
X151124298Y-113582624D01*
X151125158Y-113568193D01*
X151125886Y-113538678D01*
X151126475Y-113495662D01*
X151126917Y-113440728D01*
X151127205Y-113375459D01*
X151127331Y-113301436D01*
X151127290Y-113220244D01*
X151127072Y-113133464D01*
X151126723Y-113052500D01*
X151126174Y-112944490D01*
X151125626Y-112851837D01*
X151125071Y-112789014D01*
X151378333Y-112789014D01*
X151378517Y-112869535D01*
X151379095Y-112934560D01*
X151380112Y-112985256D01*
X151381607Y-113022792D01*
X151383623Y-113048333D01*
X151386203Y-113063048D01*
X151388333Y-113067500D01*
X151401646Y-113072358D01*
X151427700Y-113075604D01*
X151462647Y-113077223D01*
X151502639Y-113077197D01*
X151543827Y-113075510D01*
X151582362Y-113072147D01*
X151607717Y-113068421D01*
X151674760Y-113048348D01*
X151732286Y-113015084D01*
X151779230Y-112969435D01*
X151814524Y-112912208D01*
X151814688Y-112911853D01*
X151826372Y-112873634D01*
X151832516Y-112825183D01*
X151833151Y-112771977D01*
X151828303Y-112719493D01*
X151818002Y-112673208D01*
X151813389Y-112660172D01*
X151786339Y-112608224D01*
X151751165Y-112565104D01*
X151710861Y-112534309D01*
X151701477Y-112529476D01*
X151658785Y-112514675D01*
X151603011Y-112503526D01*
X151537439Y-112496525D01*
X151467211Y-112494166D01*
X151429042Y-112494665D01*
X151404479Y-112496482D01*
X151390479Y-112500094D01*
X151384004Y-112505979D01*
X151383391Y-112507348D01*
X151382160Y-112518648D01*
X151381037Y-112544518D01*
X151380061Y-112582862D01*
X151379267Y-112631584D01*
X151378695Y-112688587D01*
X151378381Y-112751776D01*
X151378333Y-112789014D01*
X151125071Y-112789014D01*
X151124931Y-112773233D01*
X151123941Y-112707370D01*
X151122507Y-112652938D01*
X151120481Y-112608629D01*
X151117715Y-112573135D01*
X151114060Y-112545147D01*
X151109368Y-112523356D01*
X151103491Y-112506453D01*
X151096281Y-112493131D01*
X151087589Y-112482081D01*
X151077267Y-112471994D01*
X151065166Y-112461560D01*
X151059185Y-112456476D01*
X151025333Y-112427499D01*
X151245583Y-112425416D01*
X151357910Y-112424536D01*
X151454781Y-112424188D01*
X151537397Y-112424397D01*
X151606960Y-112425186D01*
X151664673Y-112426577D01*
X151711736Y-112428595D01*
X151749353Y-112431263D01*
X151778725Y-112434604D01*
X151787191Y-112435921D01*
X151858244Y-112454987D01*
X151923503Y-112486277D01*
X151980485Y-112527932D01*
X152026705Y-112578093D01*
X152059679Y-112634899D01*
X152062642Y-112642111D01*
X152072834Y-112672910D01*
X152078834Y-112705239D01*
X152081561Y-112745130D01*
X152081980Y-112769341D01*
X152081762Y-112808092D01*
X152079739Y-112835956D01*
X152074763Y-112858702D01*
X152065686Y-112882095D01*
X152055110Y-112904319D01*
X152017802Y-112962536D01*
X151967349Y-113011848D01*
X151903178Y-113052706D01*
X151825913Y-113085157D01*
X151785993Y-113098736D01*
X151906798Y-113245633D01*
X151955300Y-113303816D01*
X152007031Y-113364465D01*
X152060090Y-113425462D01*
X152112579Y-113484687D01*
X152162596Y-113540024D01*
X152208242Y-113589353D01*
X152247615Y-113630555D01*
X152278816Y-113661513D01*
X152285193Y-113667474D01*
X152320258Y-113694874D01*
X152363790Y-113721831D01*
X152410636Y-113745733D01*
X152455644Y-113763968D01*
X152493661Y-113773923D01*
X152495719Y-113774215D01*
X152525826Y-113779861D01*
X152539499Y-113786860D01*
X152536943Y-113795585D01*
X152518360Y-113806406D01*
X152514349Y-113808171D01*
X152488987Y-113815017D01*
X152451349Y-113820190D01*
X152405761Y-113823518D01*
X152356546Y-113824830D01*
X152308029Y-113823954D01*
X152264533Y-113820716D01*
X152249423Y-113818709D01*
X152157511Y-113796110D01*
X152070919Y-113757717D01*
X151989644Y-113703529D01*
X151925327Y-113645646D01*
X151908270Y-113627115D01*
X151882471Y-113597511D01*
X151849574Y-113558799D01*
X151811226Y-113512941D01*
X151769071Y-113461898D01*
X151724755Y-113407634D01*
X151696050Y-113372159D01*
X151644434Y-113308291D01*
X151601855Y-113256304D01*
X151566959Y-113215050D01*
X151538390Y-113183377D01*
X151514796Y-113160137D01*
X151494821Y-113144180D01*
X151477112Y-113134356D01*
X151460314Y-113129515D01*
X151443074Y-113128509D01*
X151424036Y-113130187D01*
X151412862Y-113131756D01*
X151376558Y-113137120D01*
X151382461Y-113363560D01*
X151384438Y-113433734D01*
X151386403Y-113489304D01*
X151388518Y-113532332D01*
X151390948Y-113564880D01*
X151393856Y-113589010D01*
X151397405Y-113606783D01*
X151401759Y-113620262D01*
X151403050Y-113623333D01*
X151428760Y-113664764D01*
X151465345Y-113694749D01*
X151488863Y-113706380D01*
X151508434Y-113716396D01*
X151519248Y-113725504D01*
X151520000Y-113727611D01*
X151511740Y-113729661D01*
X151487251Y-113731432D01*
X151446969Y-113732917D01*
X151391329Y-113734108D01*
X151320766Y-113734994D01*
X151235716Y-113735568D01*
X151136614Y-113735821D01*
X151107500Y-113735833D01*
X151026355Y-113735707D01*
X150950501Y-113735346D01*
X150881521Y-113734774D01*
X150821003Y-113734016D01*
X150770531Y-113733097D01*
X150731691Y-113732041D01*
X150706070Y-113730874D01*
X150695252Y-113729621D01*
X150695000Y-113729395D01*
X150701649Y-113721795D01*
X150718274Y-113710594D01*
X150725198Y-113706693D01*
X150756741Y-113684604D01*
X150773208Y-113659138D01*
X150776178Y-113627511D01*
X150775065Y-113618743D01*
X150770299Y-113600503D01*
X150760337Y-113570453D01*
X150746158Y-113531028D01*
X150728738Y-113484662D01*
X150709055Y-113433789D01*
X150688086Y-113380843D01*
X150666808Y-113328259D01*
X150646198Y-113278471D01*
X150627235Y-113233913D01*
X150610895Y-113197019D01*
X150598155Y-113170224D01*
X150589994Y-113155962D01*
X150588711Y-113154583D01*
X150579165Y-113151066D01*
X150559842Y-113148351D01*
X150529324Y-113146371D01*
X150486195Y-113145059D01*
X150429036Y-113144348D01*
X150367923Y-113144166D01*
X150160700Y-113144166D01*
X150122866Y-113225416D01*
X150086042Y-113310613D01*
X150057031Y-113390710D01*
X150036221Y-113464056D01*
X150024000Y-113529000D01*
X150020755Y-113583894D01*
X150026873Y-113627086D01*
X150027843Y-113630180D01*
X150042075Y-113656209D01*
X150067250Y-113685489D01*
X150080882Y-113698219D01*
X150123880Y-113735833D01*
X149946409Y-113735833D01*
X149884168Y-113736030D01*
X149834975Y-113736806D01*
X149795218Y-113738435D01*
X149761282Y-113741193D01*
X149729552Y-113745354D01*
X149696414Y-113751194D01*
X149667386Y-113757065D01*
X149555229Y-113776130D01*
X149452409Y-113784001D01*
X149355855Y-113780613D01*
X149262496Y-113765900D01*
X149191030Y-113746866D01*
X149090045Y-113707168D01*
X148998999Y-113654710D01*
X148918603Y-113590606D01*
X148849565Y-113515973D01*
X148792596Y-113431928D01*
X148748403Y-113339586D01*
X148717698Y-113240064D01*
X148701190Y-113134478D01*
X148699588Y-113023945D01*
X148703194Y-112979386D01*
X148722726Y-112866915D01*
X148755971Y-112763569D01*
X148802659Y-112669741D01*
X148862523Y-112585826D01*
X148935293Y-112512219D01*
X149020701Y-112449313D01*
X149090833Y-112410397D01*
X149193889Y-112369080D01*
X149302704Y-112342526D01*
X149415292Y-112330741D01*
X149529665Y-112333730D01*
G37*
G36*
X139238431Y-113840979D02*
G01*
X139308932Y-113903108D01*
X139379975Y-113952371D01*
X139456186Y-113991385D01*
X139542189Y-114022765D01*
X139578333Y-114033214D01*
X139604946Y-114039252D01*
X139635327Y-114043477D01*
X139672794Y-114046136D01*
X139720662Y-114047474D01*
X139774166Y-114047754D01*
X139853297Y-114046161D01*
X139920388Y-114041120D01*
X139979849Y-114031885D01*
X140036085Y-114017709D01*
X140093506Y-113997847D01*
X140111852Y-113990575D01*
X140167073Y-113963621D01*
X140226279Y-113927131D01*
X140232173Y-113922820D01*
X140553333Y-113922820D01*
X140557716Y-113935692D01*
X140569822Y-113959874D01*
X140588088Y-113992836D01*
X140610952Y-114032046D01*
X140636850Y-114074976D01*
X140664220Y-114119094D01*
X140691498Y-114161870D01*
X140717121Y-114200775D01*
X140739526Y-114233278D01*
X140757151Y-114256849D01*
X140765667Y-114266543D01*
X140796730Y-114290815D01*
X140836387Y-114310176D01*
X140886795Y-114325329D01*
X140950110Y-114336978D01*
X141000614Y-114343150D01*
X141013884Y-114341961D01*
X141037020Y-114337805D01*
X141052697Y-114334402D01*
X141079319Y-114326112D01*
X141093470Y-114316941D01*
X141095000Y-114313051D01*
X141090923Y-114302152D01*
X141079688Y-114279789D01*
X141062786Y-114248741D01*
X141041708Y-114211791D01*
X141029830Y-114191565D01*
X141003345Y-114146689D01*
X140976376Y-114100625D01*
X140951702Y-114058143D01*
X140932105Y-114024017D01*
X140928358Y-114017409D01*
X140910641Y-113987960D01*
X140894440Y-113964381D01*
X140882369Y-113950359D01*
X140879266Y-113948245D01*
X140866117Y-113945349D01*
X140839875Y-113941126D01*
X140804024Y-113936012D01*
X140762044Y-113930442D01*
X140717418Y-113924849D01*
X140673626Y-113919670D01*
X140634151Y-113915338D01*
X140602474Y-113912288D01*
X140582077Y-113910956D01*
X140580416Y-113910931D01*
X140559318Y-113914223D01*
X140553333Y-113922820D01*
X140232173Y-113922820D01*
X140283736Y-113885109D01*
X140333710Y-113841556D01*
X140351579Y-113823236D01*
X140382251Y-113792320D01*
X140405802Y-113774101D01*
X140419419Y-113769166D01*
X140435986Y-113770287D01*
X140465726Y-113773425D01*
X140506188Y-113778239D01*
X140554921Y-113784391D01*
X140609474Y-113791541D01*
X140667395Y-113799351D01*
X140726233Y-113807481D01*
X140783537Y-113815592D01*
X140836855Y-113823345D01*
X140883737Y-113830400D01*
X140921730Y-113836419D01*
X140948384Y-113841062D01*
X140961248Y-113843990D01*
X140961746Y-113844209D01*
X140969710Y-113853361D01*
X140984550Y-113875091D01*
X141005039Y-113907414D01*
X141029944Y-113948345D01*
X141058037Y-113995899D01*
X141087932Y-114047817D01*
X141117795Y-114099767D01*
X141145496Y-114146882D01*
X141169844Y-114187222D01*
X141189647Y-114218846D01*
X141203716Y-114239816D01*
X141210859Y-114248189D01*
X141210885Y-114248200D01*
X141223299Y-114245118D01*
X141242094Y-114231098D01*
X141264480Y-114209119D01*
X141287670Y-114182163D01*
X141308875Y-114153207D01*
X141324561Y-114126721D01*
X141339875Y-114087564D01*
X141349406Y-114045650D01*
X141350409Y-114036772D01*
X141354190Y-113998114D01*
X141358260Y-113973242D01*
X141363546Y-113959288D01*
X141370976Y-113953382D01*
X141377650Y-113952500D01*
X141392681Y-113960164D01*
X141408237Y-113981218D01*
X141409856Y-113984230D01*
X141418071Y-113998675D01*
X141433952Y-114025401D01*
X141456359Y-114062533D01*
X141484153Y-114108201D01*
X141516196Y-114160533D01*
X141551348Y-114217654D01*
X141581530Y-114266489D01*
X141617538Y-114324881D01*
X141650588Y-114378945D01*
X141679685Y-114427016D01*
X141703832Y-114467428D01*
X141722033Y-114498515D01*
X141733292Y-114518610D01*
X141736666Y-114525901D01*
X141730116Y-114538546D01*
X141712182Y-114557992D01*
X141685434Y-114581933D01*
X141652446Y-114608059D01*
X141617225Y-114633098D01*
X141530651Y-114682874D01*
X141440991Y-114717365D01*
X141346217Y-114737115D01*
X141244298Y-114742666D01*
X141211854Y-114741635D01*
X141116621Y-114732105D01*
X141032900Y-114713088D01*
X140957890Y-114683635D01*
X140888788Y-114642793D01*
X140861992Y-114622913D01*
X140837690Y-114602686D01*
X140814948Y-114580893D01*
X140792502Y-114555760D01*
X140769087Y-114525509D01*
X140743439Y-114488365D01*
X140714295Y-114442551D01*
X140712248Y-114439154D01*
X140863458Y-114439154D01*
X140876474Y-114459019D01*
X140893778Y-114479141D01*
X140921073Y-114504091D01*
X140953933Y-114530342D01*
X140987928Y-114554366D01*
X141018631Y-114572634D01*
X141019837Y-114573251D01*
X141061720Y-114591193D01*
X141111195Y-114607565D01*
X141159238Y-114619507D01*
X141174166Y-114622129D01*
X141203659Y-114623963D01*
X141244067Y-114623059D01*
X141289936Y-114619828D01*
X141335816Y-114614682D01*
X141376253Y-114608035D01*
X141384761Y-114606212D01*
X141419463Y-114596693D01*
X141453596Y-114584743D01*
X141472261Y-114576573D01*
X141502748Y-114559000D01*
X141532047Y-114538354D01*
X141556697Y-114517524D01*
X141573235Y-114499395D01*
X141578333Y-114488099D01*
X141574095Y-114477044D01*
X141562321Y-114454425D01*
X141544420Y-114422741D01*
X141521801Y-114384491D01*
X141497575Y-114344907D01*
X141416817Y-114215000D01*
X141341325Y-114291097D01*
X141280169Y-114347281D01*
X141220974Y-114389132D01*
X141160209Y-114418053D01*
X141094346Y-114435446D01*
X141019856Y-114442715D01*
X140960479Y-114442523D01*
X140863458Y-114439154D01*
X140712248Y-114439154D01*
X140680390Y-114386291D01*
X140640461Y-114317809D01*
X140622081Y-114285833D01*
X140588938Y-114228068D01*
X140555960Y-114170720D01*
X140524797Y-114116651D01*
X140497103Y-114068725D01*
X140474530Y-114029805D01*
X140459853Y-114004667D01*
X140414623Y-113927668D01*
X140390228Y-113953314D01*
X140361711Y-113978704D01*
X140322305Y-114007625D01*
X140276515Y-114037228D01*
X140228849Y-114064664D01*
X140183814Y-114087085D01*
X140167738Y-114093934D01*
X140064198Y-114128327D01*
X139956106Y-114151161D01*
X139845559Y-114162717D01*
X139734654Y-114163280D01*
X139625489Y-114153134D01*
X139520161Y-114132562D01*
X139420767Y-114101847D01*
X139329405Y-114061273D01*
X139248171Y-114011123D01*
X139189121Y-113961634D01*
X139154076Y-113927594D01*
X139123750Y-113979630D01*
X139065736Y-114079161D01*
X139015423Y-114165385D01*
X138972124Y-114239394D01*
X138935152Y-114302284D01*
X138903821Y-114355148D01*
X138877441Y-114399080D01*
X138855327Y-114435174D01*
X138836790Y-114464524D01*
X138821143Y-114488224D01*
X138807700Y-114507367D01*
X138795773Y-114523048D01*
X138784673Y-114536361D01*
X138773715Y-114548399D01*
X138762211Y-114560256D01*
X138753333Y-114569166D01*
X138679068Y-114633654D01*
X138600433Y-114682383D01*
X138515909Y-114716018D01*
X138423977Y-114735223D01*
X138361666Y-114740208D01*
X138319789Y-114740823D01*
X138279181Y-114739882D01*
X138245836Y-114737592D01*
X138232500Y-114735783D01*
X138168524Y-114721347D01*
X138100778Y-114701289D01*
X138035880Y-114677800D01*
X137980453Y-114653071D01*
X137976567Y-114651074D01*
X137935861Y-114627493D01*
X137898458Y-114601430D01*
X137866851Y-114575093D01*
X137843534Y-114550688D01*
X137831000Y-114530422D01*
X137829707Y-114521078D01*
X137834602Y-114510455D01*
X137845388Y-114490919D01*
X137990142Y-114490919D01*
X137990613Y-114493475D01*
X138001372Y-114508226D01*
X138023749Y-114527311D01*
X138054118Y-114548333D01*
X138088852Y-114568890D01*
X138124325Y-114586586D01*
X138143037Y-114594304D01*
X138211954Y-114612618D01*
X138288821Y-114620083D01*
X138368982Y-114616750D01*
X138447779Y-114602670D01*
X138488410Y-114590516D01*
X138527541Y-114574259D01*
X138569954Y-114552598D01*
X138603173Y-114532360D01*
X138634940Y-114509310D01*
X138663322Y-114486290D01*
X138685779Y-114465644D01*
X138699772Y-114449715D01*
X138702761Y-114440848D01*
X138702569Y-114440625D01*
X138693115Y-114439849D01*
X138671509Y-114441190D01*
X138642092Y-114444357D01*
X138636510Y-114445071D01*
X138546988Y-114448840D01*
X138460740Y-114436866D01*
X138379374Y-114409816D01*
X138304495Y-114368356D01*
X138237712Y-114313154D01*
X138229191Y-114303359D01*
X138472131Y-114303359D01*
X138472595Y-114315724D01*
X138475881Y-114320048D01*
X138496786Y-114331118D01*
X138530411Y-114337386D01*
X138573509Y-114338826D01*
X138622832Y-114335413D01*
X138675133Y-114327122D01*
X138698797Y-114321788D01*
X138743038Y-114309006D01*
X138775096Y-114294885D01*
X138799431Y-114277240D01*
X138808769Y-114267875D01*
X138819257Y-114253930D01*
X138835790Y-114228961D01*
X138856885Y-114195487D01*
X138881057Y-114156025D01*
X138906820Y-114113095D01*
X138932690Y-114069216D01*
X138957181Y-114026905D01*
X138978810Y-113988682D01*
X138996090Y-113957065D01*
X139007537Y-113934573D01*
X139011666Y-113923736D01*
X139010512Y-113917848D01*
X139005715Y-113913887D01*
X138995278Y-113911901D01*
X138977200Y-113911939D01*
X138949483Y-113914051D01*
X138910126Y-113918284D01*
X138857131Y-113924688D01*
X138829050Y-113928197D01*
X138772242Y-113935801D01*
X138730214Y-113942582D01*
X138701128Y-113948922D01*
X138683140Y-113955201D01*
X138676076Y-113959852D01*
X138667418Y-113971330D01*
X138652082Y-113994797D01*
X138631619Y-114027749D01*
X138607583Y-114067683D01*
X138581526Y-114112096D01*
X138579610Y-114115405D01*
X138553200Y-114161019D01*
X138528632Y-114203365D01*
X138507518Y-114239674D01*
X138491468Y-114267177D01*
X138482092Y-114283105D01*
X138481922Y-114283388D01*
X138472131Y-114303359D01*
X138229191Y-114303359D01*
X138191918Y-114260511D01*
X138154639Y-114210919D01*
X138135748Y-114242126D01*
X138124306Y-114260553D01*
X138106060Y-114289400D01*
X138083276Y-114325103D01*
X138058220Y-114364100D01*
X138051107Y-114375124D01*
X138022704Y-114420279D01*
X138003584Y-114453633D01*
X137992985Y-114476681D01*
X137990142Y-114490919D01*
X137845388Y-114490919D01*
X137847363Y-114487341D01*
X137867017Y-114453373D01*
X137892591Y-114410190D01*
X137923114Y-114359431D01*
X137957613Y-114302734D01*
X137995115Y-114241739D01*
X138003333Y-114228454D01*
X138050217Y-114152899D01*
X138089179Y-114090770D01*
X138120997Y-114041280D01*
X138146451Y-114003640D01*
X138166319Y-113977061D01*
X138181380Y-113960755D01*
X138192414Y-113953934D01*
X138200199Y-113955810D01*
X138205515Y-113965594D01*
X138209139Y-113982498D01*
X138211852Y-114005733D01*
X138212840Y-114016430D01*
X138221376Y-114068032D01*
X138236283Y-114115366D01*
X138239408Y-114122561D01*
X138254448Y-114149193D01*
X138275332Y-114178304D01*
X138299045Y-114206540D01*
X138322572Y-114230547D01*
X138342899Y-114246970D01*
X138356207Y-114252500D01*
X138363645Y-114245472D01*
X138378097Y-114225470D01*
X138398530Y-114194116D01*
X138423913Y-114153032D01*
X138453214Y-114103840D01*
X138478110Y-114060908D01*
X138508389Y-114008823D01*
X138536994Y-113960929D01*
X138562605Y-113919333D01*
X138583903Y-113886143D01*
X138599570Y-113863463D01*
X138607827Y-113853730D01*
X138630497Y-113842966D01*
X138668429Y-113833863D01*
X138700904Y-113828972D01*
X138731022Y-113825076D01*
X138774051Y-113819337D01*
X138826398Y-113812245D01*
X138884470Y-113804286D01*
X138944676Y-113795948D01*
X138967417Y-113792775D01*
X139160667Y-113765750D01*
X139238431Y-113840979D01*
G37*
%TD*%
M02*
