%TF.GenerationSoftware,KiCad,Pcbnew,9.0.5*%
%TF.CreationDate,2026-10-01T14:03:32-04:00*%
%TF.ProjectId,broadband_antenna,62726f61-6462-4616-9e64-5f616e74656e,rev?*%
%TF.SameCoordinates,Original*%
%TF.FileFunction,Copper,L2,Bot*%
%TF.FilePolarity,Positive*%
%FSLAX46Y46*%
G04 Gerber Fmt 4.6, Leading zero omitted, Abs format (unit mm)*
G04 Created by KiCad (PCBNEW 9.0.5) date 2026-10-01 14:03:32*
%MOMM*%
%LPD*%
G01*
G04 APERTURE LIST*
G04 APERTURE END LIST*
%TA.AperFunction,NonConductor*%
G36*
X159442539Y-100520185D02*
G01*
X159488294Y-100572989D01*
X159499500Y-100624500D01*
X159499500Y-139375500D01*
X159479815Y-139442539D01*
X159427011Y-139488294D01*
X159375500Y-139499500D01*
X97024500Y-139499500D01*
X96957461Y-139479815D01*
X96911706Y-139427011D01*
X96900500Y-139375500D01*
X96900500Y-134872149D01*
X113049500Y-134872149D01*
X113049500Y-135127850D01*
X113068956Y-135275625D01*
X113082874Y-135381340D01*
X113100626Y-135447591D01*
X113149050Y-135628312D01*
X113149053Y-135628322D01*
X113246894Y-135864531D01*
X113246899Y-135864542D01*
X113374734Y-136085957D01*
X113374745Y-136085973D01*
X113530388Y-136288811D01*
X113530394Y-136288818D01*
X113711181Y-136469605D01*
X113711187Y-136469610D01*
X113914035Y-136625261D01*
X113914042Y-136625265D01*
X114135457Y-136753100D01*
X114135462Y-136753102D01*
X114135465Y-136753104D01*
X114371687Y-136850950D01*
X114618660Y-136917126D01*
X114872157Y-136950500D01*
X114872164Y-136950500D01*
X115127836Y-136950500D01*
X115127843Y-136950500D01*
X115381340Y-136917126D01*
X115628313Y-136850950D01*
X115864535Y-136753104D01*
X116085965Y-136625261D01*
X116288813Y-136469610D01*
X116469610Y-136288813D01*
X116625261Y-136085965D01*
X116753104Y-135864535D01*
X116850950Y-135628313D01*
X116917126Y-135381340D01*
X116950500Y-135127843D01*
X116950500Y-134872157D01*
X116950499Y-134872149D01*
X143049500Y-134872149D01*
X143049500Y-135127850D01*
X143068956Y-135275625D01*
X143082874Y-135381340D01*
X143100626Y-135447591D01*
X143149050Y-135628312D01*
X143149053Y-135628322D01*
X143246894Y-135864531D01*
X143246899Y-135864542D01*
X143374734Y-136085957D01*
X143374745Y-136085973D01*
X143530388Y-136288811D01*
X143530394Y-136288818D01*
X143711181Y-136469605D01*
X143711187Y-136469610D01*
X143914035Y-136625261D01*
X143914042Y-136625265D01*
X144135457Y-136753100D01*
X144135462Y-136753102D01*
X144135465Y-136753104D01*
X144371687Y-136850950D01*
X144618660Y-136917126D01*
X144872157Y-136950500D01*
X144872164Y-136950500D01*
X145127836Y-136950500D01*
X145127843Y-136950500D01*
X145381340Y-136917126D01*
X145628313Y-136850950D01*
X145864535Y-136753104D01*
X146085965Y-136625261D01*
X146288813Y-136469610D01*
X146469610Y-136288813D01*
X146625261Y-136085965D01*
X146753104Y-135864535D01*
X146850950Y-135628313D01*
X146917126Y-135381340D01*
X146950500Y-135127843D01*
X146950500Y-134872157D01*
X146917126Y-134618660D01*
X146850950Y-134371687D01*
X146753104Y-134135465D01*
X146753102Y-134135462D01*
X146753100Y-134135457D01*
X146625265Y-133914042D01*
X146625261Y-133914035D01*
X146469610Y-133711187D01*
X146469605Y-133711181D01*
X146288818Y-133530394D01*
X146288811Y-133530388D01*
X146085973Y-133374745D01*
X146085971Y-133374743D01*
X146085965Y-133374739D01*
X146085960Y-133374736D01*
X146085957Y-133374734D01*
X145864542Y-133246899D01*
X145864531Y-133246894D01*
X145628322Y-133149053D01*
X145628315Y-133149051D01*
X145628313Y-133149050D01*
X145381340Y-133082874D01*
X145325007Y-133075457D01*
X145127850Y-133049500D01*
X145127843Y-133049500D01*
X144872157Y-133049500D01*
X144872149Y-133049500D01*
X144646826Y-133079165D01*
X144618660Y-133082874D01*
X144371687Y-133149050D01*
X144371677Y-133149053D01*
X144135468Y-133246894D01*
X144135457Y-133246899D01*
X143914042Y-133374734D01*
X143914026Y-133374745D01*
X143711188Y-133530388D01*
X143711181Y-133530394D01*
X143530394Y-133711181D01*
X143530388Y-133711188D01*
X143374745Y-133914026D01*
X143374734Y-133914042D01*
X143246899Y-134135457D01*
X143246894Y-134135468D01*
X143149053Y-134371677D01*
X143149050Y-134371687D01*
X143082874Y-134618661D01*
X143049500Y-134872149D01*
X116950499Y-134872149D01*
X116917126Y-134618660D01*
X116850950Y-134371687D01*
X116753104Y-134135465D01*
X116753102Y-134135462D01*
X116753100Y-134135457D01*
X116625265Y-133914042D01*
X116625261Y-133914035D01*
X116469610Y-133711187D01*
X116469605Y-133711181D01*
X116288818Y-133530394D01*
X116288811Y-133530388D01*
X116085973Y-133374745D01*
X116085971Y-133374743D01*
X116085965Y-133374739D01*
X116085960Y-133374736D01*
X116085957Y-133374734D01*
X115864542Y-133246899D01*
X115864531Y-133246894D01*
X115628322Y-133149053D01*
X115628315Y-133149051D01*
X115628313Y-133149050D01*
X115381340Y-133082874D01*
X115325007Y-133075457D01*
X115127850Y-133049500D01*
X115127843Y-133049500D01*
X114872157Y-133049500D01*
X114872149Y-133049500D01*
X114646826Y-133079165D01*
X114618660Y-133082874D01*
X114371687Y-133149050D01*
X114371677Y-133149053D01*
X114135468Y-133246894D01*
X114135457Y-133246899D01*
X113914042Y-133374734D01*
X113914026Y-133374745D01*
X113711188Y-133530388D01*
X113711181Y-133530394D01*
X113530394Y-133711181D01*
X113530388Y-133711188D01*
X113374745Y-133914026D01*
X113374734Y-133914042D01*
X113246899Y-134135457D01*
X113246894Y-134135468D01*
X113149053Y-134371677D01*
X113149050Y-134371687D01*
X113082874Y-134618661D01*
X113049500Y-134872149D01*
X96900500Y-134872149D01*
X96900500Y-104872149D01*
X113049500Y-104872149D01*
X113049500Y-105127850D01*
X113068956Y-105275625D01*
X113082874Y-105381340D01*
X113100626Y-105447591D01*
X113149050Y-105628312D01*
X113149053Y-105628322D01*
X113246894Y-105864531D01*
X113246899Y-105864542D01*
X113374734Y-106085957D01*
X113374745Y-106085973D01*
X113530388Y-106288811D01*
X113530394Y-106288818D01*
X113711181Y-106469605D01*
X113711187Y-106469610D01*
X113914035Y-106625261D01*
X113914042Y-106625265D01*
X114135457Y-106753100D01*
X114135462Y-106753102D01*
X114135465Y-106753104D01*
X114371687Y-106850950D01*
X114618660Y-106917126D01*
X114872157Y-106950500D01*
X114872164Y-106950500D01*
X115127836Y-106950500D01*
X115127843Y-106950500D01*
X115381340Y-106917126D01*
X115628313Y-106850950D01*
X115864535Y-106753104D01*
X116085965Y-106625261D01*
X116288813Y-106469610D01*
X116469610Y-106288813D01*
X116625261Y-106085965D01*
X116753104Y-105864535D01*
X116850950Y-105628313D01*
X116917126Y-105381340D01*
X116950500Y-105127843D01*
X116950500Y-104872157D01*
X116950499Y-104872149D01*
X143049500Y-104872149D01*
X143049500Y-105127850D01*
X143068956Y-105275625D01*
X143082874Y-105381340D01*
X143100626Y-105447591D01*
X143149050Y-105628312D01*
X143149053Y-105628322D01*
X143246894Y-105864531D01*
X143246899Y-105864542D01*
X143374734Y-106085957D01*
X143374745Y-106085973D01*
X143530388Y-106288811D01*
X143530394Y-106288818D01*
X143711181Y-106469605D01*
X143711187Y-106469610D01*
X143914035Y-106625261D01*
X143914042Y-106625265D01*
X144135457Y-106753100D01*
X144135462Y-106753102D01*
X144135465Y-106753104D01*
X144371687Y-106850950D01*
X144618660Y-106917126D01*
X144872157Y-106950500D01*
X144872164Y-106950500D01*
X145127836Y-106950500D01*
X145127843Y-106950500D01*
X145381340Y-106917126D01*
X145628313Y-106850950D01*
X145864535Y-106753104D01*
X146085965Y-106625261D01*
X146288813Y-106469610D01*
X146469610Y-106288813D01*
X146625261Y-106085965D01*
X146753104Y-105864535D01*
X146850950Y-105628313D01*
X146917126Y-105381340D01*
X146950500Y-105127843D01*
X146950500Y-104872157D01*
X146917126Y-104618660D01*
X146850950Y-104371687D01*
X146753104Y-104135465D01*
X146753102Y-104135462D01*
X146753100Y-104135457D01*
X146625265Y-103914042D01*
X146625261Y-103914035D01*
X146469610Y-103711187D01*
X146469605Y-103711181D01*
X146288818Y-103530394D01*
X146288811Y-103530388D01*
X146085973Y-103374745D01*
X146085971Y-103374743D01*
X146085965Y-103374739D01*
X146085960Y-103374736D01*
X146085957Y-103374734D01*
X145864542Y-103246899D01*
X145864531Y-103246894D01*
X145628322Y-103149053D01*
X145628315Y-103149051D01*
X145628313Y-103149050D01*
X145381340Y-103082874D01*
X145325007Y-103075457D01*
X145127850Y-103049500D01*
X145127843Y-103049500D01*
X144872157Y-103049500D01*
X144872149Y-103049500D01*
X144646826Y-103079165D01*
X144618660Y-103082874D01*
X144371687Y-103149050D01*
X144371677Y-103149053D01*
X144135468Y-103246894D01*
X144135457Y-103246899D01*
X143914042Y-103374734D01*
X143914026Y-103374745D01*
X143711188Y-103530388D01*
X143711181Y-103530394D01*
X143530394Y-103711181D01*
X143530388Y-103711188D01*
X143374745Y-103914026D01*
X143374734Y-103914042D01*
X143246899Y-104135457D01*
X143246894Y-104135468D01*
X143149053Y-104371677D01*
X143149050Y-104371687D01*
X143082874Y-104618661D01*
X143049500Y-104872149D01*
X116950499Y-104872149D01*
X116917126Y-104618660D01*
X116850950Y-104371687D01*
X116753104Y-104135465D01*
X116753102Y-104135462D01*
X116753100Y-104135457D01*
X116625265Y-103914042D01*
X116625261Y-103914035D01*
X116469610Y-103711187D01*
X116469605Y-103711181D01*
X116288818Y-103530394D01*
X116288811Y-103530388D01*
X116085973Y-103374745D01*
X116085971Y-103374743D01*
X116085965Y-103374739D01*
X116085960Y-103374736D01*
X116085957Y-103374734D01*
X115864542Y-103246899D01*
X115864531Y-103246894D01*
X115628322Y-103149053D01*
X115628315Y-103149051D01*
X115628313Y-103149050D01*
X115381340Y-103082874D01*
X115325007Y-103075457D01*
X115127850Y-103049500D01*
X115127843Y-103049500D01*
X114872157Y-103049500D01*
X114872149Y-103049500D01*
X114646826Y-103079165D01*
X114618660Y-103082874D01*
X114371687Y-103149050D01*
X114371677Y-103149053D01*
X114135468Y-103246894D01*
X114135457Y-103246899D01*
X113914042Y-103374734D01*
X113914026Y-103374745D01*
X113711188Y-103530388D01*
X113711181Y-103530394D01*
X113530394Y-103711181D01*
X113530388Y-103711188D01*
X113374745Y-103914026D01*
X113374734Y-103914042D01*
X113246899Y-104135457D01*
X113246894Y-104135468D01*
X113149053Y-104371677D01*
X113149050Y-104371687D01*
X113082874Y-104618661D01*
X113049500Y-104872149D01*
X96900500Y-104872149D01*
X96900500Y-100624500D01*
X96920185Y-100557461D01*
X96972989Y-100511706D01*
X97024500Y-100500500D01*
X159375500Y-100500500D01*
X159442539Y-100520185D01*
G37*
%TD.AperFunction*%
M02*
