ISO-10303-21;
HEADER;
FILE_DESCRIPTION (( 'STEP AP214' ),
    '1' );
FILE_NAME ('TTN282849-E0W.STEP',
    '2022-11-04T18:40:17',
    ( '' ),
    ( '' ),
    'SwSTEP 2.0',
    'SolidWorks 2022',
    '' );
FILE_SCHEMA (( 'AUTOMOTIVE_DESIGN' ));
ENDSEC;

DATA;
#1 = PRESENTATION_STYLE_ASSIGNMENT (( #70 ) ) ;
#2 = MECHANICAL_DESIGN_GEOMETRIC_PRESENTATION_REPRESENTATION (  '', ( #132 ), #244 ) ;
#3 = ORIENTED_EDGE ( 'NONE', *, *, #34, .F. ) ;
#4 = DIRECTION ( 'NONE',  ( 0.000000000000000000, 0.000000000000000000, 1.000000000000000000 ) ) ;
#5 = LINE ( 'NONE', #24, #11 ) ;
#6 =( GEOMETRIC_REPRESENTATION_CONTEXT ( 3 ) GLOBAL_UNCERTAINTY_ASSIGNED_CONTEXT ( ( #280 ) ) GLOBAL_UNIT_ASSIGNED_CONTEXT ( ( #125, #98, #97 ) ) REPRESENTATION_CONTEXT ( 'NONE', 'WORKASPACE' ) );
#7 = DIRECTION ( 'NONE',  ( -0.9961946980917455452, -1.440101941186149171E-16, 0.08715574274765836016 ) ) ;
#8 = PLANE ( 'NONE',  #117 ) ;
#9 = COLOUR_RGB ( '',0.7921568627450980005, 0.8196078431372548767, 0.9333333333333333481 ) ;
#10 = CARTESIAN_POINT ( 'NONE',  ( 1.477383427793799386, -1.477383427793798942, 0.2585086032260564548 ) ) ;
#11 = VECTOR ( 'NONE', #258, 1000.000000000000000 ) ;
#12 = ORIENTED_EDGE ( 'NONE', *, *, #15, .T. ) ;
#13 = VERTEX_POINT ( 'NONE', #292 ) ;
#14 = SURFACE_STYLE_FILL_AREA ( #58 ) ;
#15 = EDGE_CURVE ( 'NONE', #240, #102, #159, .T. ) ;
#16 = SURFACE_STYLE_FILL_AREA ( #37 ) ;
#17 = VERTEX_POINT ( 'NONE', #80 ) ;
#18 = SURFACE_STYLE_FILL_AREA ( #82 ) ;
#19 = ORIENTED_EDGE ( 'NONE', *, *, #143, .F. ) ;
#20 = APPLICATION_CONTEXT ( 'automotive_design' ) ;
#21 = SURFACE_STYLE_FILL_AREA ( #84 ) ;
#22 = MECHANICAL_DESIGN_GEOMETRIC_PRESENTATION_REPRESENTATION (  '', ( #138 ), #187 ) ;
#23 = SURFACE_STYLE_FILL_AREA ( #225 ) ;
#24 = CARTESIAN_POINT ( 'NONE',  ( -1.499999999999999778, -1.500000000000000000, 0.000000000000000000 ) ) ;
#25 = EDGE_CURVE ( 'NONE', #134, #220, #248, .T. ) ;
#26 = FACE_OUTER_BOUND ( 'NONE', #211, .T. ) ;
#27 = VECTOR ( 'NONE', #290, 1000.000000000000000 ) ;
#28 = DIRECTION ( 'NONE',  ( 1.000000000000000000, 0.000000000000000000, 0.000000000000000000 ) ) ;
#29 = FACE_OUTER_BOUND ( 'NONE', #190, .T. ) ;
#30 =( LENGTH_UNIT ( ) NAMED_UNIT ( * ) SI_UNIT ( .MILLI., .METRE. ) );
#31 = SURFACE_STYLE_FILL_AREA ( #150 ) ;
#32 = DIRECTION ( 'NONE',  ( -0.000000000000000000, 0.000000000000000000, 1.000000000000000000 ) ) ;
#33 = ORIENTED_EDGE ( 'NONE', *, *, #34, .T. ) ;
#34 = EDGE_CURVE ( 'NONE', #67, #124, #224, .T. ) ;
#35 = PLANE ( 'NONE',  #120 ) ;
#36 = STYLED_ITEM ( 'NONE', ( #76 ), #204 ) ;
#37 = FILL_AREA_STYLE ('',( #219 ) ) ;
#38 = FACE_OUTER_BOUND ( 'NONE', #140, .T. ) ;
#39 = SURFACE_STYLE_USAGE ( .BOTH. , #151 ) ;
#40 = COLOUR_RGB ( '',1.000000000000000000, 0.1215686274509803905, 1.000000000000000000 ) ;
#41 = ORIENTED_EDGE ( 'NONE', *, *, #215, .F. ) ;
#42 = PRESENTATION_STYLE_ASSIGNMENT (( #39 ) ) ;
#43 = CARTESIAN_POINT ( 'NONE',  ( -1.543744331762961997, -2.231641277679448972E-16, -0.5000000000000000000 ) ) ;
#44 =( LENGTH_UNIT ( ) NAMED_UNIT ( * ) SI_UNIT ( .MILLI., .METRE. ) );
#45 = FILL_AREA_STYLE_COLOUR ( '', #96 ) ;
#46 = UNCERTAINTY_MEASURE_WITH_UNIT (LENGTH_MEASURE( 1.000000000000000082E-05 ), #274, 'distance_accuracy_value', 'NONE');
#47 = EDGE_CURVE ( 'NONE', #220, #67, #90, .T. ) ;
#48 =( GEOMETRIC_REPRESENTATION_CONTEXT ( 3 ) GLOBAL_UNCERTAINTY_ASSIGNED_CONTEXT ( ( #287 ) ) GLOBAL_UNIT_ASSIGNED_CONTEXT ( ( #30, #131, #218 ) ) REPRESENTATION_CONTEXT ( 'NONE', 'WORKASPACE' ) );
#49 = DIRECTION ( 'NONE',  ( 0.08682659386424780579, -0.08682659386424779191, 0.9924325091389669673 ) ) ;
#50 = PRODUCT_DEFINITION_CONTEXT ( 'detailed design', #20, 'design' ) ;
#51 =( GEOMETRIC_REPRESENTATION_CONTEXT ( 3 ) GLOBAL_UNCERTAINTY_ASSIGNED_CONTEXT ( ( #46 ) ) GLOBAL_UNIT_ASSIGNED_CONTEXT ( ( #274, #66, #115 ) ) REPRESENTATION_CONTEXT ( 'NONE', 'WORKASPACE' ) );
#52 = CARTESIAN_POINT ( 'NONE',  ( -1.500000000000000222, 1.500000000000000000, 0.000000000000000000 ) ) ;
#53 = VECTOR ( 'NONE', #173, 1000.000000000000114 ) ;
#54 = ADVANCED_BREP_SHAPE_REPRESENTATION ( 'TTN282849-E0W', ( #243, #88 ), #105 ) ;
#55 = FILL_AREA_STYLE_COLOUR ( '', #135 ) ;
#56 = SURFACE_SIDE_STYLE ('',( #192 ) ) ;
#57 = AXIS2_PLACEMENT_3D ( 'NONE', #61, #85, #199 ) ;
#58 = FILL_AREA_STYLE ('',( #103 ) ) ;
#59 = CARTESIAN_POINT ( 'NONE',  ( 0.000000000000000000, -1.543744331762961997, -0.5000000000000000000 ) ) ;
#60 = SURFACE_STYLE_USAGE ( .BOTH. , #169 ) ;
#61 = CARTESIAN_POINT ( 'NONE',  ( -1.500000000000000222, 1.500000000000000000, 0.000000000000000000 ) ) ;
#62 = VECTOR ( 'NONE', #254, 1000.000000000000000 ) ;
#63 = PLANE ( 'NONE',  #217 ) ;
#64 = ORIENTED_EDGE ( 'NONE', *, *, #259, .T. ) ;
#65 = MECHANICAL_DESIGN_GEOMETRIC_PRESENTATION_REPRESENTATION (  '', ( #147 ), #6 ) ;
#66 =( NAMED_UNIT ( * ) PLANE_ANGLE_UNIT ( ) SI_UNIT ( $, .RADIAN. ) );
#67 = VERTEX_POINT ( 'NONE', #141 ) ;
#68 = CARTESIAN_POINT ( 'NONE',  ( 0.000000000000000000, 0.000000000000000000, 0.000000000000000000 ) ) ;
#69 = ORIENTED_EDGE ( 'NONE', *, *, #182, .T. ) ;
#70 = SURFACE_STYLE_USAGE ( .BOTH. , #118 ) ;
#71 = CARTESIAN_POINT ( 'NONE',  ( -1.499999999999999778, -1.500000000000000000, 0.000000000000000000 ) ) ;
#72 = STYLED_ITEM ( 'NONE', ( #42 ), #267 ) ;
#73 = CARTESIAN_POINT ( 'NONE',  ( -1.499999999999999778, -1.500000000000000000, 0.000000000000000000 ) ) ;
#74 = CARTESIAN_POINT ( 'NONE',  ( 1.499999999999999778, 1.500000000000000000, 0.000000000000000000 ) ) ;
#75 = UNCERTAINTY_MEASURE_WITH_UNIT (LENGTH_MEASURE( 1.000000000000000082E-05 ), #281, 'distance_accuracy_value', 'NONE');
#76 = PRESENTATION_STYLE_ASSIGNMENT (( #60 ) ) ;
#77 = DIRECTION ( 'NONE',  ( 0.9961946980917455452, 1.440101941186149171E-16, 0.08715574274765836016 ) ) ;
#78 = PRESENTATION_LAYER_ASSIGNMENT (  '', '', ( #72 ) ) ;
#79 =( LENGTH_UNIT ( ) NAMED_UNIT ( * ) SI_UNIT ( .MILLI., .METRE. ) );
#80 = CARTESIAN_POINT ( 'NONE',  ( 1.499999999999999778, 1.500000000000000000, 0.000000000000000000 ) ) ;
#81 = DIRECTION ( 'NONE',  ( 1.000000000000000000, 0.000000000000000000, 0.000000000000000000 ) ) ;
#82 = FILL_AREA_STYLE ('',( #222 ) ) ;
#83 = CARTESIAN_POINT ( 'NONE',  ( -1.500000000000000222, 1.500000000000000000, 0.000000000000000000 ) ) ;
#84 = FILL_AREA_STYLE ('',( #45 ) ) ;
#85 = DIRECTION ( 'NONE',  ( 0.000000000000000000, 0.9961946980917455452, 0.08715574274765836016 ) ) ;
#86 = ORIENTED_EDGE ( 'NONE', *, *, #188, .T. ) ;
#87 =( NAMED_UNIT ( * ) PLANE_ANGLE_UNIT ( ) SI_UNIT ( $, .RADIAN. ) );
#88 = AXIS2_PLACEMENT_3D ( 'NONE', #68, #4, #28 ) ;
#89 = ADVANCED_FACE ( 'NONE', ( #38 ), #179, .T. ) ;
#90 = LINE ( 'NONE', #59, #27 ) ;
#91 = VECTOR ( 'NONE', #286, 1000.000000000000000 ) ;
#92 =( LENGTH_UNIT ( ) NAMED_UNIT ( * ) SI_UNIT ( .MILLI., .METRE. ) );
#93 = ORIENTED_EDGE ( 'NONE', *, *, #25, .F. ) ;
#94 = APPLICATION_PROTOCOL_DEFINITION ( 'draft international standard', 'automotive_design', 1998, #277 ) ;
#95 = SURFACE_STYLE_USAGE ( .BOTH. , #119 ) ;
#96 = COLOUR_RGB ( '',1.000000000000000000, 0.1215686274509803905, 1.000000000000000000 ) ;
#97 =( NAMED_UNIT ( * ) SI_UNIT ( $, .STERADIAN. ) SOLID_ANGLE_UNIT ( ) );
#98 =( NAMED_UNIT ( * ) PLANE_ANGLE_UNIT ( ) SI_UNIT ( $, .RADIAN. ) );
#99 = VECTOR ( 'NONE', #109, 1000.000000000000114 ) ;
#100 = PRESENTATION_STYLE_ASSIGNMENT (( #104 ) ) ;
#101 = PRESENTATION_LAYER_ASSIGNMENT (  '', '', ( #147 ) ) ;
#102 = VERTEX_POINT ( 'NONE', #73 ) ;
#103 = FILL_AREA_STYLE_COLOUR ( '', #268 ) ;
#104 = SURFACE_STYLE_USAGE ( .BOTH. , #56 ) ;
#105 =( GEOMETRIC_REPRESENTATION_CONTEXT ( 3 ) GLOBAL_UNCERTAINTY_ASSIGNED_CONTEXT ( ( #107 ) ) GLOBAL_UNIT_ASSIGNED_CONTEXT ( ( #247, #242, #202 ) ) REPRESENTATION_CONTEXT ( 'NONE', 'WORKASPACE' ) );
#106 = FILL_AREA_STYLE_COLOUR ( '', #213 ) ;
#107 = UNCERTAINTY_MEASURE_WITH_UNIT (LENGTH_MEASURE( 1.000000000000000082E-05 ), #247, 'distance_accuracy_value', 'NONE');
#108 = DIRECTION ( 'NONE',  ( 0.08715574274765836016, 0.000000000000000000, -0.9961946980917455452 ) ) ;
#109 = DIRECTION ( 'NONE',  ( -0.08682659386424777803, -0.08682659386424779191, 0.9924325091389669673 ) ) ;
#110 =( GEOMETRIC_REPRESENTATION_CONTEXT ( 3 ) GLOBAL_UNCERTAINTY_ASSIGNED_CONTEXT ( ( #149 ) ) GLOBAL_UNIT_ASSIGNED_CONTEXT ( ( #92, #208, #166 ) ) REPRESENTATION_CONTEXT ( 'NONE', 'WORKASPACE' ) );
#111 = SURFACE_SIDE_STYLE ('',( #16 ) ) ;
#112 = ORIENTED_EDGE ( 'NONE', *, *, #143, .T. ) ;
#113 = CARTESIAN_POINT ( 'NONE',  ( 1.499999999999999778, 1.500000000000000000, 0.000000000000000000 ) ) ;
#114 = EDGE_LOOP ( 'NONE', ( #186, #198, #69, #129 ) ) ;
#115 =( NAMED_UNIT ( * ) SI_UNIT ( $, .STERADIAN. ) SOLID_ANGLE_UNIT ( ) );
#116 = SURFACE_STYLE_USAGE ( .BOTH. , #137 ) ;
#117 = AXIS2_PLACEMENT_3D ( 'NONE', #237, #32, #81 ) ;
#118 = SURFACE_SIDE_STYLE ('',( #23 ) ) ;
#119 = SURFACE_SIDE_STYLE ('',( #142 ) ) ;
#120 = AXIS2_PLACEMENT_3D ( 'NONE', #189, #77, #108 ) ;
#121 = VECTOR ( 'NONE', #203, 1000.000000000000000 ) ;
#122 = PLANE ( 'NONE',  #263 ) ;
#123 = PRODUCT_DEFINITION_SHAPE ( 'NONE', 'NONE',  #133 ) ;
#124 = VERTEX_POINT ( 'NONE', #183 ) ;
#125 =( LENGTH_UNIT ( ) NAMED_UNIT ( * ) SI_UNIT ( .MILLI., .METRE. ) );
#126 = EDGE_CURVE ( 'NONE', #13, #17, #167, .T. ) ;
#127 = VECTOR ( 'NONE', #136, 1000.000000000000000 ) ;
#128 =( NAMED_UNIT ( * ) PLANE_ANGLE_UNIT ( ) SI_UNIT ( $, .RADIAN. ) );
#129 = ORIENTED_EDGE ( 'NONE', *, *, #145, .T. ) ;
#130 = MECHANICAL_DESIGN_GEOMETRIC_PRESENTATION_REPRESENTATION (  '', ( #162 ), #205 ) ;
#131 =( NAMED_UNIT ( * ) PLANE_ANGLE_UNIT ( ) SI_UNIT ( $, .RADIAN. ) );
#132 = STYLED_ITEM ( 'NONE', ( #100 ), #229 ) ;
#133 = PRODUCT_DEFINITION ( 'UNKNOWN', '', #257, #50 ) ;
#134 = VERTEX_POINT ( 'NONE', #279 ) ;
#135 = COLOUR_RGB ( '',0.7921568627450980005, 0.8196078431372548767, 0.9333333333333333481 ) ;
#136 = DIRECTION ( 'NONE',  ( -1.000000000000000000, -0.000000000000000000, -0.000000000000000000 ) ) ;
#137 = SURFACE_SIDE_STYLE ('',( #21 ) ) ;
#138 = STYLED_ITEM ( 'NONE', ( #250 ), #89 ) ;
#139 = CARTESIAN_POINT ( 'NONE',  ( 0.000000000000000000, 0.000000000000000000, -0.5000000000000000000 ) ) ;
#140 = EDGE_LOOP ( 'NONE', ( #271, #19, #239, #181 ) ) ;
#141 = CARTESIAN_POINT ( 'NONE',  ( 1.543744331762962219, -1.543744331762961997, -0.5000000000000000000 ) ) ;
#142 = SURFACE_STYLE_FILL_AREA ( #231 ) ;
#143 = EDGE_CURVE ( 'NONE', #220, #102, #256, .T. ) ;
#144 = CARTESIAN_POINT ( 'NONE',  ( 0.000000000000000000, 1.543744331762961997, -0.5000000000000000000 ) ) ;
#145 = EDGE_CURVE ( 'NONE', #134, #240, #209, .T. ) ;
#146 = SHAPE_DEFINITION_REPRESENTATION ( #123, #54 ) ;
#147 = STYLED_ITEM ( 'NONE', ( #226 ), #193 ) ;
#148 = DIRECTION ( 'NONE',  ( 0.08715574274765836016, 0.000000000000000000, 0.9961946980917455452 ) ) ;
#149 = UNCERTAINTY_MEASURE_WITH_UNIT (LENGTH_MEASURE( 1.000000000000000082E-05 ), #92, 'distance_accuracy_value', 'NONE');
#150 = FILL_AREA_STYLE ('',( #55 ) ) ;
#151 = SURFACE_SIDE_STYLE ('',( #18 ) ) ;
#152 = PRESENTATION_STYLE_ASSIGNMENT (( #289 ) ) ;
#153 = EDGE_LOOP ( 'NONE', ( #291, #41, #33, #278 ) ) ;
#154 = MECHANICAL_DESIGN_GEOMETRIC_PRESENTATION_REPRESENTATION (  '', ( #72 ), #51 ) ;
#155 = DIRECTION ( 'NONE',  ( 1.000000000000000000, 0.000000000000000000, 0.000000000000000000 ) ) ;
#156 = ORIENTED_EDGE ( 'NONE', *, *, #126, .T. ) ;
#157 = MECHANICAL_DESIGN_GEOMETRIC_PRESENTATION_REPRESENTATION (  '', ( #36 ), #48 ) ;
#158 = DIRECTION ( 'NONE',  ( -0.000000000000000000, 0.000000000000000000, 1.000000000000000000 ) ) ;
#159 = LINE ( 'NONE', #177, #91 ) ;
#160 = APPLICATION_PROTOCOL_DEFINITION ( 'draft international standard', 'automotive_design', 1998, #20 ) ;
#161 = CARTESIAN_POINT ( 'NONE',  ( -1.477383427793798720, -1.477383427793799164, 0.2585086032260563993 ) ) ;
#162 = STYLED_ITEM ( 'NONE', ( #236 ), #243 ) ;
#163 = DIRECTION ( 'NONE',  ( 0.08682659386424777803, 0.08682659386424779191, 0.9924325091389669673 ) ) ;
#164 = UNCERTAINTY_MEASURE_WITH_UNIT (LENGTH_MEASURE( 1.000000000000000082E-05 ), #79, 'distance_accuracy_value', 'NONE');
#165 = PRODUCT ( 'TTN282849-E0W', 'TTN282849-E0W', '', ( #230 ) ) ;
#166 =( NAMED_UNIT ( * ) SI_UNIT ( $, .STERADIAN. ) SOLID_ANGLE_UNIT ( ) );
#167 = LINE ( 'NONE', #74, #62 ) ;
#168 =( LENGTH_UNIT ( ) NAMED_UNIT ( * ) SI_UNIT ( .MILLI., .METRE. ) );
#169 = SURFACE_SIDE_STYLE ('',( #14 ) ) ;
#170 =( NAMED_UNIT ( * ) SI_UNIT ( $, .STERADIAN. ) SOLID_ANGLE_UNIT ( ) );
#171 = FACE_OUTER_BOUND ( 'NONE', #153, .T. ) ;
#172 = CARTESIAN_POINT ( 'NONE',  ( 1.543744331762961997, 2.231641277679448972E-16, -0.5000000000000000000 ) ) ;
#173 = DIRECTION ( 'NONE',  ( -0.08682659386424780579, 0.08682659386424779191, 0.9924325091389669673 ) ) ;
#174 = LINE ( 'NONE', #113, #99 ) ;
#175 = UNCERTAINTY_MEASURE_WITH_UNIT (LENGTH_MEASURE( 1.000000000000000082E-05 ), #44, 'distance_accuracy_value', 'NONE');
#176 = PRESENTATION_LAYER_ASSIGNMENT (  '', '', ( #36 ) ) ;
#177 = CARTESIAN_POINT ( 'NONE',  ( -1.500000000000000222, 1.500000000000000000, 0.000000000000000000 ) ) ;
#178 = COLOUR_RGB ( '',1.000000000000000000, 0.1215686274509803905, 1.000000000000000000 ) ;
#179 = PLANE ( 'NONE',  #241 ) ;
#180 = PRESENTATION_LAYER_ASSIGNMENT (  '', '', ( #138 ) ) ;
#181 = ORIENTED_EDGE ( 'NONE', *, *, #215, .T. ) ;
#182 = EDGE_CURVE ( 'NONE', #124, #134, #228, .T. ) ;
#183 = CARTESIAN_POINT ( 'NONE',  ( 1.543744331762961775, 1.543744331762961997, -0.5000000000000000000 ) ) ;
#184 = PRESENTATION_LAYER_ASSIGNMENT (  '', '', ( #266 ) ) ;
#185 = DIRECTION ( 'NONE',  ( 0.000000000000000000, -0.9961946980917455452, 0.08715574274765836016 ) ) ;
#186 = ORIENTED_EDGE ( 'NONE', *, *, #259, .F. ) ;
#187 =( GEOMETRIC_REPRESENTATION_CONTEXT ( 3 ) GLOBAL_UNCERTAINTY_ASSIGNED_CONTEXT ( ( #75 ) ) GLOBAL_UNIT_ASSIGNED_CONTEXT ( ( #281, #210, #206 ) ) REPRESENTATION_CONTEXT ( 'NONE', 'WORKASPACE' ) );
#188 = EDGE_CURVE ( 'NONE', #102, #13, #5, .T. ) ;
#189 = CARTESIAN_POINT ( 'NONE',  ( 1.499999999999999778, 1.500000000000000000, 0.000000000000000000 ) ) ;
#190 = EDGE_LOOP ( 'NONE', ( #156, #64, #12, #86 ) ) ;
#191 = COLOUR_RGB ( '',1.000000000000000000, 0.1215686274509803905, 1.000000000000000000 ) ;
#192 = SURFACE_STYLE_FILL_AREA ( #234 ) ;
#193 = ADVANCED_FACE ( 'NONE', ( #26 ), #122, .T. ) ;
#194 = LINE ( 'NONE', #83, #127 ) ;
#195 = FACE_OUTER_BOUND ( 'NONE', #276, .T. ) ;
#196 =( NAMED_UNIT ( * ) SI_UNIT ( $, .STERADIAN. ) SOLID_ANGLE_UNIT ( ) );
#197 = FACE_OUTER_BOUND ( 'NONE', #114, .T. ) ;
#198 = ORIENTED_EDGE ( 'NONE', *, *, #255, .F. ) ;
#199 = DIRECTION ( 'NONE',  ( 0.000000000000000000, -0.08715574274765836016, 0.9961946980917455452 ) ) ;
#200 = ORIENTED_EDGE ( 'NONE', *, *, #47, .F. ) ;
#201 = ORIENTED_EDGE ( 'NONE', *, *, #145, .F. ) ;
#202 =( NAMED_UNIT ( * ) SI_UNIT ( $, .STERADIAN. ) SOLID_ANGLE_UNIT ( ) );
#203 = DIRECTION ( 'NONE',  ( -1.000000000000000000, 0.000000000000000000, -0.000000000000000000 ) ) ;
#204 = ADVANCED_FACE ( 'NONE', ( #29 ), #8, .T. ) ;
#205 =( GEOMETRIC_REPRESENTATION_CONTEXT ( 3 ) GLOBAL_UNCERTAINTY_ASSIGNED_CONTEXT ( ( #164 ) ) GLOBAL_UNIT_ASSIGNED_CONTEXT ( ( #79, #285, #196 ) ) REPRESENTATION_CONTEXT ( 'NONE', 'WORKASPACE' ) );
#206 =( NAMED_UNIT ( * ) SI_UNIT ( $, .STERADIAN. ) SOLID_ANGLE_UNIT ( ) );
#207 = ORIENTED_EDGE ( 'NONE', *, *, #25, .T. ) ;
#208 =( NAMED_UNIT ( * ) PLANE_ANGLE_UNIT ( ) SI_UNIT ( $, .RADIAN. ) );
#209 = LINE ( 'NONE', #252, #288 ) ;
#210 =( NAMED_UNIT ( * ) PLANE_ANGLE_UNIT ( ) SI_UNIT ( $, .RADIAN. ) );
#211 = EDGE_LOOP ( 'NONE', ( #223, #201, #207, #112 ) ) ;
#212 = LINE ( 'NONE', #10, #53 ) ;
#213 = COLOUR_RGB ( '',1.000000000000000000, 0.1215686274509803905, 1.000000000000000000 ) ;
#214 = SURFACE_SIDE_STYLE ('',( #31 ) ) ;
#215 = EDGE_CURVE ( 'NONE', #67, #13, #212, .T. ) ;
#216 = CARTESIAN_POINT ( 'NONE',  ( -1.543744331762961775, -1.543744331762961997, -0.5000000000000000000 ) ) ;
#217 = AXIS2_PLACEMENT_3D ( 'NONE', #139, #158, #155 ) ;
#218 =( NAMED_UNIT ( * ) SI_UNIT ( $, .STERADIAN. ) SOLID_ANGLE_UNIT ( ) );
#219 = FILL_AREA_STYLE_COLOUR ( '', #178 ) ;
#220 = VERTEX_POINT ( 'NONE', #216 ) ;
#221 = STYLED_ITEM ( 'NONE', ( #1 ), #54 ) ;
#222 = FILL_AREA_STYLE_COLOUR ( '', #40 ) ;
#223 = ORIENTED_EDGE ( 'NONE', *, *, #15, .F. ) ;
#224 = LINE ( 'NONE', #172, #283 ) ;
#225 = FILL_AREA_STYLE ('',( #249 ) ) ;
#226 = PRESENTATION_STYLE_ASSIGNMENT (( #95 ) ) ;
#227 = VECTOR ( 'NONE', #163, 1000.000000000000114 ) ;
#228 = LINE ( 'NONE', #144, #121 ) ;
#229 = ADVANCED_FACE ( 'NONE', ( #171 ), #35, .T. ) ;
#230 = PRODUCT_CONTEXT ( 'NONE', #277, 'mechanical' ) ;
#231 = FILL_AREA_STYLE ('',( #282 ) ) ;
#232 = MECHANICAL_DESIGN_GEOMETRIC_PRESENTATION_REPRESENTATION (  '', ( #266 ), #284 ) ;
#233 = DIRECTION ( 'NONE',  ( 0.000000000000000000, -0.08715574274765836016, -0.9961946980917455452 ) ) ;
#234 = FILL_AREA_STYLE ('',( #106 ) ) ;
#235 = PRESENTATION_LAYER_ASSIGNMENT (  '', '', ( #221 ) ) ;
#236 = PRESENTATION_STYLE_ASSIGNMENT (( #264 ) ) ;
#237 = CARTESIAN_POINT ( 'NONE',  ( 0.000000000000000000, 0.000000000000000000, 0.000000000000000000 ) ) ;
#238 = PRODUCT_RELATED_PRODUCT_CATEGORY ( 'part', '', ( #165 ) ) ;
#239 = ORIENTED_EDGE ( 'NONE', *, *, #47, .T. ) ;
#240 = VERTEX_POINT ( 'NONE', #262 ) ;
#241 = AXIS2_PLACEMENT_3D ( 'NONE', #71, #185, #233 ) ;
#242 =( NAMED_UNIT ( * ) PLANE_ANGLE_UNIT ( ) SI_UNIT ( $, .RADIAN. ) );
#243 = MANIFOLD_SOLID_BREP ( 'TTN282851-1-solid1', #275 ) ;
#244 =( GEOMETRIC_REPRESENTATION_CONTEXT ( 3 ) GLOBAL_UNCERTAINTY_ASSIGNED_CONTEXT ( ( #260 ) ) GLOBAL_UNIT_ASSIGNED_CONTEXT ( ( #168, #128, #170 ) ) REPRESENTATION_CONTEXT ( 'NONE', 'WORKASPACE' ) );
#245 = VECTOR ( 'NONE', #272, 1000.000000000000000 ) ;
#246 = DIRECTION ( 'NONE',  ( -1.445602896647339163E-16, 1.000000000000000000, -0.000000000000000000 ) ) ;
#247 =( LENGTH_UNIT ( ) NAMED_UNIT ( * ) SI_UNIT ( .MILLI., .METRE. ) );
#248 = LINE ( 'NONE', #43, #245 ) ;
#249 = FILL_AREA_STYLE_COLOUR ( '', #9 ) ;
#250 = PRESENTATION_STYLE_ASSIGNMENT (( #116 ) ) ;
#251 = PRESENTATION_LAYER_ASSIGNMENT (  '', '', ( #162 ) ) ;
#252 = CARTESIAN_POINT ( 'NONE',  ( -1.500000000000000222, 1.500000000000000000, 0.000000000000000000 ) ) ;
#253 = PRESENTATION_LAYER_ASSIGNMENT (  '', '', ( #132 ) ) ;
#254 = DIRECTION ( 'NONE',  ( -1.445602896647339163E-16, 1.000000000000000000, -0.000000000000000000 ) ) ;
#255 = EDGE_CURVE ( 'NONE', #124, #17, #174, .T. ) ;
#256 = LINE ( 'NONE', #161, #227 ) ;
#257 = PRODUCT_DEFINITION_FORMATION_WITH_SPECIFIED_SOURCE ( 'ANY', '', #165, .NOT_KNOWN. ) ;
#258 = DIRECTION ( 'NONE',  ( 1.000000000000000000, 0.000000000000000000, 0.000000000000000000 ) ) ;
#259 = EDGE_CURVE ( 'NONE', #17, #240, #194, .T. ) ;
#260 = UNCERTAINTY_MEASURE_WITH_UNIT (LENGTH_MEASURE( 1.000000000000000082E-05 ), #168, 'distance_accuracy_value', 'NONE');
#261 = ADVANCED_FACE ( 'NONE', ( #197 ), #270, .T. ) ;
#262 = CARTESIAN_POINT ( 'NONE',  ( -1.500000000000000222, 1.500000000000000000, 0.000000000000000000 ) ) ;
#263 = AXIS2_PLACEMENT_3D ( 'NONE', #52, #7, #148 ) ;
#264 = SURFACE_STYLE_USAGE ( .BOTH. , #214 ) ;
#265 = ORIENTED_EDGE ( 'NONE', *, *, #182, .F. ) ;
#266 = STYLED_ITEM ( 'NONE', ( #152 ), #261 ) ;
#267 = ADVANCED_FACE ( 'NONE', ( #195 ), #63, .F. ) ;
#268 = COLOUR_RGB ( '',1.000000000000000000, 0.1215686274509803905, 1.000000000000000000 ) ;
#269 =( NAMED_UNIT ( * ) SI_UNIT ( $, .STERADIAN. ) SOLID_ANGLE_UNIT ( ) );
#270 = PLANE ( 'NONE',  #57 ) ;
#271 = ORIENTED_EDGE ( 'NONE', *, *, #188, .F. ) ;
#272 = DIRECTION ( 'NONE',  ( 1.445602896647339163E-16, -1.000000000000000000, 0.000000000000000000 ) ) ;
#273 = MECHANICAL_DESIGN_GEOMETRIC_PRESENTATION_REPRESENTATION (  '', ( #221 ), #110 ) ;
#274 =( LENGTH_UNIT ( ) NAMED_UNIT ( * ) SI_UNIT ( .MILLI., .METRE. ) );
#275 = CLOSED_SHELL ( 'NONE', ( #229, #89, #193, #261, #267, #204 ) ) ;
#276 = EDGE_LOOP ( 'NONE', ( #3, #200, #93, #265 ) ) ;
#277 = APPLICATION_CONTEXT ( 'automotive_design' ) ;
#278 = ORIENTED_EDGE ( 'NONE', *, *, #255, .T. ) ;
#279 = CARTESIAN_POINT ( 'NONE',  ( -1.543744331762962219, 1.543744331762961997, -0.5000000000000000000 ) ) ;
#280 = UNCERTAINTY_MEASURE_WITH_UNIT (LENGTH_MEASURE( 1.000000000000000082E-05 ), #125, 'distance_accuracy_value', 'NONE');
#281 =( LENGTH_UNIT ( ) NAMED_UNIT ( * ) SI_UNIT ( .MILLI., .METRE. ) );
#282 = FILL_AREA_STYLE_COLOUR ( '', #191 ) ;
#283 = VECTOR ( 'NONE', #246, 1000.000000000000000 ) ;
#284 =( GEOMETRIC_REPRESENTATION_CONTEXT ( 3 ) GLOBAL_UNCERTAINTY_ASSIGNED_CONTEXT ( ( #175 ) ) GLOBAL_UNIT_ASSIGNED_CONTEXT ( ( #44, #87, #269 ) ) REPRESENTATION_CONTEXT ( 'NONE', 'WORKASPACE' ) );
#285 =( NAMED_UNIT ( * ) PLANE_ANGLE_UNIT ( ) SI_UNIT ( $, .RADIAN. ) );
#286 = DIRECTION ( 'NONE',  ( 1.445602896647339163E-16, -1.000000000000000000, 0.000000000000000000 ) ) ;
#287 = UNCERTAINTY_MEASURE_WITH_UNIT (LENGTH_MEASURE( 1.000000000000000082E-05 ), #30, 'distance_accuracy_value', 'NONE');
#288 = VECTOR ( 'NONE', #49, 1000.000000000000114 ) ;
#289 = SURFACE_STYLE_USAGE ( .BOTH. , #111 ) ;
#290 = DIRECTION ( 'NONE',  ( 1.000000000000000000, 0.000000000000000000, 0.000000000000000000 ) ) ;
#291 = ORIENTED_EDGE ( 'NONE', *, *, #126, .F. ) ;
#292 = CARTESIAN_POINT ( 'NONE',  ( 1.500000000000000222, -1.500000000000000000, 0.000000000000000000 ) ) ;
ENDSEC;
END-ISO-10303-21;
