ISO-10303-21;
HEADER;
FILE_DESCRIPTION (( 'STEP AP203' ),
    '1' );
FILE_NAME ('19402-E0W.STEP',
    '2015-10-01T12:15:46',
    ( 'admin' ),
    ( '' ),
    'SwSTEP 2.0',
    'SolidWorks 2014',
    '' );
FILE_SCHEMA (( 'CONFIG_CONTROL_DESIGN' ));
ENDSEC;

DATA;
#1 = AXIS2_PLACEMENT_3D ( 'NONE', #49, #9, #99 ) ;
#2 = DIRECTION ( 'NONE',  ( 1.000000000000000000, 0.0000000000000000000, 0.0000000000000000000 ) ) ;
#3 = DIRECTION ( 'NONE',  ( 0.0000000000000000000, 0.0000000000000000000, 1.000000000000000000 ) ) ;
#4 = CARTESIAN_POINT ( 'NONE',  ( -0.5000000000000000000, 0.0000000000000000000, -0.1082677165354332000 ) ) ;
#5 = CALENDAR_DATE ( 2015, 1, 10 ) ;
#6 = CARTESIAN_POINT ( 'NONE',  ( 0.0000000000000000000, 0.0000000000000000000, -0.1181102362204724500 ) ) ;
#7 = PERSON_AND_ORGANIZATION_ROLE ( 'design_owner' ) ;
#8 = DATE_TIME_ROLE ( 'classification_date' ) ;
#9 = DIRECTION ( 'NONE',  ( 0.0000000000000000000, 0.0000000000000000000, -1.000000000000000000 ) ) ;
#10 = APPROVAL ( #186, 'UNSPECIFIED' ) ;
#11 = EDGE_LOOP ( 'NONE', ( #224, #77, #162, #83 ) ) ;
#12 = ORIENTED_EDGE ( 'NONE', *, *, #108, .F. ) ;
#13 = COORDINATED_UNIVERSAL_TIME_OFFSET ( 5, 0, .BEHIND. ) ;
#14 = AXIS2_PLACEMENT_3D ( 'NONE', #226, #269, #95 ) ;
#15 = ADVANCED_FACE ( 'NONE', ( #62 ), #264, .T. ) ;
#16 = DIRECTION ( 'NONE',  ( 0.0000000000000000000, 0.0000000000000000000, -1.000000000000000000 ) ) ;
#17 = DIRECTION ( 'NONE',  ( -0.0000000000000000000, -0.0000000000000000000, -1.000000000000000000 ) ) ;
#18 = CIRCLE ( 'NONE', #81, 0.5000000000000000000 ) ;
#19 = CALENDAR_DATE ( 2015, 1, 10 ) ;
#20 = DIRECTION ( 'NONE',  ( -1.000000000000000000, 0.0000000000000000000, 0.0000000000000000000 ) ) ;
#21 = CC_DESIGN_APPROVAL ( #10, ( #271 ) ) ;
#22 = DIRECTION ( 'NONE',  ( 1.000000000000000000, 0.0000000000000000000, 0.0000000000000000000 ) ) ;
#23 = APPLICATION_PROTOCOL_DEFINITION ( 'international standard', 'config_control_design', 1994, #163 ) ;
#24 = APPROVAL_ROLE ( '' ) ;
#25 = CARTESIAN_POINT ( 'NONE',  ( -0.5000000000000000000, 0.0000000000000000000, 0.1082677165354329300 ) ) ;
#26 = AXIS2_PLACEMENT_3D ( 'NONE', #247, #243, #275 ) ;
#27 = CONICAL_SURFACE ( 'NONE', #55, 0.4901574803149604800, 0.7853981633974482800 ) ;
#28 = LOCAL_TIME ( 8, 15, 46.00000000000000000, #93 ) ;
#29 = ORIENTED_EDGE ( 'NONE', *, *, #152, .T. ) ;
#30 = FACE_OUTER_BOUND ( 'NONE', #254, .T. ) ;
#31 = ORIENTED_EDGE ( 'NONE', *, *, #172, .F. ) ;
#32 = DESIGN_CONTEXT ( 'detailed design', #163, 'design' ) ;
#33 = EDGE_CURVE ( 'NONE', #183, #207, #144, .T. ) ;
#34 = ORIENTED_EDGE ( 'NONE', *, *, #48, .T. ) ;
#35 = FACE_OUTER_BOUND ( 'NONE', #11, .T. ) ;
#36 = COORDINATED_UNIVERSAL_TIME_OFFSET ( 5, 0, .BEHIND. ) ;
#37 = CC_DESIGN_PERSON_AND_ORGANIZATION_ASSIGNMENT ( #114, #202, ( #271 ) ) ;
#38 = PRODUCT_DEFINITION_SHAPE ( 'NONE', 'NONE',  #271 ) ;
#39 = ADVANCED_FACE ( 'NONE', ( #205 ), #60, .F. ) ;
#40 = CARTESIAN_POINT ( 'NONE',  ( 0.0000000000000000000, 0.0000000000000000000, 0.1181102362204724500 ) ) ;
#41 = DIRECTION ( 'NONE',  ( -1.000000000000000000, 0.0000000000000000000, 0.0000000000000000000 ) ) ;
#42 = LINE ( 'NONE', #165, #102 ) ;
#43 = APPROVAL_DATE_TIME ( #101, #74 ) ;
#44 = AXIS2_PLACEMENT_3D ( 'NONE', #252, #136, #278 ) ;
#45 = CARTESIAN_POINT ( 'NONE',  ( 0.5000000000000000000, 6.123233995736766000E-017, 0.1082677165354329300 ) ) ;
#46 =( CONVERSION_BASED_UNIT ( 'INCH', #71 ) LENGTH_UNIT ( ) NAMED_UNIT ( #75 ) );
#47 = APPROVAL_ROLE ( '' ) ;
#48 = EDGE_CURVE ( 'NONE', #79, #228, #109, .T. ) ;
#49 = CARTESIAN_POINT ( 'NONE',  ( 0.0000000000000000000, 0.0000000000000000000, 0.1181102362204724500 ) ) ;
#50 = FACE_OUTER_BOUND ( 'NONE', #85, .T. ) ;
#51 = APPROVAL_PERSON_ORGANIZATION ( #103, #74, #90 ) ;
#52 = CC_DESIGN_DATE_AND_TIME_ASSIGNMENT ( #169, #68, ( #271 ) ) ;
#53 = COORDINATED_UNIVERSAL_TIME_OFFSET ( 5, 0, .BEHIND. ) ;
#54 = VECTOR ( 'NONE', #133, 39.37007874015748100 ) ;
#55 = AXIS2_PLACEMENT_3D ( 'NONE', #204, #16, #179 ) ;
#56 = LOCAL_TIME ( 8, 15, 46.00000000000000000, #13 ) ;
#57 = ORIENTED_EDGE ( 'NONE', *, *, #142, .T. ) ;
#58 = ORIENTED_EDGE ( 'NONE', *, *, #61, .T. ) ;
#59 = DIRECTION ( 'NONE',  ( 1.000000000000000000, 0.0000000000000000000, 0.0000000000000000000 ) ) ;
#60 = PLANE ( 'NONE',  #265 ) ;
#61 = EDGE_CURVE ( 'NONE', #171, #187, #161, .T. ) ;
#62 = FACE_OUTER_BOUND ( 'NONE', #276, .T. ) ;
#63 = CARTESIAN_POINT ( 'NONE',  ( 0.0000000000000000000, 0.0000000000000000000, -0.1082677165354332000 ) ) ;
#64 = SHAPE_DEFINITION_REPRESENTATION ( #38, #150 ) ;
#65 = PRODUCT_DEFINITION_FORMATION_WITH_SPECIFIED_SOURCE ( 'ANY', '', #84, .NOT_KNOWN. ) ;
#66 = CARTESIAN_POINT ( 'NONE',  ( 0.5000000000000000000, 6.123233995736766000E-017, -0.1082677165354332000 ) ) ;
#67 =( NAMED_UNIT ( * ) SI_UNIT ( $, .STERADIAN. ) SOLID_ANGLE_UNIT ( ) );
#68 = DATE_TIME_ROLE ( 'creation_date' ) ;
#69 = EDGE_LOOP ( 'NONE', ( #58, #97 ) ) ;
#70 = AXIS2_PLACEMENT_3D ( 'NONE', #253, #137, #2 ) ;
#71 = LENGTH_MEASURE_WITH_UNIT ( LENGTH_MEASURE( 0.02539999999999999900 ), #185 );
#72 = EDGE_CURVE ( 'NONE', #187, #228, #173, .T. ) ;
#73 = DATE_AND_TIME ( #19, #239 ) ;
#74 = APPROVAL ( #220, 'UNSPECIFIED' ) ;
#75 = DIMENSIONAL_EXPONENTS ( 1.000000000000000000, 0.0000000000000000000, 0.0000000000000000000, 0.0000000000000000000, 0.0000000000000000000, 0.0000000000000000000, 0.0000000000000000000 ) ;
#76 = LINE ( 'NONE', #217, #124 ) ;
#77 = ORIENTED_EDGE ( 'NONE', *, *, #61, .F. ) ;
#78 = CARTESIAN_POINT ( 'NONE',  ( 0.0000000000000000000, 0.0000000000000000000, -0.1181102362204724500 ) ) ;
#79 = VERTEX_POINT ( 'NONE', #25 ) ;
#80 = CARTESIAN_POINT ( 'NONE',  ( 0.5000000000000000000, 6.123233995736766000E-017, 0.1181102362204724500 ) ) ;
#81 = AXIS2_PLACEMENT_3D ( 'NONE', #112, #257, #139 ) ;
#82 = CALENDAR_DATE ( 2015, 1, 10 ) ;
#83 = ORIENTED_EDGE ( 'NONE', *, *, #152, .F. ) ;
#84 = PRODUCT ( '19402-E0W', '19402-E0W', '', ( #140 ) ) ;
#85 = EDGE_LOOP ( 'NONE', ( #125, #249, #129, #203 ) ) ;
#86 = DIRECTION ( 'NONE',  ( 0.0000000000000000000, 0.0000000000000000000, 1.000000000000000000 ) ) ;
#87 = DIRECTION ( 'NONE',  ( 0.7071067811865474600, 8.659560562354932900E-017, -0.7071067811865474600 ) ) ;
#88 = APPLICATION_PROTOCOL_DEFINITION ( 'international standard', 'config_control_design', 1994, #119 ) ;
#89 = CLOSED_SHELL ( 'NONE', ( #131, #105, #15, #229, #196, #39, #148, #211 ) ) ;
#90 = APPROVAL_ROLE ( '' ) ;
#91 = EDGE_CURVE ( 'NONE', #183, #79, #42, .T. ) ;
#92 = CIRCLE ( 'NONE', #121, 0.4901574803149604800 ) ;
#93 = COORDINATED_UNIVERSAL_TIME_OFFSET ( 5, 0, .BEHIND. ) ;
#94 = UNCERTAINTY_MEASURE_WITH_UNIT (LENGTH_MEASURE( 1.000000000000000100E-005 ), #46, 'distance_accuracy_value', 'NONE');
#95 = DIRECTION ( 'NONE',  ( 1.000000000000000000, 0.0000000000000000000, 0.0000000000000000000 ) ) ;
#96 = CC_DESIGN_APPROVAL ( #74, ( #65 ) ) ;
#97 = ORIENTED_EDGE ( 'NONE', *, *, #244, .T. ) ;
#98 = VECTOR ( 'NONE', #132, 39.37007874015748100 ) ;
#99 = DIRECTION ( 'NONE',  ( -1.000000000000000000, 0.0000000000000000000, 0.0000000000000000000 ) ) ;
#100 = CIRCLE ( 'NONE', #44, 0.5000000000000000000 ) ;
#101 = DATE_AND_TIME ( #167, #214 ) ;
#102 = VECTOR ( 'NONE', #263, 39.37007874015748900 ) ;
#103 = PERSON_AND_ORGANIZATION ( #268, #230 ) ;
#104 = CONICAL_SURFACE ( 'NONE', #1, 0.4901574803149604800, 0.7853981633974482800 ) ;
#105 = ADVANCED_FACE ( 'NONE', ( #50 ), #104, .T. ) ;
#106 = DIRECTION ( 'NONE',  ( -0.7071067811865500200, 8.659560562354964900E-017, 0.7071067811865450200 ) ) ;
#107 = CARTESIAN_POINT ( 'NONE',  ( 0.0000000000000000000, 0.0000000000000000000, -0.1181102362204724500 ) ) ;
#108 = EDGE_CURVE ( 'NONE', #171, #237, #266, .T. ) ;
#109 = LINE ( 'NONE', #149, #54 ) ;
#110 = CARTESIAN_POINT ( 'NONE',  ( -0.4901574803149607000, 6.062965944597624200E-017, -0.1181102362204724500 ) ) ;
#111 = ORIENTED_EDGE ( 'NONE', *, *, #72, .T. ) ;
#112 = CARTESIAN_POINT ( 'NONE',  ( 0.0000000000000000000, 0.0000000000000000000, 0.1082677165354329300 ) ) ;
#113 = DIRECTION ( 'NONE',  ( -0.0000000000000000000, -0.0000000000000000000, 1.000000000000000000 ) ) ;
#114 = PERSON_AND_ORGANIZATION ( #268, #230 ) ;
#115 = ORIENTED_EDGE ( 'NONE', *, *, #33, .T. ) ;
#116 = CC_DESIGN_PERSON_AND_ORGANIZATION_ASSIGNMENT ( #267, #236, ( #65 ) ) ;
#117 = ORIENTED_EDGE ( 'NONE', *, *, #33, .F. ) ;
#118 = ORIENTED_EDGE ( 'NONE', *, *, #172, .T. ) ;
#119 = APPLICATION_CONTEXT ( 'configuration controlled 3d designs of mechanical parts and assemblies' ) ;
#120 = PERSON_AND_ORGANIZATION_ROLE ( 'design_supplier' ) ;
#121 = AXIS2_PLACEMENT_3D ( 'NONE', #216, #86, #235 ) ;
#122 = PERSON_AND_ORGANIZATION ( #268, #230 ) ;
#123 = ORIENTED_EDGE ( 'NONE', *, *, #233, .F. ) ;
#124 = VECTOR ( 'NONE', #87, 39.37007874015748900 ) ;
#125 = ORIENTED_EDGE ( 'NONE', *, *, #197, .F. ) ;
#126 = FACE_OUTER_BOUND ( 'NONE', #273, .T. ) ;
#127 = EDGE_CURVE ( 'NONE', #237, #228, #221, .T. ) ;
#128 = MANIFOLD_SOLID_BREP ( '19402-001-1-solid1', #89 ) ;
#129 = ORIENTED_EDGE ( 'NONE', *, *, #142, .F. ) ;
#130 = CC_DESIGN_PERSON_AND_ORGANIZATION_ASSIGNMENT ( #209, #120, ( #65 ) ) ;
#131 = ADVANCED_FACE ( 'NONE', ( #30 ), #166, .T. ) ;
#132 = DIRECTION ( 'NONE',  ( 0.7071067811865500200, 0.0000000000000000000, 0.7071067811865450200 ) ) ;
#133 = DIRECTION ( 'NONE',  ( -0.0000000000000000000, -0.0000000000000000000, -1.000000000000000000 ) ) ;
#134 = VECTOR ( 'NONE', #106, 39.37007874015748100 ) ;
#135 = DIRECTION ( 'NONE',  ( -0.0000000000000000000, -0.0000000000000000000, -1.000000000000000000 ) ) ;
#136 = DIRECTION ( 'NONE',  ( 0.0000000000000000000, 0.0000000000000000000, -1.000000000000000000 ) ) ;
#137 = DIRECTION ( 'NONE',  ( -0.0000000000000000000, -0.0000000000000000000, 1.000000000000000000 ) ) ;
#138 = AXIS2_PLACEMENT_3D ( 'NONE', #232, #3, #157 ) ;
#139 = DIRECTION ( 'NONE',  ( 1.000000000000000000, 0.0000000000000000000, 0.0000000000000000000 ) ) ;
#140 = MECHANICAL_CONTEXT ( 'NONE', #119, 'mechanical' ) ;
#141 = PERSON_AND_ORGANIZATION_ROLE ( 'classification_officer' ) ;
#142 = EDGE_CURVE ( 'NONE', #79, #188, #100, .T. ) ;
#143 = APPROVAL_DATE_TIME ( #73, #192 ) ;
#144 = CIRCLE ( 'NONE', #222, 0.4901574803149604800 ) ;
#145 = SECURITY_CLASSIFICATION ( '', '', #262 ) ;
#146 = DATE_AND_TIME ( #82, #28 ) ;
#147 = AXIS2_PLACEMENT_3D ( 'NONE', #63, #113, #181 ) ;
#148 = ADVANCED_FACE ( 'NONE', ( #154 ), #27, .T. ) ;
#149 = CARTESIAN_POINT ( 'NONE',  ( -0.5000000000000000000, 0.0000000000000000000, 0.1181102362204724500 ) ) ;
#150 = ADVANCED_BREP_SHAPE_REPRESENTATION ( '19402-E0W', ( #128, #241 ), #168 ) ;
#151 = DIRECTION ( 'NONE',  ( 1.000000000000000000, 0.0000000000000000000, -0.0000000000000000000 ) ) ;
#152 = EDGE_CURVE ( 'NONE', #228, #237, #246, .T. ) ;
#153 = ORIENTED_EDGE ( 'NONE', *, *, #127, .F. ) ;
#154 = FACE_OUTER_BOUND ( 'NONE', #219, .T. ) ;
#155 = PERSON_AND_ORGANIZATION ( #268, #230 ) ;
#156 = CARTESIAN_POINT ( 'NONE',  ( -0.4901574803149604800, 0.0000000000000000000, 0.1181102362204724500 ) ) ;
#157 = DIRECTION ( 'NONE',  ( 1.000000000000000000, 0.0000000000000000000, -0.0000000000000000000 ) ) ;
#158 = DIRECTION ( 'NONE',  ( -0.0000000000000000000, -0.0000000000000000000, -1.000000000000000000 ) ) ;
#159 = CC_DESIGN_PERSON_AND_ORGANIZATION_ASSIGNMENT ( #155, #141, ( #145 ) ) ;
#160 = DIRECTION ( 'NONE',  ( -0.0000000000000000000, -0.0000000000000000000, -1.000000000000000000 ) ) ;
#161 = CIRCLE ( 'NONE', #245, 0.4901574803149607000 ) ;
#162 = ORIENTED_EDGE ( 'NONE', *, *, #108, .T. ) ;
#163 = APPLICATION_CONTEXT ( 'configuration controlled 3d designs of mechanical parts and assemblies' ) ;
#164 = APPROVAL_STATUS ( 'not_yet_approved' ) ;
#165 = CARTESIAN_POINT ( 'NONE',  ( -0.4901574803149604800, 0.0000000000000000000, 0.1181102362204724500 ) ) ;
#166 = CONICAL_SURFACE ( 'NONE', #26, 0.5000000000000000000, 0.7853981633974518300 ) ;
#167 = CALENDAR_DATE ( 2015, 1, 10 ) ;
#168 =( GEOMETRIC_REPRESENTATION_CONTEXT ( 3 ) GLOBAL_UNCERTAINTY_ASSIGNED_CONTEXT ( ( #94 ) ) GLOBAL_UNIT_ASSIGNED_CONTEXT ( ( #46, #201, #67 ) ) REPRESENTATION_CONTEXT ( 'NONE', 'WORKASPACE' ) );
#169 = DATE_AND_TIME ( #218, #272 ) ;
#170 = ORIENTED_EDGE ( 'NONE', *, *, #48, .F. ) ;
#171 = VERTEX_POINT ( 'NONE', #198 ) ;
#172 = EDGE_CURVE ( 'NONE', #188, #237, #208, .T. ) ;
#173 = LINE ( 'NONE', #277, #134 ) ;
#174 = APPROVAL_DATE_TIME ( #223, #10 ) ;
#175 = CC_DESIGN_DATE_AND_TIME_ASSIGNMENT ( #146, #8, ( #145 ) ) ;
#176 = DIRECTION ( 'NONE',  ( 0.0000000000000000000, 0.0000000000000000000, 1.000000000000000000 ) ) ;
#177 = CARTESIAN_POINT ( 'NONE',  ( 0.5000000000000000000, 0.0000000000000000000, -0.1082677165354332000 ) ) ;
#178 = DIRECTION ( 'NONE',  ( -0.0000000000000000000, -0.0000000000000000000, -1.000000000000000000 ) ) ;
#179 = DIRECTION ( 'NONE',  ( -1.000000000000000000, 0.0000000000000000000, 0.0000000000000000000 ) ) ;
#180 = AXIS2_PLACEMENT_3D ( 'NONE', #6, #160, #22 ) ;
#181 = DIRECTION ( 'NONE',  ( 1.000000000000000000, 0.0000000000000000000, 0.0000000000000000000 ) ) ;
#182 = APPROVAL_PERSON_ORGANIZATION ( #122, #10, #47 ) ;
#183 = VERTEX_POINT ( 'NONE', #156 ) ;
#184 = DIRECTION ( 'NONE',  ( 0.0000000000000000000, 0.0000000000000000000, 1.000000000000000000 ) ) ;
#185 =( LENGTH_UNIT ( ) NAMED_UNIT ( * ) SI_UNIT ( $, .METRE. ) );
#186 = APPROVAL_STATUS ( 'not_yet_approved' ) ;
#187 = VERTEX_POINT ( 'NONE', #110 ) ;
#188 = VERTEX_POINT ( 'NONE', #45 ) ;
#189 = EDGE_CURVE ( 'NONE', #188, #79, #18, .T. ) ;
#190 = CONICAL_SURFACE ( 'NONE', #147, 0.5000000000000000000, 0.7853981633974518300 ) ;
#191 = ORIENTED_EDGE ( 'NONE', *, *, #91, .T. ) ;
#192 = APPROVAL ( #164, 'UNSPECIFIED' ) ;
#193 = EDGE_LOOP ( 'NONE', ( #115, #195 ) ) ;
#194 = AXIS2_PLACEMENT_3D ( 'NONE', #259, #158, #20 ) ;
#195 = ORIENTED_EDGE ( 'NONE', *, *, #197, .T. ) ;
#196 = ADVANCED_FACE ( 'NONE', ( #234 ), #215, .T. ) ;
#197 = EDGE_CURVE ( 'NONE', #207, #183, #92, .T. ) ;
#198 = CARTESIAN_POINT ( 'NONE',  ( 0.4901574803149607000, 0.0000000000000000000, -0.1181102362204724500 ) ) ;
#199 = CARTESIAN_POINT ( 'NONE',  ( 0.4901574803149604800, 6.062965944597623000E-017, 0.1181102362204724500 ) ) ;
#200 = CC_DESIGN_APPROVAL ( #192, ( #145 ) ) ;
#201 =( NAMED_UNIT ( * ) PLANE_ANGLE_UNIT ( ) SI_UNIT ( $, .RADIAN. ) );
#202 = PERSON_AND_ORGANIZATION_ROLE ( 'creator' ) ;
#203 = ORIENTED_EDGE ( 'NONE', *, *, #91, .F. ) ;
#204 = CARTESIAN_POINT ( 'NONE',  ( 0.0000000000000000000, 0.0000000000000000000, 0.1181102362204724500 ) ) ;
#205 = FACE_OUTER_BOUND ( 'NONE', #69, .T. ) ;
#206 = PERSON_AND_ORGANIZATION ( #268, #230 ) ;
#207 = VERTEX_POINT ( 'NONE', #199 ) ;
#208 = LINE ( 'NONE', #80, #213 ) ;
#209 = PERSON_AND_ORGANIZATION ( #268, #230 ) ;
#210 = CC_DESIGN_SECURITY_CLASSIFICATION ( #145, ( #65 ) ) ;
#211 = ADVANCED_FACE ( 'NONE', ( #35 ), #190, .T. ) ;
#212 = CARTESIAN_POINT ( 'NONE',  ( 0.0000000000000000000, 0.0000000000000000000, 0.1181102362204724500 ) ) ;
#213 = VECTOR ( 'NONE', #17, 39.37007874015748100 ) ;
#214 = LOCAL_TIME ( 8, 15, 46.00000000000000000, #270 ) ;
#215 = PLANE ( 'NONE',  #138 ) ;
#216 = CARTESIAN_POINT ( 'NONE',  ( 0.0000000000000000000, 0.0000000000000000000, 0.1181102362204724500 ) ) ;
#217 = CARTESIAN_POINT ( 'NONE',  ( 0.4901574803149604800, 6.002697893458481200E-017, 0.1181102362204724500 ) ) ;
#218 = CALENDAR_DATE ( 2015, 1, 10 ) ;
#219 = EDGE_LOOP ( 'NONE', ( #123, #117, #191, #242 ) ) ;
#220 = APPROVAL_STATUS ( 'not_yet_approved' ) ;
#221 = CIRCLE ( 'NONE', #14, 0.5000000000000000000 ) ;
#222 = AXIS2_PLACEMENT_3D ( 'NONE', #212, #176, #59 ) ;
#223 = DATE_AND_TIME ( #5, #56 ) ;
#224 = ORIENTED_EDGE ( 'NONE', *, *, #72, .F. ) ;
#225 = PRODUCT_RELATED_PRODUCT_CATEGORY ( 'detail', '', ( #84 ) ) ;
#226 = CARTESIAN_POINT ( 'NONE',  ( 0.0000000000000000000, 0.0000000000000000000, -0.1082677165354332000 ) ) ;
#227 = PERSON_AND_ORGANIZATION ( #268, #230 ) ;
#228 = VERTEX_POINT ( 'NONE', #4 ) ;
#229 = ADVANCED_FACE ( 'NONE', ( #126 ), #238, .T. ) ;
#230 = ORGANIZATION ( 'UNSPECIFIED', 'UNSPECIFIED', '' ) ;
#231 = AXIS2_PLACEMENT_3D ( 'NONE', #40, #135, #41 ) ;
#232 = CARTESIAN_POINT ( 'NONE',  ( 0.0000000000000000000, 0.0000000000000000000, 0.1181102362204724500 ) ) ;
#233 = EDGE_CURVE ( 'NONE', #207, #188, #76, .T. ) ;
#234 = FACE_OUTER_BOUND ( 'NONE', #193, .T. ) ;
#235 = DIRECTION ( 'NONE',  ( 1.000000000000000000, 0.0000000000000000000, 0.0000000000000000000 ) ) ;
#236 = PERSON_AND_ORGANIZATION_ROLE ( 'creator' ) ;
#237 = VERTEX_POINT ( 'NONE', #66 ) ;
#238 = CYLINDRICAL_SURFACE ( 'NONE', #194, 0.5000000000000000000 ) ;
#239 = LOCAL_TIME ( 8, 15, 46.00000000000000000, #36 ) ;
#240 = ORIENTED_EDGE ( 'NONE', *, *, #244, .F. ) ;
#241 = AXIS2_PLACEMENT_3D ( 'NONE', #260, #184, #261 ) ;
#242 = ORIENTED_EDGE ( 'NONE', *, *, #189, .F. ) ;
#243 = DIRECTION ( 'NONE',  ( -0.0000000000000000000, -0.0000000000000000000, 1.000000000000000000 ) ) ;
#244 = EDGE_CURVE ( 'NONE', #187, #171, #255, .T. ) ;
#245 = AXIS2_PLACEMENT_3D ( 'NONE', #78, #178, #250 ) ;
#246 = CIRCLE ( 'NONE', #70, 0.5000000000000000000 ) ;
#247 = CARTESIAN_POINT ( 'NONE',  ( 0.0000000000000000000, 0.0000000000000000000, -0.1082677165354332000 ) ) ;
#248 = ORIENTED_EDGE ( 'NONE', *, *, #127, .T. ) ;
#249 = ORIENTED_EDGE ( 'NONE', *, *, #233, .T. ) ;
#250 = DIRECTION ( 'NONE',  ( 1.000000000000000000, 0.0000000000000000000, 0.0000000000000000000 ) ) ;
#251 = DIRECTION ( 'NONE',  ( 0.0000000000000000000, 0.0000000000000000000, 1.000000000000000000 ) ) ;
#252 = CARTESIAN_POINT ( 'NONE',  ( 0.0000000000000000000, 0.0000000000000000000, 0.1082677165354329300 ) ) ;
#253 = CARTESIAN_POINT ( 'NONE',  ( 0.0000000000000000000, 0.0000000000000000000, -0.1082677165354332000 ) ) ;
#254 = EDGE_LOOP ( 'NONE', ( #240, #111, #153, #12 ) ) ;
#255 = CIRCLE ( 'NONE', #180, 0.4901574803149607000 ) ;
#256 = APPROVAL_PERSON_ORGANIZATION ( #206, #192, #24 ) ;
#257 = DIRECTION ( 'NONE',  ( 0.0000000000000000000, 0.0000000000000000000, -1.000000000000000000 ) ) ;
#258 = CC_DESIGN_PERSON_AND_ORGANIZATION_ASSIGNMENT ( #227, #7, ( #84 ) ) ;
#259 = CARTESIAN_POINT ( 'NONE',  ( 0.0000000000000000000, 0.0000000000000000000, 0.1181102362204724500 ) ) ;
#260 = CARTESIAN_POINT ( 'NONE',  ( 0.0000000000000000000, 0.0000000000000000000, 0.0000000000000000000 ) ) ;
#261 = DIRECTION ( 'NONE',  ( 1.000000000000000000, 0.0000000000000000000, 0.0000000000000000000 ) ) ;
#262 = SECURITY_CLASSIFICATION_LEVEL ( 'unclassified' ) ;
#263 = DIRECTION ( 'NONE',  ( -0.7071067811865474600, 0.0000000000000000000, -0.7071067811865474600 ) ) ;
#264 = CYLINDRICAL_SURFACE ( 'NONE', #231, 0.5000000000000000000 ) ;
#265 = AXIS2_PLACEMENT_3D ( 'NONE', #107, #251, #151 ) ;
#266 = LINE ( 'NONE', #177, #98 ) ;
#267 = PERSON_AND_ORGANIZATION ( #268, #230 ) ;
#268 = PERSON ( 'UNSPECIFIED', 'UNSPECIFIED', 'UNSPECIFIED', ('UNSPECIFIED'), ('UNSPECIFIED'), ('UNSPECIFIED') ) ;
#269 = DIRECTION ( 'NONE',  ( -0.0000000000000000000, -0.0000000000000000000, 1.000000000000000000 ) ) ;
#270 = COORDINATED_UNIVERSAL_TIME_OFFSET ( 5, 0, .BEHIND. ) ;
#271 = PRODUCT_DEFINITION ( 'UNKNOWN', '', #65, #32 ) ;
#272 = LOCAL_TIME ( 8, 15, 46.00000000000000000, #53 ) ;
#273 = EDGE_LOOP ( 'NONE', ( #31, #274, #34, #29 ) ) ;
#274 = ORIENTED_EDGE ( 'NONE', *, *, #189, .T. ) ;
#275 = DIRECTION ( 'NONE',  ( 1.000000000000000000, 0.0000000000000000000, 0.0000000000000000000 ) ) ;
#276 = EDGE_LOOP ( 'NONE', ( #57, #118, #248, #170 ) ) ;
#277 = CARTESIAN_POINT ( 'NONE',  ( -0.5000000000000000000, 6.123233995736766000E-017, -0.1082677165354332000 ) ) ;
#278 = DIRECTION ( 'NONE',  ( 1.000000000000000000, 0.0000000000000000000, 0.0000000000000000000 ) ) ;
ENDSEC;
END-ISO-10303-21;
