ISO-10303-21;
HEADER;
FILE_DESCRIPTION (( 'STEP AP214' ),
    '1' );
FILE_NAME ('TTN282848-E0W.STEP',
    '2022-11-04T18:34:32',
    ( '' ),
    ( '' ),
    'SwSTEP 2.0',
    'SolidWorks 2022',
    '' );
FILE_SCHEMA (( 'AUTOMOTIVE_DESIGN' ));
ENDSEC;

DATA;
#1 = CARTESIAN_POINT ( 'NONE',  ( -1.543744331762962219, 1.543744331762961997, -0.5000000000000000000 ) ) ;
#2 = MECHANICAL_DESIGN_GEOMETRIC_PRESENTATION_REPRESENTATION (  '', ( #67 ), #284 ) ;
#3 =( LENGTH_UNIT ( ) NAMED_UNIT ( * ) SI_UNIT ( .MILLI., .METRE. ) );
#4 = VECTOR ( 'NONE', #217, 1000.000000000000114 ) ;
#5 = DIRECTION ( 'NONE',  ( 0.000000000000000000, 0.9961946980917455452, 0.08715574274765836016 ) ) ;
#6 = CARTESIAN_POINT ( 'NONE',  ( -1.500000000000000222, 1.500000000000000000, 0.000000000000000000 ) ) ;
#7 =( GEOMETRIC_REPRESENTATION_CONTEXT ( 3 ) GLOBAL_UNCERTAINTY_ASSIGNED_CONTEXT ( ( #17 ) ) GLOBAL_UNIT_ASSIGNED_CONTEXT ( ( #259, #123, #213 ) ) REPRESENTATION_CONTEXT ( 'NONE', 'WORKASPACE' ) );
#8 = PRESENTATION_STYLE_ASSIGNMENT (( #141 ) ) ;
#9 = EDGE_CURVE ( 'NONE', #212, #106, #169, .T. ) ;
#10 = LINE ( 'NONE', #82, #237 ) ;
#11 = ORIENTED_EDGE ( 'NONE', *, *, #234, .F. ) ;
#12 = FILL_AREA_STYLE_COLOUR ( '', #101 ) ;
#13 = SURFACE_STYLE_USAGE ( .BOTH. , #66 ) ;
#14 = FILL_AREA_STYLE ('',( #59 ) ) ;
#15 = CARTESIAN_POINT ( 'NONE',  ( -1.499999999999999778, -1.500000000000000000, 0.000000000000000000 ) ) ;
#16 = PRESENTATION_LAYER_ASSIGNMENT (  '', '', ( #72 ) ) ;
#17 = UNCERTAINTY_MEASURE_WITH_UNIT (LENGTH_MEASURE( 1.000000000000000082E-05 ), #259, 'distance_accuracy_value', 'NONE');
#18 = FILL_AREA_STYLE ('',( #128 ) ) ;
#19 = AXIS2_PLACEMENT_3D ( 'NONE', #245, #175, #134 ) ;
#20 = PRESENTATION_STYLE_ASSIGNMENT (( #129 ) ) ;
#21 = FILL_AREA_STYLE ('',( #267 ) ) ;
#22 =( GEOMETRIC_REPRESENTATION_CONTEXT ( 3 ) GLOBAL_UNCERTAINTY_ASSIGNED_CONTEXT ( ( #215 ) ) GLOBAL_UNIT_ASSIGNED_CONTEXT ( ( #248, #113, #48 ) ) REPRESENTATION_CONTEXT ( 'NONE', 'WORKASPACE' ) );
#23 = EDGE_CURVE ( 'NONE', #28, #40, #121, .T. ) ;
#24 =( LENGTH_UNIT ( ) NAMED_UNIT ( * ) SI_UNIT ( .MILLI., .METRE. ) );
#25 = PRESENTATION_LAYER_ASSIGNMENT (  '', '', ( #43 ) ) ;
#26 = PRODUCT_DEFINITION_FORMATION_WITH_SPECIFIED_SOURCE ( 'ANY', '', #73, .NOT_KNOWN. ) ;
#27 = LINE ( 'NONE', #233, #140 ) ;
#28 = VERTEX_POINT ( 'NONE', #125 ) ;
#29 = FACE_OUTER_BOUND ( 'NONE', #75, .T. ) ;
#30 = PRODUCT_DEFINITION ( 'UNKNOWN', '', #26, #288 ) ;
#31 =( NAMED_UNIT ( * ) PLANE_ANGLE_UNIT ( ) SI_UNIT ( $, .RADIAN. ) );
#32 = DIRECTION ( 'NONE',  ( -1.445602896647339163E-16, 1.000000000000000000, -0.000000000000000000 ) ) ;
#33 = EDGE_CURVE ( 'NONE', #106, #81, #209, .T. ) ;
#34 = EDGE_LOOP ( 'NONE', ( #268, #11, #276, #197 ) ) ;
#35 = PRESENTATION_LAYER_ASSIGNMENT (  '', '', ( #119 ) ) ;
#36 = CARTESIAN_POINT ( 'NONE',  ( 1.477383427793799386, -1.477383427793798942, 0.2585086032260564548 ) ) ;
#37 =( GEOMETRIC_REPRESENTATION_CONTEXT ( 3 ) GLOBAL_UNCERTAINTY_ASSIGNED_CONTEXT ( ( #135 ) ) GLOBAL_UNIT_ASSIGNED_CONTEXT ( ( #254, #269, #77 ) ) REPRESENTATION_CONTEXT ( 'NONE', 'WORKASPACE' ) );
#38 = UNCERTAINTY_MEASURE_WITH_UNIT (LENGTH_MEASURE( 1.000000000000000082E-05 ), #3, 'distance_accuracy_value', 'NONE');
#39 = SURFACE_SIDE_STYLE ('',( #147 ) ) ;
#40 = VERTEX_POINT ( 'NONE', #192 ) ;
#41 =( LENGTH_UNIT ( ) NAMED_UNIT ( * ) SI_UNIT ( .MILLI., .METRE. ) );
#42 = ORIENTED_EDGE ( 'NONE', *, *, #143, .F. ) ;
#43 = STYLED_ITEM ( 'NONE', ( #54 ), #133 ) ;
#44 = ORIENTED_EDGE ( 'NONE', *, *, #9, .T. ) ;
#45 =( NAMED_UNIT ( * ) SI_UNIT ( $, .STERADIAN. ) SOLID_ANGLE_UNIT ( ) );
#46 = FACE_OUTER_BOUND ( 'NONE', #34, .T. ) ;
#47 = MECHANICAL_DESIGN_GEOMETRIC_PRESENTATION_REPRESENTATION (  '', ( #221 ), #56 ) ;
#48 =( NAMED_UNIT ( * ) SI_UNIT ( $, .STERADIAN. ) SOLID_ANGLE_UNIT ( ) );
#49 = VECTOR ( 'NONE', #204, 1000.000000000000114 ) ;
#50 = CARTESIAN_POINT ( 'NONE',  ( -1.500000000000000222, 1.500000000000000000, 0.000000000000000000 ) ) ;
#51 = UNCERTAINTY_MEASURE_WITH_UNIT (LENGTH_MEASURE( 1.000000000000000082E-05 ), #24, 'distance_accuracy_value', 'NONE');
#52 = SURFACE_SIDE_STYLE ('',( #222 ) ) ;
#53 = LINE ( 'NONE', #114, #49 ) ;
#54 = PRESENTATION_STYLE_ASSIGNMENT (( #227 ) ) ;
#55 = LINE ( 'NONE', #177, #181 ) ;
#56 =( GEOMETRIC_REPRESENTATION_CONTEXT ( 3 ) GLOBAL_UNCERTAINTY_ASSIGNED_CONTEXT ( ( #199 ) ) GLOBAL_UNIT_ASSIGNED_CONTEXT ( ( #151, #266, #45 ) ) REPRESENTATION_CONTEXT ( 'NONE', 'WORKASPACE' ) );
#57 = MANIFOLD_SOLID_BREP ( 'TTN282850-1-solid1', #131 ) ;
#58 = CARTESIAN_POINT ( 'NONE',  ( -1.500000000000000222, 1.500000000000000000, 0.000000000000000000 ) ) ;
#59 = FILL_AREA_STYLE_COLOUR ( '', #194 ) ;
#60 = SURFACE_SIDE_STYLE ('',( #282 ) ) ;
#61 = PRESENTATION_STYLE_ASSIGNMENT (( #13 ) ) ;
#62 = VECTOR ( 'NONE', #109, 1000.000000000000000 ) ;
#63 = FACE_OUTER_BOUND ( 'NONE', #255, .T. ) ;
#64 = APPLICATION_CONTEXT ( 'automotive_design' ) ;
#65 =( NAMED_UNIT ( * ) SI_UNIT ( $, .STERADIAN. ) SOLID_ANGLE_UNIT ( ) );
#66 = SURFACE_SIDE_STYLE ('',( #173 ) ) ;
#67 = STYLED_ITEM ( 'NONE', ( #61 ), #57 ) ;
#68 = SURFACE_STYLE_USAGE ( .BOTH. , #263 ) ;
#69 = DIRECTION ( 'NONE',  ( 1.000000000000000000, 0.000000000000000000, 0.000000000000000000 ) ) ;
#70 = LINE ( 'NONE', #225, #179 ) ;
#71 = FILL_AREA_STYLE ('',( #156 ) ) ;
#72 = STYLED_ITEM ( 'NONE', ( #191 ), #249 ) ;
#73 = PRODUCT ( 'TTN282848-E0W', 'TTN282848-E0W', '', ( #155 ) ) ;
#74 = DIRECTION ( 'NONE',  ( 0.08682659386424780579, -0.08682659386424779191, 0.9924325091389669673 ) ) ;
#75 = EDGE_LOOP ( 'NONE', ( #235, #205, #104, #260 ) ) ;
#76 = AXIS2_PLACEMENT_3D ( 'NONE', #160, #97, #137 ) ;
#77 =( NAMED_UNIT ( * ) SI_UNIT ( $, .STERADIAN. ) SOLID_ANGLE_UNIT ( ) );
#78 = LINE ( 'NONE', #291, #107 ) ;
#79 = VECTOR ( 'NONE', #190, 1000.000000000000000 ) ;
#80 = FILL_AREA_STYLE ('',( #184 ) ) ;
#81 = VERTEX_POINT ( 'NONE', #88 ) ;
#82 = CARTESIAN_POINT ( 'NONE',  ( -1.477383427793798720, -1.477383427793799164, 0.2585086032260563993 ) ) ;
#83 = ORIENTED_EDGE ( 'NONE', *, *, #287, .F. ) ;
#84 =( NAMED_UNIT ( * ) PLANE_ANGLE_UNIT ( ) SI_UNIT ( $, .RADIAN. ) );
#85 =( NAMED_UNIT ( * ) PLANE_ANGLE_UNIT ( ) SI_UNIT ( $, .RADIAN. ) );
#86 = ADVANCED_FACE ( 'NONE', ( #63 ), #261, .T. ) ;
#87 = PLANE ( 'NONE',  #223 ) ;
#88 = CARTESIAN_POINT ( 'NONE',  ( 1.543744331762962219, -1.543744331762961997, -0.5000000000000000000 ) ) ;
#89 =( NAMED_UNIT ( * ) SI_UNIT ( $, .STERADIAN. ) SOLID_ANGLE_UNIT ( ) );
#90 = VECTOR ( 'NONE', #93, 1000.000000000000000 ) ;
#91 = EDGE_CURVE ( 'NONE', #231, #281, #174, .T. ) ;
#92 =( GEOMETRIC_REPRESENTATION_CONTEXT ( 3 ) GLOBAL_UNCERTAINTY_ASSIGNED_CONTEXT ( ( #262 ) ) GLOBAL_UNIT_ASSIGNED_CONTEXT ( ( #41, #196, #152 ) ) REPRESENTATION_CONTEXT ( 'NONE', 'WORKASPACE' ) );
#93 = DIRECTION ( 'NONE',  ( -1.000000000000000000, -0.000000000000000000, -0.000000000000000000 ) ) ;
#94 = SHAPE_DEFINITION_REPRESENTATION ( #95, #249 ) ;
#95 = PRODUCT_DEFINITION_SHAPE ( 'NONE', 'NONE',  #30 ) ;
#96 = DIRECTION ( 'NONE',  ( 0.08715574274765836016, 0.000000000000000000, 0.9961946980917455452 ) ) ;
#97 = DIRECTION ( 'NONE',  ( 0.9961946980917455452, 1.440101941186149171E-16, 0.08715574274765836016 ) ) ;
#98 = VERTEX_POINT ( 'NONE', #286 ) ;
#99 = PRESENTATION_LAYER_ASSIGNMENT (  '', '', ( #221 ) ) ;
#100 = CARTESIAN_POINT ( 'NONE',  ( 0.000000000000000000, 0.000000000000000000, 0.000000000000000000 ) ) ;
#101 = COLOUR_RGB ( '',1.000000000000000000, 0.6862745098039215730, 0.8627450980392157298 ) ;
#102 = FACE_OUTER_BOUND ( 'NONE', #216, .T. ) ;
#103 = ORIENTED_EDGE ( 'NONE', *, *, #163, .F. ) ;
#104 = ORIENTED_EDGE ( 'NONE', *, *, #182, .T. ) ;
#105 = SURFACE_SIDE_STYLE ('',( #274 ) ) ;
#106 = VERTEX_POINT ( 'NONE', #200 ) ;
#107 = VECTOR ( 'NONE', #206, 1000.000000000000000 ) ;
#108 = ADVANCED_FACE ( 'NONE', ( #46 ), #289, .T. ) ;
#109 = DIRECTION ( 'NONE',  ( 1.445602896647339163E-16, -1.000000000000000000, 0.000000000000000000 ) ) ;
#110 =( NAMED_UNIT ( * ) PLANE_ANGLE_UNIT ( ) SI_UNIT ( $, .RADIAN. ) );
#111 = SURFACE_STYLE_FILL_AREA ( #21 ) ;
#112 = COLOUR_RGB ( '',1.000000000000000000, 0.6862745098039215730, 0.8627450980392157298 ) ;
#113 =( NAMED_UNIT ( * ) PLANE_ANGLE_UNIT ( ) SI_UNIT ( $, .RADIAN. ) );
#114 = CARTESIAN_POINT ( 'NONE',  ( 1.499999999999999778, 1.500000000000000000, 0.000000000000000000 ) ) ;
#115 = EDGE_CURVE ( 'NONE', #81, #98, #70, .T. ) ;
#116 = DIRECTION ( 'NONE',  ( 0.000000000000000000, -0.08715574274765836016, 0.9961946980917455452 ) ) ;
#117 = ADVANCED_FACE ( 'NONE', ( #243 ), #224, .T. ) ;
#118 = SURFACE_STYLE_USAGE ( .BOTH. , #136 ) ;
#119 = STYLED_ITEM ( 'NONE', ( #20 ), #108 ) ;
#120 = DIRECTION ( 'NONE',  ( -0.000000000000000000, 0.000000000000000000, 1.000000000000000000 ) ) ;
#121 = LINE ( 'NONE', #15, #241 ) ;
#122 = PRESENTATION_LAYER_ASSIGNMENT (  '', '', ( #132 ) ) ;
#123 =( NAMED_UNIT ( * ) PLANE_ANGLE_UNIT ( ) SI_UNIT ( $, .RADIAN. ) );
#124 = ORIENTED_EDGE ( 'NONE', *, *, #115, .F. ) ;
#125 = CARTESIAN_POINT ( 'NONE',  ( -1.499999999999999778, -1.500000000000000000, 0.000000000000000000 ) ) ;
#126 = AXIS2_PLACEMENT_3D ( 'NONE', #58, #5, #116 ) ;
#127 = ORIENTED_EDGE ( 'NONE', *, *, #186, .F. ) ;
#128 = FILL_AREA_STYLE_COLOUR ( '', #112 ) ;
#129 = SURFACE_STYLE_USAGE ( .BOTH. , #52 ) ;
#130 = PRESENTATION_STYLE_ASSIGNMENT (( #68 ) ) ;
#131 = CLOSED_SHELL ( 'NONE', ( #133, #108, #86, #117, #283, #219 ) ) ;
#132 = STYLED_ITEM ( 'NONE', ( #180 ), #219 ) ;
#133 = ADVANCED_FACE ( 'NONE', ( #138 ), #271, .T. ) ;
#134 = DIRECTION ( 'NONE',  ( 0.000000000000000000, -0.08715574274765836016, -0.9961946980917455452 ) ) ;
#135 = UNCERTAINTY_MEASURE_WITH_UNIT (LENGTH_MEASURE( 1.000000000000000082E-05 ), #254, 'distance_accuracy_value', 'NONE');
#136 = SURFACE_SIDE_STYLE ('',( #207 ) ) ;
#137 = DIRECTION ( 'NONE',  ( 0.08715574274765836016, 0.000000000000000000, -0.9961946980917455452 ) ) ;
#138 = FACE_OUTER_BOUND ( 'NONE', #150, .T. ) ;
#139 =( NAMED_UNIT ( * ) SI_UNIT ( $, .STERADIAN. ) SOLID_ANGLE_UNIT ( ) );
#140 = VECTOR ( 'NONE', #232, 1000.000000000000000 ) ;
#141 = SURFACE_STYLE_USAGE ( .BOTH. , #60 ) ;
#142 =( GEOMETRIC_REPRESENTATION_CONTEXT ( 3 ) GLOBAL_UNCERTAINTY_ASSIGNED_CONTEXT ( ( #51 ) ) GLOBAL_UNIT_ASSIGNED_CONTEXT ( ( #24, #110, #220 ) ) REPRESENTATION_CONTEXT ( 'NONE', 'WORKASPACE' ) );
#143 = EDGE_CURVE ( 'NONE', #40, #231, #162, .T. ) ;
#144 = CARTESIAN_POINT ( 'NONE',  ( 0.000000000000000000, 0.000000000000000000, -0.5000000000000000000 ) ) ;
#145 = UNCERTAINTY_MEASURE_WITH_UNIT (LENGTH_MEASURE( 1.000000000000000082E-05 ), #149, 'distance_accuracy_value', 'NONE');
#146 = MECHANICAL_DESIGN_GEOMETRIC_PRESENTATION_REPRESENTATION (  '', ( #132 ), #161 ) ;
#147 = SURFACE_STYLE_FILL_AREA ( #14 ) ;
#148 = EDGE_LOOP ( 'NONE', ( #292, #103, #229, #167 ) ) ;
#149 =( LENGTH_UNIT ( ) NAMED_UNIT ( * ) SI_UNIT ( .MILLI., .METRE. ) );
#150 = EDGE_LOOP ( 'NONE', ( #42, #83, #178, #242 ) ) ;
#151 =( LENGTH_UNIT ( ) NAMED_UNIT ( * ) SI_UNIT ( .MILLI., .METRE. ) );
#152 =( NAMED_UNIT ( * ) SI_UNIT ( $, .STERADIAN. ) SOLID_ANGLE_UNIT ( ) );
#153 = DIRECTION ( 'NONE',  ( -1.445602896647339163E-16, 1.000000000000000000, -0.000000000000000000 ) ) ;
#154 = CARTESIAN_POINT ( 'NONE',  ( -1.500000000000000222, 1.500000000000000000, 0.000000000000000000 ) ) ;
#155 = PRODUCT_CONTEXT ( 'NONE', #285, 'mechanical' ) ;
#156 = FILL_AREA_STYLE_COLOUR ( '', #251 ) ;
#157 = PRESENTATION_LAYER_ASSIGNMENT (  '', '', ( #279 ) ) ;
#158 = DIRECTION ( 'NONE',  ( -0.9961946980917455452, -1.440101941186149171E-16, 0.08715574274765836016 ) ) ;
#159 = STYLED_ITEM ( 'NONE', ( #8 ), #86 ) ;
#160 = CARTESIAN_POINT ( 'NONE',  ( 1.499999999999999778, 1.500000000000000000, 0.000000000000000000 ) ) ;
#161 =( GEOMETRIC_REPRESENTATION_CONTEXT ( 3 ) GLOBAL_UNCERTAINTY_ASSIGNED_CONTEXT ( ( #38 ) ) GLOBAL_UNIT_ASSIGNED_CONTEXT ( ( #3, #31, #139 ) ) REPRESENTATION_CONTEXT ( 'NONE', 'WORKASPACE' ) );
#162 = LINE ( 'NONE', #230, #247 ) ;
#163 = EDGE_CURVE ( 'NONE', #98, #231, #53, .T. ) ;
#164 = SURFACE_SIDE_STYLE ('',( #202 ) ) ;
#165 = ORIENTED_EDGE ( 'NONE', *, *, #9, .F. ) ;
#166 = EDGE_CURVE ( 'NONE', #212, #281, #55, .T. ) ;
#167 = ORIENTED_EDGE ( 'NONE', *, *, #166, .T. ) ;
#168 = LINE ( 'NONE', #36, #4 ) ;
#169 = LINE ( 'NONE', #171, #62 ) ;
#170 = CARTESIAN_POINT ( 'NONE',  ( 1.499999999999999778, 1.500000000000000000, 0.000000000000000000 ) ) ;
#171 = CARTESIAN_POINT ( 'NONE',  ( -1.543744331762961997, -2.231641277679448972E-16, -0.5000000000000000000 ) ) ;
#172 = MECHANICAL_DESIGN_GEOMETRIC_PRESENTATION_REPRESENTATION (  '', ( #159 ), #22 ) ;
#173 = SURFACE_STYLE_FILL_AREA ( #277 ) ;
#174 = LINE ( 'NONE', #154, #90 ) ;
#175 = DIRECTION ( 'NONE',  ( 0.000000000000000000, -0.9961946980917455452, 0.08715574274765836016 ) ) ;
#176 = FILL_AREA_STYLE_COLOUR ( '', #187 ) ;
#177 = CARTESIAN_POINT ( 'NONE',  ( -1.500000000000000222, 1.500000000000000000, 0.000000000000000000 ) ) ;
#178 = ORIENTED_EDGE ( 'NONE', *, *, #115, .T. ) ;
#179 = VECTOR ( 'NONE', #153, 1000.000000000000000 ) ;
#180 = PRESENTATION_STYLE_ASSIGNMENT (( #118 ) ) ;
#181 = VECTOR ( 'NONE', #74, 1000.000000000000114 ) ;
#182 = EDGE_CURVE ( 'NONE', #281, #28, #78, .T. ) ;
#183 = FILL_AREA_STYLE ('',( #176 ) ) ;
#184 = FILL_AREA_STYLE_COLOUR ( '', #290 ) ;
#185 = FILL_AREA_STYLE ('',( #12 ) ) ;
#186 = EDGE_CURVE ( 'NONE', #98, #212, #27, .T. ) ;
#187 = COLOUR_RGB ( '',1.000000000000000000, 0.6862745098039215730, 0.8627450980392157298 ) ;
#188 = SURFACE_STYLE_USAGE ( .BOTH. , #105 ) ;
#189 = APPLICATION_PROTOCOL_DEFINITION ( 'draft international standard', 'automotive_design', 1998, #285 ) ;
#190 = DIRECTION ( 'NONE',  ( 1.000000000000000000, 0.000000000000000000, 0.000000000000000000 ) ) ;
#191 = PRESENTATION_STYLE_ASSIGNMENT (( #238 ) ) ;
#192 = CARTESIAN_POINT ( 'NONE',  ( 1.500000000000000222, -1.500000000000000000, 0.000000000000000000 ) ) ;
#193 = AXIS2_PLACEMENT_3D ( 'NONE', #244, #265, #69 ) ;
#194 = COLOUR_RGB ( '',0.7921568627450980005, 0.8196078431372548767, 0.9333333333333333481 ) ;
#195 = PRODUCT_RELATED_PRODUCT_CATEGORY ( 'part', '', ( #73 ) ) ;
#196 =( NAMED_UNIT ( * ) PLANE_ANGLE_UNIT ( ) SI_UNIT ( $, .RADIAN. ) );
#197 = ORIENTED_EDGE ( 'NONE', *, *, #287, .T. ) ;
#198 = MECHANICAL_DESIGN_GEOMETRIC_PRESENTATION_REPRESENTATION (  '', ( #119 ), #142 ) ;
#199 = UNCERTAINTY_MEASURE_WITH_UNIT (LENGTH_MEASURE( 1.000000000000000082E-05 ), #151, 'distance_accuracy_value', 'NONE');
#200 = CARTESIAN_POINT ( 'NONE',  ( -1.543744331762961775, -1.543744331762961997, -0.5000000000000000000 ) ) ;
#201 = PRESENTATION_LAYER_ASSIGNMENT (  '', '', ( #159 ) ) ;
#202 = SURFACE_STYLE_FILL_AREA ( #80 ) ;
#203 = ORIENTED_EDGE ( 'NONE', *, *, #33, .F. ) ;
#204 = DIRECTION ( 'NONE',  ( -0.08682659386424777803, -0.08682659386424779191, 0.9924325091389669673 ) ) ;
#205 = ORIENTED_EDGE ( 'NONE', *, *, #91, .T. ) ;
#206 = DIRECTION ( 'NONE',  ( 1.445602896647339163E-16, -1.000000000000000000, 0.000000000000000000 ) ) ;
#207 = SURFACE_STYLE_FILL_AREA ( #183 ) ;
#208 = DIRECTION ( 'NONE',  ( 1.000000000000000000, 0.000000000000000000, 0.000000000000000000 ) ) ;
#209 = LINE ( 'NONE', #214, #79 ) ;
#210 = MECHANICAL_DESIGN_GEOMETRIC_PRESENTATION_REPRESENTATION (  '', ( #72 ), #92 ) ;
#211 = UNCERTAINTY_MEASURE_WITH_UNIT (LENGTH_MEASURE( 1.000000000000000082E-05 ), #280, 'distance_accuracy_value', 'NONE');
#212 = VERTEX_POINT ( 'NONE', #1 ) ;
#213 =( NAMED_UNIT ( * ) SI_UNIT ( $, .STERADIAN. ) SOLID_ANGLE_UNIT ( ) );
#214 = CARTESIAN_POINT ( 'NONE',  ( 0.000000000000000000, -1.543744331762961997, -0.5000000000000000000 ) ) ;
#215 = UNCERTAINTY_MEASURE_WITH_UNIT (LENGTH_MEASURE( 1.000000000000000082E-05 ), #248, 'distance_accuracy_value', 'NONE');
#216 = EDGE_LOOP ( 'NONE', ( #124, #203, #165, #127 ) ) ;
#217 = DIRECTION ( 'NONE',  ( -0.08682659386424780579, 0.08682659386424779191, 0.9924325091389669673 ) ) ;
#218 = DIRECTION ( 'NONE',  ( 1.000000000000000000, 0.000000000000000000, 0.000000000000000000 ) ) ;
#219 = ADVANCED_FACE ( 'NONE', ( #29 ), #250, .T. ) ;
#220 =( NAMED_UNIT ( * ) SI_UNIT ( $, .STERADIAN. ) SOLID_ANGLE_UNIT ( ) );
#221 = STYLED_ITEM ( 'NONE', ( #130 ), #117 ) ;
#222 = SURFACE_STYLE_FILL_AREA ( #71 ) ;
#223 = AXIS2_PLACEMENT_3D ( 'NONE', #144, #256, #236 ) ;
#224 = PLANE ( 'NONE',  #126 ) ;
#225 = CARTESIAN_POINT ( 'NONE',  ( 1.543744331762961997, 2.231641277679448972E-16, -0.5000000000000000000 ) ) ;
#226 = COLOUR_RGB ( '',0.7921568627450980005, 0.8196078431372548767, 0.9333333333333333481 ) ;
#227 = SURFACE_STYLE_USAGE ( .BOTH. , #164 ) ;
#228 = AXIS2_PLACEMENT_3D ( 'NONE', #100, #120, #208 ) ;
#229 = ORIENTED_EDGE ( 'NONE', *, *, #186, .T. ) ;
#230 = CARTESIAN_POINT ( 'NONE',  ( 1.499999999999999778, 1.500000000000000000, 0.000000000000000000 ) ) ;
#231 = VERTEX_POINT ( 'NONE', #170 ) ;
#232 = DIRECTION ( 'NONE',  ( -1.000000000000000000, 0.000000000000000000, -0.000000000000000000 ) ) ;
#233 = CARTESIAN_POINT ( 'NONE',  ( 0.000000000000000000, 1.543744331762961997, -0.5000000000000000000 ) ) ;
#234 = EDGE_CURVE ( 'NONE', #106, #28, #10, .T. ) ;
#235 = ORIENTED_EDGE ( 'NONE', *, *, #143, .T. ) ;
#236 = DIRECTION ( 'NONE',  ( 1.000000000000000000, 0.000000000000000000, 0.000000000000000000 ) ) ;
#237 = VECTOR ( 'NONE', #278, 1000.000000000000114 ) ;
#238 = SURFACE_STYLE_USAGE ( .BOTH. , #39 ) ;
#239 = ORIENTED_EDGE ( 'NONE', *, *, #166, .F. ) ;
#240 = ORIENTED_EDGE ( 'NONE', *, *, #234, .T. ) ;
#241 = VECTOR ( 'NONE', #218, 1000.000000000000000 ) ;
#242 = ORIENTED_EDGE ( 'NONE', *, *, #163, .T. ) ;
#243 = FACE_OUTER_BOUND ( 'NONE', #148, .T. ) ;
#244 = CARTESIAN_POINT ( 'NONE',  ( 0.000000000000000000, 0.000000000000000000, 0.000000000000000000 ) ) ;
#245 = CARTESIAN_POINT ( 'NONE',  ( -1.499999999999999778, -1.500000000000000000, 0.000000000000000000 ) ) ;
#246 = APPLICATION_PROTOCOL_DEFINITION ( 'draft international standard', 'automotive_design', 1998, #64 ) ;
#247 = VECTOR ( 'NONE', #32, 1000.000000000000000 ) ;
#248 =( LENGTH_UNIT ( ) NAMED_UNIT ( * ) SI_UNIT ( .MILLI., .METRE. ) );
#249 = ADVANCED_BREP_SHAPE_REPRESENTATION ( 'TTN282848-E0W', ( #57, #193 ), #7 ) ;
#250 = PLANE ( 'NONE',  #228 ) ;
#251 = COLOUR_RGB ( '',1.000000000000000000, 0.6862745098039215730, 0.8627450980392157298 ) ;
#252 = MECHANICAL_DESIGN_GEOMETRIC_PRESENTATION_REPRESENTATION (  '', ( #43 ), #37 ) ;
#253 = COLOUR_RGB ( '',1.000000000000000000, 0.6862745098039215730, 0.8627450980392157298 ) ;
#254 =( LENGTH_UNIT ( ) NAMED_UNIT ( * ) SI_UNIT ( .MILLI., .METRE. ) );
#255 = EDGE_LOOP ( 'NONE', ( #272, #239, #44, #240 ) ) ;
#256 = DIRECTION ( 'NONE',  ( -0.000000000000000000, 0.000000000000000000, 1.000000000000000000 ) ) ;
#257 = FILL_AREA_STYLE_COLOUR ( '', #226 ) ;
#258 = AXIS2_PLACEMENT_3D ( 'NONE', #50, #158, #96 ) ;
#259 =( LENGTH_UNIT ( ) NAMED_UNIT ( * ) SI_UNIT ( .MILLI., .METRE. ) );
#260 = ORIENTED_EDGE ( 'NONE', *, *, #23, .T. ) ;
#261 = PLANE ( 'NONE',  #258 ) ;
#262 = UNCERTAINTY_MEASURE_WITH_UNIT (LENGTH_MEASURE( 1.000000000000000082E-05 ), #41, 'distance_accuracy_value', 'NONE');
#263 = SURFACE_SIDE_STYLE ('',( #111 ) ) ;
#264 = MECHANICAL_DESIGN_GEOMETRIC_PRESENTATION_REPRESENTATION (  '', ( #279 ), #270 ) ;
#265 = DIRECTION ( 'NONE',  ( 0.000000000000000000, 0.000000000000000000, 1.000000000000000000 ) ) ;
#266 =( NAMED_UNIT ( * ) PLANE_ANGLE_UNIT ( ) SI_UNIT ( $, .RADIAN. ) );
#267 = FILL_AREA_STYLE_COLOUR ( '', #253 ) ;
#268 = ORIENTED_EDGE ( 'NONE', *, *, #23, .F. ) ;
#269 =( NAMED_UNIT ( * ) PLANE_ANGLE_UNIT ( ) SI_UNIT ( $, .RADIAN. ) );
#270 =( GEOMETRIC_REPRESENTATION_CONTEXT ( 3 ) GLOBAL_UNCERTAINTY_ASSIGNED_CONTEXT ( ( #211 ) ) GLOBAL_UNIT_ASSIGNED_CONTEXT ( ( #280, #84, #65 ) ) REPRESENTATION_CONTEXT ( 'NONE', 'WORKASPACE' ) );
#271 = PLANE ( 'NONE',  #76 ) ;
#272 = ORIENTED_EDGE ( 'NONE', *, *, #182, .F. ) ;
#273 = PRESENTATION_LAYER_ASSIGNMENT (  '', '', ( #67 ) ) ;
#274 = SURFACE_STYLE_FILL_AREA ( #185 ) ;
#275 = PRESENTATION_STYLE_ASSIGNMENT (( #188 ) ) ;
#276 = ORIENTED_EDGE ( 'NONE', *, *, #33, .T. ) ;
#277 = FILL_AREA_STYLE ('',( #257 ) ) ;
#278 = DIRECTION ( 'NONE',  ( 0.08682659386424777803, 0.08682659386424779191, 0.9924325091389669673 ) ) ;
#279 = STYLED_ITEM ( 'NONE', ( #275 ), #283 ) ;
#280 =( LENGTH_UNIT ( ) NAMED_UNIT ( * ) SI_UNIT ( .MILLI., .METRE. ) );
#281 = VERTEX_POINT ( 'NONE', #6 ) ;
#282 = SURFACE_STYLE_FILL_AREA ( #18 ) ;
#283 = ADVANCED_FACE ( 'NONE', ( #102 ), #87, .F. ) ;
#284 =( GEOMETRIC_REPRESENTATION_CONTEXT ( 3 ) GLOBAL_UNCERTAINTY_ASSIGNED_CONTEXT ( ( #145 ) ) GLOBAL_UNIT_ASSIGNED_CONTEXT ( ( #149, #85, #89 ) ) REPRESENTATION_CONTEXT ( 'NONE', 'WORKASPACE' ) );
#285 = APPLICATION_CONTEXT ( 'automotive_design' ) ;
#286 = CARTESIAN_POINT ( 'NONE',  ( 1.543744331762961775, 1.543744331762961997, -0.5000000000000000000 ) ) ;
#287 = EDGE_CURVE ( 'NONE', #81, #40, #168, .T. ) ;
#288 = PRODUCT_DEFINITION_CONTEXT ( 'detailed design', #64, 'design' ) ;
#289 = PLANE ( 'NONE',  #19 ) ;
#290 = COLOUR_RGB ( '',1.000000000000000000, 0.6862745098039215730, 0.8627450980392157298 ) ;
#291 = CARTESIAN_POINT ( 'NONE',  ( -1.500000000000000222, 1.500000000000000000, 0.000000000000000000 ) ) ;
#292 = ORIENTED_EDGE ( 'NONE', *, *, #91, .F. ) ;
ENDSEC;
END-ISO-10303-21;
